<svg xmlns="http://www.w3.org/2000/svg" viewBox="0 0 583 562"><defs><style>.cls-1{fill:#000000;}</style></defs><g id="Layer_2" data-name="Layer 2"><g id="Layer_1-2" data-name="Layer 1"><path class="cls-1" d="M583,4.42C583,1,582.49,0,578.73,0Q435,.21,291.37.11,148,.11,4.52,0C.63,0,0,1,0,4.67Q.15,281,0,557.33C0,561,.64,562,4.53,562q287.1-.16,574.2,0c3.78,0,4.27-1,4.27-4.42Q582.87,281,583,4.42ZM450,445.25c-52.82-.15-105.63-.09-158.44-.09-53,0-106-.06-158.94.1-4.32,0-5.47-.92-5.46-5.39q.21-158.92,0-317.85c0-4.27,1.18-5.08,5.23-5.08q158.94.18,317.88,0c4.27,0,5.5.84,5.49,5.36q-.22,158.69,0,317.35C455.72,444.35,454.36,445.27,450,445.25Z"/><path class="cls-1" d="M332.24,166c.86.82,1.57,1.48,2.26,2.16q35,35,70,69.91c1.79,1.78,1.92,2.68,0,4.55Q328.66,318.31,253,394.18c-2.19,2.2-3.14,1.56-4.94-.25q-34.36-34.53-68.93-68.84c-2.9-2.87-2.12-4.17.29-6.56q28.57-28.3,56.92-56.82,46.28-46.27,92.56-92.54C329.93,168.12,331,167.14,332.24,166Z"/></g></g></svg>