<svg xmlns="http://www.w3.org/2000/svg" width="219" height="61" viewBox="0 0 219 61" fill="none">
<path d="M108.926 60.9719C125.763 60.9719 139.412 47.3229 139.412 30.486C139.412 13.649 125.763 0 108.926 0C92.0892 0 78.4402 13.649 78.4402 30.486C78.4402 47.3229 92.0892 60.9719 108.926 60.9719Z" fill="white"/>
<path d="M94.5775 15.6426C93.7782 15.7568 93.0932 16.3277 92.5603 16.8986C91.1521 18.5352 90.429 20.8568 90.5051 23.0262C90.5812 24.6628 91.3043 27.0225 93.3596 26.9844C94.3111 26.9464 95.1484 26.3755 95.7573 25.6904C96.5566 24.777 97.0894 23.6732 97.432 22.5314C98.0029 20.6284 98.1932 18.0784 96.823 16.4799C96.2902 15.7948 95.4529 15.4904 94.5775 15.6426Z" fill="#202222"/>
<path d="M113.569 13.5874C112.466 12.7501 111.095 12.4456 109.763 12.6359C108.431 12.8262 107.251 13.6254 106.376 14.615C104.283 17.0128 103.636 20.5904 104.473 23.6352C105.196 26.2613 107.328 28.8874 110.334 28.6971C113.341 28.5068 115.434 25.8046 116.157 23.1023C116.272 22.7217 116.348 22.3411 116.386 21.9605C116.842 18.9158 116.119 15.5284 113.569 13.5874Z" fill="#202222"/>
<path d="M119.164 35.7382C116.995 35.7763 114.787 35.8524 112.618 35.8905C112.694 35.5479 112.732 35.2434 112.77 34.9009C112.808 34.4822 112.39 34.1397 112.009 34.1397C111.552 34.1397 111.286 34.4822 111.248 34.9009C111.172 35.6621 111.019 36.6897 110.41 37.2226C110.106 37.4509 109.687 37.527 109.307 37.6032C108.888 37.6793 108.469 37.7554 108.051 37.6412C106.985 37.3748 106.262 36.4994 105.843 35.5479C105.729 35.2434 105.272 35.1293 104.968 35.2054C104.625 35.2815 104.435 35.586 104.397 35.9285C104.359 36.4994 103.788 36.9942 103.369 37.2987C102.798 37.7173 102.075 37.7935 101.428 37.527C100.325 37.1084 100.21 35.7382 100.363 34.7487C100.439 34.3681 100.286 33.9875 99.9059 33.8352C99.5633 33.7211 99.1066 33.7972 98.9544 34.1397C98.4215 35.2815 97.5462 37.2606 95.9476 37.0703C94.3491 36.88 93.9685 34.7867 93.7021 33.5308C93.5118 32.5793 92.0275 32.9599 92.2178 33.9494C92.2939 34.4061 92.4081 34.8628 92.5603 35.3196C90.6954 35.2434 88.7924 35.1293 86.9275 35.0531C86.5088 35.0151 86.1663 35.4337 86.1663 35.8143C86.1663 36.233 86.5088 36.5755 86.9275 36.5755C89.0208 36.6897 91.1521 36.8039 93.2454 36.88C93.7782 37.7173 94.5014 38.4024 95.6051 38.5547C97.0894 38.783 98.1551 38.0218 98.9924 36.9561C99.2969 37.9076 99.9439 38.6688 101.048 39.0114C102.113 39.3159 103.255 39.1636 104.131 38.5166C104.511 38.2502 104.892 37.9076 105.196 37.527C105.919 38.4024 106.909 39.0114 108.013 39.1636C108.622 39.2397 109.269 39.1636 109.878 39.0114C110.487 38.8591 111.057 38.6308 111.476 38.2121C111.704 37.9838 111.895 37.6793 112.047 37.4129C114.407 37.3748 116.728 37.2987 119.088 37.2606C120.154 37.2606 120.154 35.7382 119.164 35.7382Z" fill="#202222"/>
<path d="M9.93233 43.3502C8.56217 43.6166 7.26813 43.845 6.05022 44.1114C5.5935 44.2256 5.2129 44.3017 4.90842 44.3398C4.60394 44.3778 4.33752 44.3398 4.10916 44.3017C3.8808 44.2636 3.69051 44.1875 3.53827 44.1114C3.38603 44.0353 3.23379 43.9211 3.08155 43.845C2.73901 43.6166 2.43453 43.3883 2.13005 43.1599C1.82557 42.9316 1.48303 42.6271 0.988255 42.2465C0.645716 41.942 0.379296 41.6375 0.188996 41.295C-0.00130328 40.9524 -0.0393637 40.4957 0.036756 40.0009C0.112876 39.2017 0.188995 38.2502 0.341235 37.1464C0.493474 36.0427 0.645714 34.8629 0.874074 33.6069C1.06437 32.3509 1.29273 31.0188 1.55915 29.6487C1.78751 28.2785 2.05393 26.9464 2.35841 25.5762C2.66289 24.2061 2.92931 22.9121 3.23379 21.6561C3.53826 20.4001 3.80468 19.2583 4.10916 18.2307C4.29946 17.6217 4.56588 17.2792 4.90842 17.165C5.2129 17.0508 5.70768 17.0889 6.3547 17.2792C7.00172 17.4314 7.68679 17.6598 8.40993 17.9643C9.13307 18.2687 9.78009 18.6113 10.351 18.9538C10.8838 19.3344 11.2264 19.677 11.3405 19.9814C11.4547 20.2859 11.4547 20.6665 11.2644 21.1994C10.8458 22.4173 10.4271 23.7874 10.0084 25.2718C9.58979 26.7561 9.17113 28.2785 8.75247 29.8009C8.33381 31.3613 7.91515 32.9218 7.57261 34.4442C7.19201 36.0047 6.84948 37.489 6.50694 38.8972C7.45844 38.745 8.33381 38.5927 9.13307 38.5166C9.97039 38.4405 10.8458 38.3644 11.7973 38.2882C12.3682 38.2502 12.8249 38.2882 13.0913 38.4024C13.3958 38.5166 13.6622 38.783 13.8906 39.1636C14.1189 39.5442 14.3473 39.9248 14.4995 40.2674C14.6518 40.648 14.7659 41.0286 14.842 41.3711C14.9943 41.7898 15.0324 42.0942 14.9562 42.2465C14.8801 42.3987 14.5376 42.5129 13.8906 42.6271C12.6346 42.8554 11.3025 43.0838 9.93233 43.3502Z" fill="white"/>
<path d="M34.4049 21.618C34.7474 22.3411 35.0138 23.1404 35.2041 24.0158C35.4325 25.5001 35.4705 27.1367 35.3564 28.8874C35.2422 30.6382 34.9377 32.3889 34.4429 34.1016C33.9481 35.8143 33.3011 37.4509 32.4638 39.0114C31.6265 40.5338 30.5989 41.8659 29.419 42.9315C28.5817 43.5786 27.7444 43.9972 26.8309 44.2256C25.9175 44.4539 24.8899 44.492 23.71 44.3778C22.9488 44.3017 22.1496 44.1495 21.3123 43.9972C20.4749 43.8069 19.7518 43.5786 19.0667 43.198C18.4958 42.8935 17.963 42.5509 17.4302 42.0942C16.8973 41.6375 16.4787 41.1427 16.1742 40.5718C15.6794 39.6203 15.2988 38.5546 15.0704 37.3748C14.8421 36.1949 14.7279 34.939 14.7279 33.6449C14.766 32.3509 14.9182 30.9807 15.1846 29.6486C15.4891 28.2785 15.9078 26.9464 16.4406 25.6524C17.0115 24.3583 17.6585 23.1404 18.4958 21.9986C19.2951 20.8568 20.2466 19.7911 21.3123 18.8777C22.0354 18.3068 22.8727 17.8881 23.8623 17.6217C24.8518 17.3172 25.8033 17.2792 26.7168 17.3934C27.8966 17.5837 29.0004 17.8501 30.066 18.2687C31.1317 18.6493 32.0071 19.1441 32.6922 19.6769C33.4914 20.2098 34.0623 20.8949 34.4049 21.618ZM26.2981 23.2165C25.7653 23.7113 25.2324 24.3964 24.6996 25.2718C24.1668 26.1471 23.672 27.0986 23.2153 28.1262C22.7585 29.1919 22.3779 30.1815 22.1115 31.171C21.807 32.1225 21.6167 33.1501 21.5026 34.1778C21.3884 35.2054 21.3503 36.1569 21.3884 37.0703C21.4264 37.9457 21.5787 38.7069 21.807 39.3539C22.0354 40.0009 22.416 40.3815 22.8727 40.5338C23.2914 40.686 23.7481 40.5718 24.2429 40.2673C24.6996 39.9248 25.1944 39.43 25.6511 38.745C26.1078 38.0599 26.5645 37.2226 26.9832 36.233C27.4018 35.2434 27.7824 34.1778 28.0869 32.9979C28.3533 32.0464 28.5817 30.9807 28.7339 29.8009C28.8862 28.6591 28.9623 27.5553 28.9623 26.5658C28.9623 25.5382 28.8481 24.6628 28.6578 23.9397C28.4675 23.2165 28.163 22.7979 27.7444 22.6456C27.3257 22.5314 26.8309 22.6837 26.2981 23.2165Z" fill="white"/>
<path d="M50.9609 25.8807C51.5698 23.2927 52.1788 20.8949 52.7497 18.6874C52.9019 18.0784 53.1684 17.7359 53.5109 17.5837C53.8534 17.4314 54.3482 17.4695 54.9952 17.6217C55.2997 17.6978 55.5661 17.774 55.8325 17.8501C56.0609 17.9262 56.3273 18.0023 56.5557 18.0784C56.784 18.1926 57.0505 18.3068 57.3169 18.459C57.5833 18.6113 57.8878 18.8016 58.2303 19.0299C58.8393 19.4105 59.1438 19.7911 59.2199 20.1337C59.296 20.5143 59.2579 20.971 59.0676 21.5038C58.6109 23.0262 58.1161 24.7389 57.5833 26.68C57.0885 28.621 56.5557 30.5621 56.0609 32.5412C55.5661 34.5203 55.0713 36.4614 54.6146 38.3644C54.1579 40.2674 53.7773 41.942 53.4348 43.3502C53.3206 44.1114 52.7116 44.3778 51.6079 44.1495C50.6564 43.9592 49.7049 43.6928 48.7153 43.3502C47.8019 43.0077 47.193 42.3987 46.8124 41.5233C46.5079 40.8763 46.2415 40.1532 45.937 39.3159C45.6325 38.4785 45.328 37.5651 45.0235 36.6136C44.7191 35.6241 44.4146 34.6345 44.1101 33.5688C43.8056 32.5031 43.5011 31.4375 43.2347 30.3718C43.0064 31.6278 42.778 32.9218 42.5496 34.1778C42.3213 35.4338 42.0929 36.6517 41.8646 37.8315C41.6362 38.9733 41.4459 40.0771 41.2937 41.0666C41.1034 42.0562 40.9892 42.9316 40.875 43.6547C40.7989 43.9972 40.6467 44.2256 40.4944 44.3017C40.3041 44.3778 39.9616 44.3778 39.4287 44.2256C38.934 44.1114 38.4392 43.9592 37.9444 43.845C37.4496 43.7308 36.9548 43.5025 36.4981 43.198C36.0414 42.9696 35.7369 42.7032 35.5847 42.3987C35.4324 42.0942 35.3563 41.6756 35.4325 41.1427C35.4705 40.5718 35.5466 39.8106 35.6227 38.783C35.6989 37.7554 35.8511 36.6136 36.0033 35.2815C36.1556 33.9875 36.3459 32.5793 36.5362 31.0949C36.7265 29.6106 36.9548 28.1263 37.1832 26.6419C37.4116 25.1576 37.6399 23.7494 37.8683 22.3792C38.0966 21.0091 38.325 19.7911 38.5534 18.7255C38.7056 18.1165 38.934 17.7359 39.3146 17.5837C39.6952 17.4314 40.1899 17.4314 40.837 17.5837C41.5981 17.812 42.3213 18.0404 43.0444 18.2687C43.7676 18.4971 44.4907 18.8016 45.29 19.1441C45.937 19.4105 46.3937 19.7531 46.6601 20.1337C46.9265 20.5143 47.1168 21.1232 47.231 21.8844C47.3452 22.4934 47.4594 23.2546 47.6116 24.168C47.7639 25.0815 47.9542 26.071 48.1825 27.1748C48.3728 28.2404 48.6012 29.3442 48.8295 30.486C49.0579 31.6278 49.2862 32.7315 49.5146 33.7591C49.8571 31.133 50.3519 28.5069 50.9609 25.8807Z" fill="white"/>
<path d="M76.7274 29.9912C76.5371 30.1434 76.1946 30.1815 75.6617 30.1434C74.2154 29.9531 73.1878 29.5345 72.5028 28.8874C71.8557 28.2404 71.4371 27.4031 71.361 26.3755C71.3229 26.1852 71.2848 25.9568 71.2848 25.7665C71.2848 25.5762 71.2848 25.3479 71.2848 25.1195C71.2848 24.8912 71.2848 24.6628 71.2468 24.4725C71.2087 24.2822 71.2087 24.0538 71.1707 23.8635C71.0945 23.4829 71.0184 23.1404 70.9423 22.874C70.8662 22.6076 70.7139 22.4553 70.5236 22.3792C70.105 22.265 69.6102 22.4173 69.0774 22.874C68.5065 23.3307 67.9356 23.9777 67.3647 24.8531C66.7938 25.7285 66.2229 26.718 65.652 27.8598C65.0811 29.0016 64.6244 30.1815 64.2438 31.3994C63.9012 32.389 63.6348 33.3785 63.4826 34.4442C63.3303 35.4718 63.2542 36.4233 63.3303 37.2987C63.3684 38.1741 63.5206 38.9353 63.749 39.5442C63.9773 40.1532 64.3199 40.5718 64.7766 40.686C65.1572 40.8002 65.5378 40.7621 65.9184 40.6099C66.299 40.4196 66.7176 40.1151 67.0982 39.7345C67.4788 39.3159 67.8594 38.8211 68.24 38.2502C68.6206 37.6793 68.9632 37.0323 69.2677 36.3472C68.0497 36.4233 67.0982 36.1949 66.4132 35.7002C65.7662 35.2054 65.2333 34.3681 64.8147 33.2263C64.7385 32.9599 64.7385 32.7315 64.8147 32.5793C64.8908 32.427 65.0811 32.3128 65.3094 32.1987C65.5378 32.1225 65.8042 32.0464 66.1468 31.9703C66.4893 31.9322 66.8318 31.8561 67.2505 31.8181C68.0117 31.6658 68.8109 31.5136 69.6102 31.4375C70.4475 31.3613 71.1326 31.2472 71.7416 31.133C72.4266 31.0188 72.9975 31.0188 73.4162 31.133C73.8348 31.2472 74.2535 31.5136 74.596 31.9322C74.8244 32.1987 75.0908 32.4651 75.2811 32.7696C75.5095 33.074 75.6998 33.3404 75.8901 33.5688C76.2326 34.0255 76.4229 34.4442 76.4229 34.8248C76.4229 35.2054 76.3468 35.6621 76.1565 36.1949C75.3953 38.0218 74.5199 39.5823 73.5304 40.8382C72.5408 42.0942 71.4751 43.0457 70.3333 43.7308C69.6102 44.1495 68.8109 44.4159 68.0117 44.5301C67.1744 44.6442 66.3371 44.6823 65.4236 44.5301C63.8632 44.3398 62.3027 43.883 60.8184 43.236C60.2855 42.9315 59.7527 42.5509 59.2579 42.0942C58.7631 41.5994 58.3445 41.0666 58.0781 40.4957C57.5452 39.5823 57.1646 38.4785 56.9743 37.2606C56.784 36.0046 56.7079 34.7106 56.8221 33.3024C56.9363 31.8942 57.1646 30.486 57.5452 29.0397C57.9258 27.5934 58.4587 26.1852 59.1437 24.815C59.7908 23.4449 60.59 22.1889 61.5034 20.971C62.4169 19.7911 63.4445 18.7635 64.5863 17.9262C64.9669 17.6217 65.3475 17.4314 65.7662 17.2411C66.1848 17.0889 66.6415 16.9747 67.0602 16.8986C67.5169 16.8225 67.9356 16.8225 68.3542 16.8225C68.7729 16.8225 69.1915 16.8605 69.5341 16.8986C70.0669 16.9747 70.5998 17.0508 71.1707 17.2031C71.7416 17.3553 72.2744 17.5075 72.7692 17.6978C73.302 17.8881 73.7968 18.1165 74.2535 18.3829C74.7102 18.6493 75.1289 18.9158 75.5095 19.2202C76.1946 19.7911 76.6893 20.362 76.9938 21.0471C77.2983 21.6941 77.4886 22.4553 77.5647 23.2546C77.6028 23.6732 77.6028 24.168 77.5647 24.7009C77.5647 25.2337 77.5267 25.7665 77.4886 26.2994C77.4505 26.8322 77.3744 27.327 77.2983 27.8218C77.2222 28.3165 77.1461 28.7352 77.0699 29.0397C77.0699 29.5725 76.9177 29.877 76.7274 29.9912Z" fill="white"/>
<path d="M150.944 43.3502C149.574 43.6166 148.28 43.845 147.062 44.1114C146.605 44.2256 146.225 44.3017 145.92 44.3397C145.616 44.3778 145.349 44.3397 145.121 44.3017C144.893 44.2636 144.702 44.1875 144.55 44.1114C144.398 44.0353 144.246 43.9211 144.093 43.845C143.751 43.6166 143.446 43.3882 143.142 43.1599C142.837 42.9315 142.495 42.627 142 42.2464C141.658 41.942 141.391 41.6375 141.201 41.295C141.011 40.9524 140.972 40.4957 141.049 40.0009C141.125 39.2017 141.201 38.2502 141.353 37.1464C141.505 36.0427 141.658 34.8628 141.886 33.6069C142.076 32.3509 142.305 31.0188 142.571 29.6486C142.799 28.2785 143.066 26.9464 143.37 25.5762C143.675 24.2061 143.941 22.912 144.246 21.6561C144.55 20.4001 144.817 19.2583 145.121 18.2307C145.311 17.6217 145.578 17.2792 145.92 17.165C146.225 17.0508 146.72 17.0889 147.367 17.2792C148.014 17.4314 148.699 17.6598 149.422 17.9642C150.145 18.2687 150.792 18.6113 151.363 18.9538C151.896 19.3344 152.238 19.6769 152.352 19.9814C152.467 20.2859 152.467 20.6665 152.276 21.1993C151.858 22.4173 151.439 23.7874 151.02 25.2717C150.602 26.7561 150.183 28.2785 149.764 29.8009C149.346 31.3613 148.927 32.9218 148.584 34.4442C148.204 36.0046 147.861 37.489 147.519 38.8972C148.47 38.7449 149.346 38.5927 150.145 38.5166C150.982 38.4405 151.858 38.3643 152.809 38.2882C153.38 38.2502 153.837 38.2882 154.103 38.4024C154.408 38.5166 154.674 38.783 154.902 39.1636C155.131 39.5442 155.359 39.9248 155.511 40.2673C155.664 40.6479 155.778 41.0285 155.854 41.3711C156.006 41.7897 156.044 42.0942 155.968 42.2464C155.892 42.3987 155.549 42.5129 154.902 42.627C153.646 42.8554 152.314 43.0838 150.944 43.3502Z" fill="white"/>
<path d="M175.988 21.618C176.33 22.3411 176.596 23.1404 176.787 24.0158C177.015 25.5001 177.053 27.1367 176.939 28.8874C176.825 30.6382 176.52 32.3889 176.026 34.1016C175.531 35.8143 174.884 37.4509 174.046 39.0114C173.209 40.5338 172.182 41.8659 171.002 42.9315C170.164 43.5786 169.327 43.9972 168.414 44.2256C167.5 44.4539 166.473 44.492 165.293 44.3778C164.531 44.3017 163.732 44.1495 162.895 43.9972C162.058 43.8069 161.334 43.5786 160.649 43.198C160.078 42.8935 159.546 42.5509 159.013 42.0942C158.48 41.6375 158.061 41.1427 157.757 40.5718C157.262 39.6203 156.881 38.5546 156.653 37.3748C156.425 36.1949 156.311 34.939 156.311 33.6449C156.349 32.3509 156.501 30.9807 156.767 29.6486C157.072 28.2785 157.49 26.9464 158.023 25.6524C158.594 24.3583 159.241 23.1404 160.078 21.9986C160.878 20.8568 161.829 19.7911 162.895 18.8777C163.618 18.3068 164.455 17.8881 165.445 17.6217C166.434 17.3172 167.386 17.2792 168.299 17.3934C169.479 17.5837 170.583 17.8501 171.649 18.2687C172.714 18.6493 173.59 19.1441 174.275 19.6769C175.036 20.2098 175.607 20.8949 175.988 21.618ZM167.881 23.2165C167.348 23.7113 166.815 24.3964 166.282 25.2718C165.749 26.1471 165.255 27.0986 164.798 28.1262C164.341 29.1919 163.961 30.1815 163.694 31.171C163.39 32.1225 163.199 33.1501 163.085 34.1778C162.971 35.2054 162.933 36.1569 162.971 37.0703C163.009 37.9457 163.161 38.7069 163.39 39.3539C163.618 40.0009 163.999 40.3815 164.455 40.5338C164.874 40.686 165.331 40.5718 165.826 40.2673C166.282 39.9248 166.777 39.43 167.234 38.745C167.69 38.0599 168.147 37.2226 168.566 36.233C168.984 35.2434 169.365 34.1778 169.67 32.9979C169.936 32.0464 170.164 30.9807 170.317 29.8009C170.469 28.6591 170.545 27.5553 170.545 26.5658C170.545 25.5382 170.431 24.6628 170.24 23.9397C170.05 23.2165 169.746 22.7979 169.327 22.6456C168.908 22.5314 168.414 22.6837 167.881 23.2165Z" fill="white"/>
<path d="M177.586 37.4129C178.005 37.3367 178.423 37.3367 178.842 37.3367C179.261 37.3748 179.679 37.4509 180.022 37.5651C180.403 37.6793 180.745 37.8315 181.05 38.0599C182.762 39.0875 184.285 39.7726 185.541 40.077C186.835 40.3815 187.748 40.3054 188.319 39.8487C188.547 39.6964 188.585 39.5061 188.471 39.2778C188.319 39.0494 188.091 38.7449 187.71 38.4785C187.329 38.1741 186.873 37.8696 186.302 37.489C185.731 37.1464 185.16 36.7658 184.513 36.3852C183.904 36.0046 183.257 35.586 182.648 35.2054C182.039 34.7867 181.468 34.3681 180.935 33.9494C180.364 33.4927 179.87 32.9979 179.451 32.427C178.994 31.8561 178.652 31.2472 178.423 30.6001C178.195 29.9531 178.043 29.23 178.043 28.4688C178.005 27.7076 178.157 26.9083 178.423 26.1091C178.614 25.424 178.918 24.6628 179.375 23.8635C179.832 23.0643 180.326 22.3031 180.935 21.5419C181.544 20.7807 182.191 20.0956 182.914 19.4105C183.638 18.7635 184.361 18.1926 185.084 17.7359C185.35 17.5456 185.693 17.3553 186.073 17.2031C186.454 17.0128 186.911 16.8986 187.367 16.8225C187.862 16.7463 188.357 16.7083 188.928 16.7463C189.499 16.7844 190.07 16.8986 190.679 17.0508C191.592 17.3934 192.506 17.774 193.457 18.2307C194.37 18.6874 195.132 19.2202 195.779 19.8292C196.197 20.2098 196.502 20.5904 196.73 20.9329C196.959 21.3135 197.111 21.6941 197.187 22.0367C197.263 22.4173 197.339 22.7598 197.339 23.1023C197.339 23.4449 197.339 23.7494 197.339 24.0538C197.263 24.6247 197.187 25.1956 197.035 25.8807C196.882 26.5277 196.73 27.2128 196.54 27.8598C196.35 28.5068 196.159 29.1539 195.931 29.7628C195.703 30.3718 195.474 30.9046 195.246 31.3613C195.018 31.78 194.789 32.0084 194.523 32.1225C194.256 32.2367 193.876 32.1986 193.419 32.0084C190.641 31.0188 189.347 29.6867 189.537 27.974C189.575 27.6315 189.613 27.2128 189.727 26.7561C189.841 26.2994 189.956 25.8426 190.07 25.3859C190.184 24.9292 190.298 24.4725 190.374 24.0538C190.45 23.6352 190.488 23.2926 190.45 23.0262C190.412 22.7598 190.336 22.6076 190.146 22.5695C189.994 22.5314 189.689 22.6456 189.309 22.912C188.966 23.1023 188.623 23.3688 188.205 23.7494C187.786 24.13 187.406 24.5486 187.025 25.0053C186.644 25.462 186.302 25.9949 185.997 26.5277C185.693 27.0986 185.503 27.6315 185.388 28.2024C185.274 28.7733 185.312 29.3061 185.426 29.8389C185.541 30.3718 185.845 30.8285 186.302 31.2472C186.911 31.8181 187.558 32.3128 188.281 32.8076C189.004 33.3024 189.727 33.7591 190.45 34.2539C191.173 34.7106 191.859 35.1673 192.506 35.624C193.153 36.0808 193.685 36.5375 194.104 37.0323C194.523 37.527 194.789 38.0218 194.903 38.5547C195.017 39.0875 194.903 39.6203 194.599 40.2293C194.409 40.6479 194.104 41.1047 193.723 41.5994C193.343 42.0942 192.848 42.5509 192.239 42.9696C191.63 43.3883 190.869 43.7308 189.994 44.0353C189.118 44.3398 188.053 44.492 186.835 44.492C185.198 44.5301 183.6 44.2256 182.039 43.6166C180.479 43.0077 178.88 41.9039 177.205 40.3815C176.33 39.6203 175.873 39.0494 175.835 38.7069C175.835 38.3263 176.026 38.0218 176.406 37.7935C176.787 37.6032 177.167 37.489 177.586 37.4129Z" fill="white"/>
<path d="M215.113 22.5695C214.162 22.6456 213.21 22.7598 212.183 22.874C211.764 24.5867 211.307 26.3755 210.85 28.2024C210.394 30.0292 209.937 31.8561 209.518 33.683C209.1 35.5098 208.681 37.2606 208.3 38.9733C207.92 40.686 207.577 42.2845 207.311 43.8069C207.273 44.1114 207.159 44.3017 207.006 44.3778C206.854 44.4539 206.626 44.492 206.359 44.492C206.093 44.492 205.788 44.4159 205.446 44.3397C205.103 44.2256 204.723 44.1114 204.266 43.9972C203.847 43.883 203.429 43.7308 203.086 43.6166C202.744 43.4644 202.439 43.3121 202.211 43.0838C201.982 42.8935 201.792 42.627 201.716 42.3606C201.602 42.0942 201.602 41.7517 201.678 41.3711C201.754 40.3815 201.868 39.1636 202.059 37.7554C202.249 36.3091 202.477 34.7867 202.706 33.2263C202.972 31.6277 203.238 30.0292 203.543 28.3927C203.847 26.7561 204.152 25.2717 204.456 23.8635C203.847 23.9777 203.277 24.0538 202.744 24.1299C202.173 24.2061 201.716 24.2822 201.374 24.3964C200.879 24.5105 200.46 24.5486 200.118 24.4344C199.775 24.3583 199.432 24.0919 199.014 23.6352C198.595 23.2165 198.176 22.6456 197.834 21.9986C197.491 21.3516 197.187 20.7807 196.959 20.324C196.73 19.8672 196.654 19.5247 196.768 19.3725C196.882 19.2202 197.149 19.106 197.529 18.9919C198.747 18.7635 200.118 18.5351 201.64 18.3068C203.162 18.1165 204.723 17.9262 206.321 17.7359C207.92 17.5836 209.48 17.4314 211.003 17.3172C212.525 17.203 213.895 17.1269 215.113 17.0889C215.76 17.0889 216.217 17.1269 216.483 17.2411C216.75 17.3553 217.016 17.5456 217.206 17.812C217.625 18.2687 217.968 18.8016 218.234 19.3344C218.5 19.9053 218.691 20.4381 218.843 20.971C218.957 21.4277 218.957 21.7702 218.843 21.9225C218.729 22.1128 218.348 22.1889 217.739 22.227C216.94 22.3792 216.065 22.4553 215.113 22.5695Z" fill="white"/>
</svg>