<svg width="153" height="153" viewBox="0 0 153 153" fill="none" xmlns="http://www.w3.org/2000/svg">
<path fill-rule="evenodd" clip-rule="evenodd" d="M53.7401 53.7402C42.8054 64.6749 25.0768 64.6749 14.1421 53.7402L0 67.8823C3.4713 71.3536 7.342 74.1821 11.4642 76.3677C7.34222 78.5533 3.47171 81.3817 0.000570297 84.8529L14.1427 98.995C25.0774 88.0603 42.806 88.0603 53.7407 98.995C64.6754 109.93 64.6754 127.658 53.7407 138.593L67.8828 152.735C71.3537 149.264 74.182 145.394 76.3675 141.272C78.553 145.394 81.3812 149.264 84.8521 152.735L98.9943 138.593C88.0596 127.658 88.0596 109.93 98.9943 98.9949C109.929 88.0602 127.658 88.0602 138.592 98.9949L152.734 84.8528C149.263 81.3815 145.392 78.553 141.27 76.3674C145.392 74.1818 149.263 71.3534 152.734 67.8822L138.592 53.7401C127.657 64.6748 109.928 64.6748 98.9937 53.7401C88.059 42.8054 88.059 25.0768 98.9937 14.1421L84.8516 0C81.3807 3.47091 78.5524 7.34113 76.3669 11.4628C74.1814 7.34116 71.3531 3.47097 67.8823 8.39233e-05L53.7401 14.1422C64.6748 25.0769 64.6748 42.8055 53.7401 53.7402ZM76.3669 56.4195C74.1814 60.5412 71.3532 64.4114 67.8822 67.8823C64.4111 71.3535 60.5406 74.1818 56.4186 76.3674C60.5408 78.5531 64.4115 81.3816 67.8828 84.8529C71.3537 88.3237 74.1819 92.1939 76.3674 96.3156C78.553 92.1939 81.3812 88.3237 84.8521 84.8528C88.3233 81.3816 92.1938 78.5533 96.3157 76.3677C92.1936 74.182 88.3229 71.3535 84.8516 67.8822C81.3807 64.4114 78.5525 60.5412 76.3669 56.4195Z" fill="white"/>
</svg>
