<svg width="217" height="139" viewBox="0 0 217 139" fill="none" xmlns="http://www.w3.org/2000/svg">
<path fill-rule="evenodd" clip-rule="evenodd" d="M108.5 48.4478L118.042 69.5L108.5 90.5522L98.9584 69.5L108.5 48.4478ZM119.928 113.786L119.479 114.776L108.5 139L97.5208 114.776L97.0723 113.786L24.0926 80.4915L0 69.5L24.0925 58.5085L97.0723 25.2136L97.5208 24.2239L108.5 0L119.479 24.2239L119.928 25.2136L192.907 58.5085L217 69.5L192.907 80.4915L119.928 113.786ZM132.489 86.0728L168.815 69.5L132.489 52.9272L140 69.5L132.489 86.0728ZM84.5114 52.9272L77 69.5L84.5114 86.0728L48.1851 69.5L84.5114 52.9272Z" fill="white"/>
</svg>
