<svg width="233" height="206" viewBox="0 0 233 206" fill="none" xmlns="http://www.w3.org/2000/svg">
<path d="M228.332 129.609C226.481 131.215 224.774 132.792 222.969 134.247C215.636 140.168 207.427 144.349 198.239 146.552C192.931 147.84 187.462 148.338 182.008 148.027C179.596 147.887 177.269 147.309 174.946 146.705C163.099 143.667 152.071 138.045 142.653 130.243C141.426 129.231 140.254 128.154 138.985 127.041C138.822 127.25 138.642 127.458 138.482 127.693C135.156 132.344 132.243 137.277 129.778 142.436C124.624 153.06 121.083 164.216 118.788 175.786C117.662 181.573 116.84 187.416 116.324 193.29C116.305 193.752 116.228 194.211 116.092 194.654C116.05 194.494 115.995 194.328 115.965 194.168C114.614 186.726 113.054 179.328 111.285 171.974C109.372 164.059 107.231 156.213 104.558 148.517C102.792 143.438 100.824 138.441 98.2622 133.699C97.1464 131.572 95.8259 129.558 94.3195 127.687C94.0715 127.387 93.8104 127.099 93.5297 126.776C93.3437 126.933 93.1805 127.054 93.0336 127.191C82.5339 136.982 70.2522 143.419 56.3842 146.976C51.841 148.141 47.2684 148.347 42.6403 147.955C28.9323 146.754 17.0944 141.225 6.80362 132.22C5.95829 131.48 5.14886 130.699 4.32638 129.936C4.23173 129.848 4.14687 129.746 4 129.59C4.13708 129.361 4.27416 129.12 4.42756 128.888C7.4654 124.313 11.187 120.232 15.4625 116.786C22.8244 110.703 31.651 106.654 41.0639 105.043C45.6962 104.24 50.4077 103.995 55.0983 104.312C64.609 104.928 73.343 108.006 81.5352 112.748C85.3559 114.964 88.9058 117.617 92.1132 120.653C92.2633 120.794 92.42 120.924 92.655 121.13C95.1681 116.486 97.6617 111.884 100.191 107.213C99.8647 107.082 99.5841 106.965 99.3001 106.857C89.5909 103.22 80.6834 97.7257 73.0754 90.6818C64.0999 82.3656 58.1956 72.2445 55.6303 60.2859C52.967 47.8834 54.5434 35.9052 59.8928 24.4166C60.0789 24.0152 60.2975 23.6333 60.5456 23.1764C61.5247 23.4048 62.5039 23.6104 63.4504 23.852C72.4422 26.1073 80.7094 29.89 88.0693 35.5691C94.8352 40.7396 100.426 47.2875 104.473 54.7799C105.779 57.1918 106.562 59.7768 107.274 62.3976C109.033 68.7969 109.943 75.3995 109.983 82.036C110.07 89.6185 108.896 97.1627 106.51 104.36C106.451 104.533 106.399 104.706 106.353 104.883C106.356 104.956 106.369 105.029 106.392 105.098L124.556 105.245C124.559 105.078 124.549 104.911 124.526 104.746C122.718 97.3335 122.193 89.8039 122.61 82.209C123.081 73.8065 124.81 65.5223 127.738 57.6324C128.564 55.5436 129.608 53.5481 130.855 51.6792C136.077 43.4479 142.898 36.8387 151.143 31.6786C158.277 27.2595 166.126 24.1152 174.338 22.3865C174.414 22.3702 174.492 22.3637 174.639 22.3408C174.769 22.6019 174.913 22.8696 175.037 23.1502C176.978 27.6884 178.335 32.4547 179.074 37.3348C179.648 40.8952 179.902 44.4997 179.835 48.1054C179.632 58.5006 176.829 68.155 171.675 77.1533C166.522 86.1516 159.38 93.1623 150.721 98.7304C144.833 102.53 138.41 105.427 131.664 107.327C131.465 107.383 131.272 107.455 131.011 107.543C133.534 112.331 136.233 116.959 139.151 121.535C139.386 121.339 139.566 121.208 139.729 121.045C147.321 113.786 156.273 108.969 166.345 106.12C172.471 104.422 178.849 103.82 185.184 104.341C202.133 105.62 215.72 113.153 226.145 126.496C226.886 127.445 227.542 128.483 228.332 129.609ZM169.185 32.8797C168.859 32.9841 168.601 33.0592 168.359 33.1408C165.398 34.1509 162.518 35.3838 159.743 36.8289C151.257 41.2873 144.246 47.3743 138.91 55.3543C137.575 57.3518 136.357 59.4112 135.568 61.7057C133.545 67.5283 132.215 73.5688 131.605 79.7024C131.035 85.5246 131.16 91.3939 131.977 97.1866C132.013 97.4379 132.088 97.686 132.154 97.9895L133.022 97.7023C137.604 96.0937 141.979 93.9463 146.054 91.3052C153.28 86.6347 159.328 80.8218 163.734 73.3542C168.659 64.9956 171.199 56.0136 171.081 46.3005C171.043 42.8286 170.652 39.3696 169.913 35.977C169.688 34.9587 169.436 33.9502 169.185 32.8797ZM99.3393 97.5032C99.4437 97.2094 99.4992 97.0952 99.5286 96.9712C100.338 93.6233 100.859 90.212 101.085 86.775C101.522 79.866 100.894 72.9309 99.2218 66.213C98.396 62.8284 97.3157 59.5679 95.4358 56.5815C88.4251 45.4356 78.539 38.0071 66.1561 33.7772C65.98 33.7364 65.801 33.7092 65.6208 33.6956C65.5523 33.8784 65.4903 34.022 65.4446 34.1689C62.9184 42.3284 62.3864 50.6055 64.299 58.9739C66.0829 66.9338 69.8598 74.3101 75.2752 80.4106C80.3341 86.1386 86.3526 90.6916 93.0466 94.3503C95.0735 95.4535 97.1786 96.4327 99.3327 97.5163L99.3393 97.5032ZM149.276 124.309C149.602 124.563 149.827 124.763 150.072 124.962C158 131.093 167.079 135.569 176.77 138.125C178.581 138.608 180.396 139.123 182.279 139.251C186.346 139.519 190.431 139.24 194.424 138.422C202.277 136.832 209.356 133.526 215.769 128.761C215.932 128.64 216.079 128.5 216.269 128.34C216.128 128.173 216.024 128.013 215.9 127.902C214.895 126.923 213.922 125.889 212.871 124.965C204.02 117.099 193.644 113.156 181.822 112.957C179.344 112.876 176.863 113.009 174.407 113.356C167.378 114.459 160.635 116.933 154.56 120.637C152.716 121.748 150.948 122.979 149.266 124.322L149.276 124.309ZM83.0202 124.335C82.5992 124.009 82.2956 123.767 81.9856 123.532C78.4206 120.841 74.5284 118.614 70.4023 116.903C61.5896 113.04 51.8164 111.924 42.3596 113.701C32.1537 115.536 23.5633 120.34 16.4253 127.818C16.2719 127.981 16.1447 128.144 15.9815 128.359C16.099 128.454 16.1577 128.506 16.223 128.552C16.6408 128.862 17.0585 129.179 17.4828 129.479C26.2135 135.638 35.8418 139.149 46.596 139.329C48.5006 139.41 50.4081 139.264 52.2783 138.895C61.9135 136.792 71.04 132.812 79.1363 127.181C80.4026 126.303 81.6429 125.35 83.0039 124.348L83.0202 124.335ZM101.712 122.821C102.019 123.235 102.283 123.591 102.541 123.95C105.338 127.85 107.469 132.109 109.356 136.506C111.61 141.867 113.571 147.346 115.231 152.92C115.319 153.203 115.42 153.484 115.515 153.765C119.311 143.219 124.037 133.203 130.332 124.009C130.254 123.849 130.212 123.754 130.159 123.663C128.387 120.624 126.608 117.585 124.849 114.524C124.772 114.349 124.643 114.203 124.479 114.104C124.316 114.005 124.126 113.959 123.935 113.972C118.328 113.944 112.72 113.902 107.11 113.845C106.932 113.828 106.753 113.869 106.601 113.964C106.449 114.058 106.332 114.2 106.268 114.367C105.864 115.183 105.407 115.976 104.963 116.779L101.712 122.821Z" fill="white"/>
<path fill-rule="evenodd" clip-rule="evenodd" d="M232.341 130.102L230.298 131.876C229.753 132.348 229.201 132.837 228.643 133.33C227.403 134.427 226.133 135.55 224.852 136.583C217.196 142.764 208.589 147.154 198.944 149.468C193.35 150.826 187.585 151.35 181.838 151.022L181.834 151.022C179.092 150.863 176.501 150.209 174.195 149.61C161.922 146.462 150.498 140.637 140.741 132.555C140.324 132.211 139.907 131.854 139.493 131.494C136.857 135.392 134.514 139.482 132.484 143.73L132.48 143.738L132.477 143.746C127.449 154.109 123.983 165.014 121.732 176.364C120.63 182.027 119.825 187.743 119.318 193.49C119.283 194.182 119.164 194.867 118.962 195.529L115.892 205.597L113.192 195.423C113.181 195.382 113.18 195.378 113.167 195.334C113.16 195.311 113.151 195.276 113.135 195.22C113.105 195.113 113.054 194.927 113.014 194.71L113.013 194.704C111.672 187.319 110.124 179.977 108.369 172.679C106.469 164.817 104.354 157.073 101.724 149.502C99.982 144.491 98.075 139.665 95.6225 135.125L95.6138 135.109L95.6052 135.093C94.882 133.714 94.0652 132.387 93.1609 131.122C82.6998 140.308 70.6152 146.423 57.1294 149.882C52.191 151.149 47.2704 151.358 42.3871 150.945L42.3782 150.944C27.9688 149.682 15.5445 143.856 4.8278 134.478L4.826 134.477C4.17755 133.908 3.53049 133.301 2.92967 132.738C2.70764 132.529 2.49192 132.327 2.28478 132.134L2.28188 132.132C2.14628 132.005 2.03744 131.888 1.97442 131.82C1.94239 131.785 1.91993 131.76 1.90063 131.739C1.87108 131.707 1.84893 131.682 1.81114 131.642L0.261719 129.989L1.42727 128.047C1.44483 128.017 1.46731 127.979 1.49369 127.935C1.59833 127.757 1.76419 127.476 1.92575 127.232L1.92816 127.229C5.13239 122.404 9.05707 118.098 13.5655 114.462C21.3278 108.052 30.6326 103.786 40.555 102.086C45.4202 101.244 50.3686 100.986 55.295 101.318C65.3503 101.971 74.5272 105.226 83.0379 110.152L83.0399 110.154C86.1499 111.957 89.0894 114.036 91.8236 116.363C93.0691 114.063 94.3131 111.766 95.5622 109.46C95.6881 109.228 95.8139 108.995 95.9399 108.763C86.7608 105.007 78.3244 99.6305 71.037 92.8835L71.0362 92.8827C61.6249 84.1628 55.3964 73.4996 52.6969 60.9161C49.8885 47.8378 51.5646 35.1962 57.1722 23.1521C57.3657 22.735 57.5962 22.3153 57.7848 21.9719C57.8287 21.8919 57.8704 21.8161 57.9088 21.7454L58.9999 19.7355L61.227 20.2551C61.5175 20.3229 61.8314 20.3937 62.1567 20.467C62.8196 20.6165 63.5298 20.7766 64.1858 20.9439C73.5287 23.288 82.1776 27.2354 89.896 33.1898C96.9962 38.617 102.864 45.4891 107.111 53.3521M88.0691 35.5694C80.7092 29.8903 72.4419 26.1076 63.4501 23.8523C62.8308 23.6942 62.1974 23.5515 61.5592 23.4078C61.2222 23.3319 60.8838 23.2556 60.5453 23.1767C60.4923 23.2743 60.4406 23.3685 60.3903 23.4603C60.2053 23.7977 60.0388 24.1013 59.8926 24.4169C54.5432 35.9055 52.9668 47.8837 55.63 60.2862C58.1954 72.2448 64.0996 82.3659 73.0751 90.6821C80.1782 97.2585 88.414 102.484 97.3773 106.109C98.0145 106.367 98.6554 106.616 99.2999 106.858C99.4902 106.93 99.679 107.006 99.8812 107.088C99.9806 107.129 100.083 107.17 100.191 107.213C99.7104 108.101 99.2312 108.985 98.753 109.868C98.5666 110.212 98.3804 110.556 98.1943 110.9C96.8329 113.413 95.4778 115.915 94.1201 118.423C94.0842 118.489 94.0483 118.555 94.0124 118.622C94.0016 118.642 93.9909 118.662 93.9801 118.681C93.5387 119.497 93.097 120.313 92.6547 121.13C92.5791 121.064 92.5116 121.006 92.4499 120.952C92.3196 120.84 92.2148 120.749 92.1129 120.654C91.5401 120.111 90.9563 119.581 90.3619 119.064C87.6288 116.684 84.6732 114.569 81.5349 112.749C73.3428 108.006 64.6088 104.929 55.098 104.312C50.4075 103.995 45.6959 104.241 41.0636 105.043C31.6508 106.654 22.8241 110.703 15.4623 116.786C11.1868 120.232 7.46516 124.314 4.42731 128.888C4.31362 129.06 4.20889 129.237 4.10648 129.41C4.07071 129.471 4.03523 129.531 3.99975 129.59C4.05028 129.644 4.09346 129.691 4.13224 129.734C4.20617 129.815 4.26404 129.878 4.32613 129.936C4.55781 130.151 4.78845 130.368 5.01915 130.584C5.60746 131.136 6.19615 131.689 6.80337 132.221C17.0942 141.226 28.932 146.754 42.6401 147.956C47.2681 148.347 51.8407 148.142 56.384 146.976C69.4911 143.614 81.1813 137.68 91.2893 128.772C91.7825 128.338 92.272 127.896 92.7576 127.447C92.8497 127.362 92.9416 127.277 93.0333 127.191C93.1256 127.105 93.2243 127.025 93.331 126.939C93.3942 126.888 93.4602 126.835 93.5293 126.777C93.5293 126.777 93.5293 126.777 93.5293 126.777C93.6217 126.883 93.7122 126.986 93.8006 127.086C93.9807 127.29 94.1529 127.486 94.3193 127.687C94.4421 127.84 94.5636 127.993 94.6839 128.148C94.9317 128.466 95.1743 128.788 95.4115 129.113C96.4717 130.57 97.4245 132.102 98.262 133.699C100.824 138.442 102.792 143.438 104.558 148.517C107.231 156.213 109.372 164.059 111.285 171.974C112.335 176.34 113.311 180.722 114.214 185.119C114.769 187.821 115.297 190.53 115.796 193.244C115.797 193.252 115.799 193.26 115.801 193.269C115.856 193.568 115.91 193.868 115.965 194.168C115.985 194.277 116.017 194.39 116.049 194.501C116.064 194.553 116.079 194.604 116.092 194.654C116.146 194.478 116.19 194.3 116.226 194.12C116.226 194.12 116.226 194.121 116.226 194.12C116.28 193.847 116.313 193.569 116.324 193.29C116.567 190.525 116.877 187.767 117.256 185.018C117.681 181.927 118.192 178.849 118.788 175.786C121.083 164.216 124.624 153.06 129.777 142.436C131.928 137.937 134.419 133.609 137.227 129.49C137.639 128.887 138.057 128.288 138.482 127.694C138.596 127.526 138.72 127.372 138.841 127.221C138.89 127.161 138.938 127.101 138.985 127.041C139.376 127.384 139.759 127.724 140.136 128.06C140.506 128.389 140.871 128.713 141.235 129.032C141.705 129.445 142.175 129.849 142.653 130.243C152.071 138.045 163.099 143.667 174.945 146.706C177.269 147.309 179.596 147.887 182.008 148.027C187.462 148.338 192.931 147.841 198.239 146.552C207.427 144.349 215.635 140.168 222.969 134.248C224.196 133.258 225.378 132.213 226.59 131.14C227.161 130.635 227.739 130.124 228.331 129.61C228.064 129.229 227.812 128.858 227.567 128.497C227.088 127.792 226.635 127.124 226.145 126.496C215.72 113.153 202.133 105.621 185.184 104.341C178.849 103.82 172.471 104.422 166.345 106.12C157.007 108.762 148.631 113.095 141.41 119.497C140.843 120 140.282 120.516 139.729 121.045C139.616 121.158 139.496 121.255 139.355 121.369C139.291 121.42 139.224 121.474 139.151 121.535C138.608 120.683 138.073 119.83 137.545 118.974C135.767 116.094 134.073 113.186 132.451 110.223C131.964 109.335 131.485 108.442 131.011 107.543C131.085 107.518 131.154 107.494 131.218 107.472C131.382 107.415 131.521 107.367 131.664 107.328C132.424 107.114 133.18 106.887 133.931 106.648C139.85 104.763 145.496 102.102 150.721 98.7307C159.38 93.1626 166.521 86.1519 171.675 77.1536C176.829 68.1553 179.632 58.5009 179.834 48.1057C179.902 44.5 179.647 40.8955 179.074 37.3351C178.334 32.455 176.978 27.6887 175.037 23.1505C174.946 22.9458 174.845 22.748 174.747 22.5547C174.71 22.4829 174.674 22.4118 174.638 22.3411C174.579 22.3504 174.531 22.357 174.489 22.3626C174.429 22.3709 174.383 22.3771 174.338 22.3868C166.126 24.1155 158.277 27.2598 151.142 31.6789C142.898 36.839 136.077 43.4482 130.854 51.6795C129.608 53.5483 128.563 55.5439 127.737 57.6327C124.809 65.5226 123.081 73.8068 122.61 82.2093C122.239 88.9499 122.611 95.6391 123.964 102.24C124.135 103.077 124.323 103.912 124.526 104.746C124.545 104.883 124.555 105.021 124.556 105.16C124.556 105.188 124.556 105.217 124.555 105.245L106.392 105.098C106.369 105.029 106.356 104.956 106.353 104.883C106.366 104.831 106.381 104.779 106.395 104.728C106.43 104.605 106.468 104.483 106.51 104.361C106.758 103.612 106.993 102.86 107.214 102.105C109.126 95.5939 110.06 88.8305 109.982 82.0363C109.943 75.3998 109.032 68.7972 107.273 62.3979C106.562 59.7771 105.779 57.1921 104.473 54.7802C100.426 47.2878 94.835 40.7399 88.0691 35.5694ZM107.113 53.3545C108.594 56.0914 109.449 58.9629 110.168 61.608C111.994 68.2563 112.941 75.1157 112.982 82.0102C113.059 88.8146 112.164 95.5894 110.328 102.13L120.899 102.216C119.591 95.5338 119.243 88.7941 119.615 82.0445L119.615 82.0413C120.103 73.3395 121.893 64.76 124.925 56.589L124.936 56.5592L124.948 56.5297C125.847 54.2545 126.984 52.0806 128.339 50.0438C133.813 41.4261 140.958 34.514 149.551 29.1359L149.563 29.1285C156.992 24.527 165.164 21.2528 173.715 19.4522C173.865 19.4202 173.994 19.4024 174.047 19.3952L174.095 19.3886C174.13 19.3838 174.147 19.3814 174.177 19.3768L176.342 19.04L177.322 20.9995C177.338 21.032 177.36 21.0754 177.387 21.127C177.488 21.3258 177.652 21.6465 177.781 21.9381L177.788 21.9544L177.795 21.9708C179.834 26.7382 181.26 31.7451 182.038 36.8715C182.638 40.6038 182.905 44.3822 182.834 48.1618L182.834 48.1641C182.621 59.088 179.669 69.2321 174.278 78.6446C168.852 88.1183 161.348 95.4632 152.347 101.252C147.059 104.664 141.357 107.378 135.384 109.331C136.798 111.894 138.268 114.416 139.801 116.917C147.305 110.371 155.962 105.939 165.529 103.233L165.536 103.231L165.544 103.229C172.007 101.438 178.736 100.802 185.42 101.35C203.236 102.698 217.585 110.668 228.509 124.649L228.51 124.651C229.06 125.356 229.614 126.171 230.126 126.924C230.357 127.263 230.578 127.589 230.788 127.887L232.341 130.102M138.404 62.6825L138.401 62.6903C136.457 68.289 135.178 74.0972 134.591 79.9949C134.138 84.6212 134.142 89.2784 134.603 93.8992C138.029 92.5116 141.317 90.8005 144.422 88.7879L144.426 88.786C151.331 84.3229 157.02 78.8297 161.15 71.83C165.813 63.9165 168.192 55.4706 168.081 46.3371L168.081 46.3335C168.046 43.1348 167.692 39.9478 167.025 36.8196C165.014 37.6002 163.048 38.4907 161.133 39.4873C153.06 43.7297 146.441 49.4887 141.403 57.0222C140.119 58.9443 139.069 60.7515 138.404 62.6825ZM138.91 55.3546C144.246 47.3746 151.257 41.2876 159.742 36.8292C161.881 35.7153 164.083 34.7275 166.336 33.8706C167.006 33.6158 167.68 33.3726 168.359 33.1411C168.501 33.0932 168.648 33.0475 168.812 32.9969C168.927 32.9612 169.05 32.9231 169.185 32.88C169.271 33.2471 169.357 33.607 169.442 33.9624C169.592 34.586 169.738 35.1961 169.875 35.8082C169.887 35.8646 169.9 35.9209 169.912 35.9773C170.652 39.3699 171.043 42.8289 171.081 46.3008C171.198 56.0139 168.659 64.9959 163.734 73.3545C159.328 80.8221 153.28 86.635 146.054 91.3055C142.568 93.5647 138.863 95.4626 134.996 96.971C134.343 97.2261 133.684 97.47 133.022 97.7026L132.153 97.9898C132.129 97.8781 132.104 97.7738 132.08 97.6742C132.038 97.5032 132 97.3457 131.977 97.1869C131.874 96.4524 131.781 95.7167 131.7 94.98C131.139 89.9065 131.107 84.7866 131.605 79.7026C132.215 73.5691 133.545 67.5286 135.567 61.706C136.357 59.4115 137.575 57.3521 138.91 55.3546ZM100.066 94.529C100.573 91.9701 100.914 89.3801 101.085 86.7753C101.522 79.8663 100.893 72.9312 99.2215 66.2133C98.3958 62.8287 97.3155 59.5682 95.4355 56.5818C88.4248 45.4359 78.5387 38.0074 66.1558 33.7775C65.9797 33.7367 65.8008 33.7095 65.6206 33.6959C65.5977 33.7568 65.5756 33.8133 65.5546 33.867C65.5125 33.9747 65.4748 34.0712 65.4443 34.1692C62.9181 42.3287 62.3861 50.6058 64.2987 58.9742C66.0827 66.9341 69.8596 74.3104 75.2749 80.4109C80.3338 86.1389 86.3523 90.6919 93.0464 94.3506C94.2166 94.9875 95.4128 95.5831 96.6296 96.1813C96.6306 96.1818 96.6316 96.1823 96.6325 96.1828C96.6332 96.1831 96.6338 96.1834 96.6344 96.1837C96.7517 96.2413 96.8691 96.299 96.9868 96.3568C97.0036 96.365 97.0204 96.3732 97.0372 96.3815C97.0947 96.4097 97.1523 96.438 97.2099 96.4662C97.7469 96.7297 98.2876 96.995 98.8317 97.2659C98.9635 97.3316 99.0956 97.3976 99.2278 97.464C99.2627 97.4815 99.2976 97.499 99.3325 97.5165L99.339 97.5035C99.3805 97.387 99.4142 97.2987 99.4416 97.2269C99.4834 97.1176 99.5106 97.0463 99.5283 96.9715C99.7244 96.1609 99.9035 95.3465 100.066 94.529ZM97.2741 93.1542C97.6731 90.9818 97.9461 88.7873 98.0914 86.5815C98.5083 79.981 97.9076 73.3557 96.3103 66.9378L96.307 66.9244C95.5152 63.6788 94.5293 60.7735 92.8967 58.18L92.8961 58.1791C86.7395 48.391 78.2542 41.6375 67.6172 37.5032C65.8469 44.4017 65.6286 51.3282 67.2233 58.3058L67.2261 58.3181C68.8989 65.7821 72.4405 72.6988 77.5185 78.4193L77.5235 78.425C82.3179 83.8534 88.0472 88.1992 94.4831 91.717C95.4065 92.2196 96.3254 92.6847 97.2741 93.1542ZM151.755 122.46C150.911 123.051 150.085 123.669 149.279 124.312C149.416 124.419 149.535 124.516 149.646 124.608C149.702 124.655 149.757 124.7 149.81 124.745C149.898 124.819 149.984 124.89 150.072 124.962C150.618 125.384 151.169 125.798 151.726 126.205C159.253 131.7 167.746 135.745 176.77 138.125C176.901 138.16 177.032 138.195 177.163 138.23C178.844 138.681 180.532 139.133 182.279 139.251C186.346 139.519 190.431 139.24 194.424 138.422C201.503 136.989 207.953 134.161 213.854 130.127C213.86 130.122 213.866 130.118 213.872 130.114C213.872 130.114 213.872 130.114 213.872 130.114C213.914 130.086 213.956 130.057 213.998 130.028C214.594 129.618 215.184 129.196 215.769 128.761C215.769 128.761 215.769 128.761 215.769 128.761C215.876 128.682 215.977 128.594 216.087 128.497C216.144 128.447 216.204 128.395 216.268 128.34C216.22 128.282 216.175 128.225 216.133 128.17C216.053 128.068 215.98 127.975 215.9 127.903C215.898 127.901 215.897 127.9 215.896 127.899C215.578 127.589 215.263 127.274 214.948 126.958C214.69 126.7 214.432 126.442 214.172 126.186C213.747 125.768 213.316 125.356 212.871 124.965C204.019 117.099 193.644 113.157 181.822 112.958C179.343 112.876 176.862 113.009 174.407 113.356C167.378 114.459 160.634 116.933 154.56 120.637C153.604 121.213 152.669 121.821 151.755 122.46ZM174.849 116.323C168.217 117.367 161.854 119.703 156.121 123.199L156.115 123.203L156.108 123.207C155.494 123.577 154.89 123.96 154.295 124.358C161.32 129.34 169.191 133.024 177.535 135.224L177.543 135.226C177.651 135.255 177.757 135.283 177.863 135.312C179.619 135.781 181.036 136.16 182.478 136.258C186.277 136.508 190.092 136.247 193.821 135.483L193.829 135.482C200.303 134.171 206.232 131.62 211.698 127.963C211.435 127.711 211.17 127.465 210.89 127.219L210.884 127.213L210.878 127.208C202.576 119.83 192.894 116.145 181.772 115.957L181.748 115.957L181.724 115.956C179.426 115.881 177.125 116.003 174.849 116.323ZM69.2253 119.663L69.1975 119.651C60.9375 116.03 51.7773 114.984 42.9136 116.65L42.9018 116.652L42.89 116.654C34.2529 118.207 26.8608 122.019 20.5524 127.946C28.4821 133.223 37.1017 136.17 46.6459 136.33L46.6843 136.33L46.7228 136.332C48.3804 136.402 50.0404 136.277 51.6685 135.958C60.9075 133.937 69.6588 130.119 77.4231 124.718L77.4267 124.716C77.6044 124.593 77.7806 124.469 77.9563 124.344C75.2191 122.504 72.304 120.94 69.2533 119.675L69.2253 119.663ZM80.5124 122.46C81.0093 122.809 81.5003 123.166 81.9853 123.532C82.1795 123.68 82.3712 123.829 82.5907 124.001C82.7018 124.088 82.82 124.18 82.9493 124.28C82.9527 124.283 82.9561 124.286 82.9595 124.288C82.9794 124.304 82.9995 124.319 83.02 124.335L83.0036 124.348C82.5916 124.652 82.1906 124.951 81.7967 125.244C81.3646 125.566 80.941 125.882 80.5204 126.191C80.0576 126.53 79.5986 126.861 79.136 127.181C71.0397 132.812 61.9133 136.793 52.2781 138.895C50.4079 139.264 48.5004 139.41 46.5958 139.329C36.2211 139.156 26.8943 135.882 18.4104 130.121C18.1 129.911 17.7907 129.696 17.4826 129.479C17.2969 129.348 17.1124 129.213 16.9287 129.077C16.7913 128.976 16.6543 128.874 16.5175 128.772C16.4192 128.698 16.321 128.625 16.2227 128.552C16.179 128.522 16.1383 128.488 16.0808 128.441C16.0525 128.418 16.0201 128.391 15.9813 128.36C15.9813 128.36 15.9813 128.36 15.9813 128.36C16.1227 128.173 16.2371 128.026 16.3649 127.883C16.3846 127.861 16.4046 127.84 16.4251 127.818C16.7832 127.443 17.145 127.074 17.5104 126.713C17.6056 126.618 17.7011 126.525 17.7968 126.431C17.8837 126.347 17.9708 126.262 18.0581 126.178C24.8626 119.635 32.9199 115.398 42.3594 113.702C51.8162 111.924 61.5893 113.04 70.4021 116.904C73.9668 118.381 77.357 120.245 80.5124 122.46ZM101.712 122.821L101.808 122.951C102.075 123.311 102.31 123.629 102.541 123.95C105.338 127.85 107.469 132.11 109.356 136.506C111.095 140.642 112.659 144.848 114.046 149.114C114.456 150.377 114.851 151.646 115.231 152.92C115.291 153.114 115.357 153.307 115.424 153.5C115.454 153.588 115.485 153.677 115.514 153.765C115.64 153.417 115.766 153.069 115.894 152.722C115.895 152.719 115.896 152.716 115.897 152.713C116.328 151.538 116.771 150.37 117.227 149.209C120.715 140.33 124.95 131.869 130.332 124.009C130.31 123.964 130.291 123.924 130.274 123.888C130.229 123.796 130.197 123.729 130.159 123.663C129.866 123.16 129.572 122.657 129.278 122.153C127.798 119.617 126.317 117.079 124.849 114.524C124.772 114.35 124.643 114.203 124.479 114.104C124.316 114.006 124.126 113.96 123.935 113.973C118.328 113.944 112.72 113.902 107.11 113.845C106.932 113.828 106.753 113.87 106.601 113.964C106.449 114.058 106.332 114.2 106.268 114.368C105.953 115.003 105.607 115.624 105.259 116.247C105.16 116.424 105.061 116.602 104.963 116.78L101.712 122.821ZM107.596 118.216L105.248 122.581C108.089 126.622 110.243 130.966 112.113 135.323L112.117 135.333L112.121 135.343C113.435 138.467 114.651 141.63 115.767 144.828C118.82 137.54 122.425 130.516 126.809 123.873C126.769 123.805 126.729 123.736 126.689 123.668C125.391 121.444 124.088 119.211 122.794 116.967C117.98 116.941 113.165 116.905 108.35 116.858C108.183 117.164 108.016 117.463 107.858 117.745C107.768 117.908 107.68 118.065 107.596 118.216Z" fill="white"/>
<path d="M98.7852 23.4831L99.5456 23.3036C102.943 22.4746 105.649 20.5555 107.921 17.9673C110.626 14.8895 112.464 11.3026 113.926 7.50677C114.847 5.04973 115.632 2.54365 116.276 0C116.335 0.202356 116.403 0.401449 116.449 0.60707C117.408 5.15683 118.949 9.48791 121.394 13.4632C123.838 17.4386 127.011 20.8427 131.081 23.2873C131.407 23.4897 131.763 23.6692 132.105 23.8552L133.143 24.397C132.37 24.5635 131.707 24.6777 131.061 24.8474C127.846 25.6927 125.251 27.5042 123.107 29.9945C120.865 32.6055 119.341 35.6147 118.162 38.8068C117.27 41.2923 116.596 43.851 116.149 46.4539C116.139 46.5678 116.091 46.675 116.012 46.7574C115.894 45.8794 115.796 44.9982 115.656 44.1235C114.677 37.9908 112.102 32.7002 107.402 28.5551C105.056 26.4685 102.328 24.8559 99.3694 23.8063C99.2225 23.754 99.0756 23.6986 98.932 23.6398C98.9092 23.6235 98.8961 23.6072 98.7852 23.4831ZM111.498 23.4831L116.191 28.5714C117.49 26.6196 119.034 24.8416 120.783 23.2808L116.214 17.4059C114.882 19.604 113.299 21.6401 111.498 23.4733V23.4831Z" fill="white"/>
<path d="M194.6 66C194.982 66.3035 195.361 66.6201 195.749 66.9139C198.947 69.2781 202.623 70.9135 206.52 71.7052C210.713 72.6017 215.035 72.7311 219.275 72.087C220.74 71.8716 222.212 71.6007 223.802 71.3331C223.537 71.542 223.358 71.6921 223.172 71.8324C219.608 74.4829 216.432 77.6182 213.736 81.1474C211.804 83.7356 210.237 86.5163 209.421 89.679C208.825 91.9058 208.764 94.2419 209.242 96.4971C209.262 96.6355 209.275 96.775 209.281 96.9148C209.126 96.8072 208.979 96.6894 208.84 96.5623C205.082 92.5826 200.096 89.9795 194.682 89.1698C190.439 88.517 186.31 89.0164 182.25 90.3056L181.134 90.6516C181.114 90.6516 181.088 90.6353 181 90.5961L181.712 90.1C185.344 87.5934 188.605 84.6951 191.212 81.1082C192.854 78.9362 194.041 76.4551 194.702 73.8136C195.271 71.4426 195.242 68.9672 194.617 66.6103C194.571 66.4373 194.538 66.2611 194.496 66.0849L194.6 66ZM204.144 85.2989C205.083 82.9139 206.287 80.6421 207.734 78.5265L200.514 76.7412C199.804 78.9726 198.817 81.1063 197.577 83.0926L204.144 85.2989Z" fill="white"/>
<path d="M10 67.431C11.3741 67.666 12.7024 67.9336 14.0406 68.1229C20.2418 68.9944 26.3223 68.5668 32.1744 66.1646C34.5346 65.2312 36.7305 63.9266 38.6791 62.3003C38.7738 62.2154 38.8782 62.1436 39.0577 62C39.0701 62.1215 39.0701 62.244 39.0577 62.3655C37.8697 66.5661 38.5877 70.5251 40.5885 74.3144C42.3317 77.5057 44.6563 80.3428 47.4425 82.6795C48.921 83.9589 50.5202 85.0915 52.0673 86.2893C52.2098 86.3966 52.3391 86.5204 52.4524 86.6581C41.8287 83.1658 32.3963 84.8957 24.2857 93.0062C24.3706 92.4906 24.4489 92.0499 24.5142 91.6061C24.9646 88.5152 24.3575 85.5876 23.1336 82.7579C21.7987 79.6833 19.8698 77.007 17.6471 74.5233C15.5038 72.132 13.1353 69.9526 10.5744 68.0152C10.3884 67.8716 10.2056 67.7215 10.0261 67.5713C10 67.5583 10.0098 67.5224 10 67.431ZM33.0556 72.8L25.8197 74.5885C27.2834 76.6988 28.5001 78.97 29.4458 81.3577L35.9898 79.1513C34.7502 77.1651 33.7645 75.0313 33.0556 72.8Z" fill="white"/>
</svg>
