<svg width="200" height="244" viewBox="0 0 200 244" fill="none" xmlns="http://www.w3.org/2000/svg">
<path fill-rule="evenodd" clip-rule="evenodd" d="M158.846 0.0220436C162.424 0.315084 165.087 3.45308 164.794 7.03095L162.227 38.3754C162.149 39.3264 162.756 40.1943 163.661 40.4981C177.91 45.2837 188.176 58.7479 188.176 74.6098C188.176 86.7277 182.184 97.4462 173.002 103.965C171.874 104.766 171.748 106.446 172.744 107.407C174.332 108.939 175.778 110.617 177.06 112.419C177.621 113.207 178.646 113.534 179.54 113.164L190.706 108.542C194.023 107.169 197.825 108.745 199.197 112.062C200.57 115.379 198.994 119.181 195.678 120.554L184.427 125.211C183.542 125.577 183.047 126.52 183.195 127.467C183.478 129.274 183.625 131.126 183.625 133.012C183.625 150.897 170.424 165.699 153.234 168.205C152.277 168.344 151.519 169.107 151.44 170.071L145.919 237.487C145.626 241.065 142.488 243.728 138.91 243.435C135.332 243.142 132.669 240.004 132.962 236.426L138.487 168.967C138.566 168.008 137.949 167.135 137.034 166.837C134.608 166.047 132.296 165.003 130.131 163.737C128.856 162.992 127.154 163.697 126.779 165.125C122.732 180.563 108.685 191.951 91.9774 191.951C80.0596 191.951 69.4953 186.156 62.9487 177.23C62.3837 176.46 61.3705 176.146 60.4878 176.511L8.98764 197.828C5.6707 199.201 1.8688 197.625 0.495861 194.309C-0.877083 190.992 0.698833 187.19 4.01577 185.817L55.3276 164.578C56.2273 164.205 56.722 163.24 56.5525 162.281C56.1905 160.234 56.0017 158.127 56.0017 155.976C56.0017 136.107 72.1086 120 91.9774 120C98.6955 120 104.984 121.841 110.364 125.047C111.633 125.803 113.34 125.11 113.726 123.685C115.883 115.729 120.731 108.879 127.234 104.175C128.355 103.364 128.467 101.683 127.462 100.731C120.541 94.1741 116.224 84.8961 116.224 74.6098C116.224 56.3453 129.835 41.2597 147.467 38.9427C148.436 38.8153 149.21 38.0476 149.29 37.0734L151.837 5.96975C152.13 2.39188 155.268 -0.270998 158.846 0.0220436ZM143.018 113.652C143.127 112.313 141.908 111.251 140.639 111.693C131.82 114.761 125.491 123.147 125.491 133.012C125.491 134.248 126.767 135.008 127.91 134.535L140.649 129.262C141.342 128.975 141.816 128.325 141.877 127.577L143.018 113.652ZM133.221 146.406C131.975 146.922 131.589 148.499 132.57 149.425C133.977 150.753 135.555 151.903 137.268 152.837C138.448 153.481 139.825 152.631 139.935 151.291L140.317 146.621C140.439 145.13 138.941 144.038 137.559 144.61L133.221 146.406ZM152.884 152.443C152.775 153.774 153.98 154.835 155.246 154.41C164.185 151.408 170.625 142.962 170.625 133.012C170.625 131.994 169.577 131.357 168.636 131.747L155.215 137.302C154.522 137.589 154.047 138.24 153.986 138.987L152.884 152.443ZM163.209 119.924C164.441 119.414 164.836 117.862 163.886 116.927C162.337 115.402 160.569 114.1 158.633 113.071C157.453 112.444 156.09 113.295 155.981 114.627L155.546 119.943C155.424 121.434 156.922 122.526 158.304 121.954L163.209 119.924ZM91.9774 133C98.4168 133 104.238 135.649 108.409 139.917C109.332 140.861 108.928 142.391 107.709 142.896L71.6042 157.841C70.384 158.346 69.0172 157.548 69.0031 156.227C69.0022 156.143 69.0017 156.06 69.0017 155.976C69.0017 143.287 79.2882 133 91.9774 133ZM114.953 155.976C114.953 154.997 113.947 154.384 113.044 154.758L76.9123 169.713C75.6624 170.23 75.2793 171.815 76.2661 172.74C80.375 176.592 85.9007 178.951 91.9774 178.951C104.666 178.951 114.953 168.665 114.953 155.976ZM147.854 54.6017C147.961 53.2913 146.793 52.2351 145.535 52.6159C136.096 55.4726 129.224 64.2387 129.224 74.6098C129.224 83.6526 134.449 91.4753 142.043 95.2243C143.223 95.8067 144.549 94.9546 144.656 93.6433L147.854 54.6017ZM157.65 94.2561C157.539 95.6071 158.779 96.6717 160.053 96.2084C168.875 93.0001 175.176 84.5408 175.176 74.6098C175.176 66.0137 170.455 58.5201 163.464 54.5803C162.283 53.9143 160.884 54.7627 160.774 56.1147L157.65 94.2561Z" fill="white"/>
</svg>
