<svg width="214" height="191" viewBox="0 0 214 191" fill="none" xmlns="http://www.w3.org/2000/svg">
<path fill-rule="evenodd" clip-rule="evenodd" d="M111.873 3.06779C109.99 -0.194463 105.281 -0.194474 103.398 3.06778L60.8231 76.8089C58.9396 80.0712 61.294 84.149 65.0609 84.149L107.635 105.829L150.21 84.149C153.977 84.149 156.331 80.0712 154.448 76.8089L111.873 3.06779ZM207.529 98.9851C211.168 98.0102 214.497 101.34 213.522 104.978L191.484 187.226C190.509 190.864 185.961 192.083 183.298 189.419L123.088 129.21C120.425 126.546 121.643 121.998 125.282 121.023L207.529 98.9851ZM0.712948 105.122C-0.262002 101.484 3.06752 98.1541 6.70609 99.1291L88.9536 121.167C92.5922 122.142 93.8109 126.69 91.1473 129.354L30.9379 189.563C28.2743 192.227 23.7261 191.008 22.7511 187.37L0.712948 105.122Z" fill="white"/>
</svg>
