<svg width="192" height="191" viewBox="0 0 192 191" fill="none" xmlns="http://www.w3.org/2000/svg">
<path fill-rule="evenodd" clip-rule="evenodd" d="M184.361 110.742C187.34 108.322 192.056 110.567 191.265 114.323C182.074 157.985 143.333 190.763 96.9363 190.763C81.0895 190.763 66.1358 186.939 52.9475 180.164C50.6153 178.966 50.2138 175.857 52.0678 174.003L103.622 122.449C104.811 121.26 106.614 120.952 108.164 121.605C117.098 125.374 126.916 127.457 137.221 127.457C155.089 127.457 171.494 121.193 184.361 110.742ZM69.3998 90.5722C70.6552 89.3168 70.9228 87.3892 70.135 85.7983C65.1866 75.8052 62.4052 64.5482 62.4052 52.6417C62.4052 35.7148 68.0265 20.1008 77.5042 7.5647C79.819 4.50292 77.4115 -0.131471 73.6858 0.791223C31.679 11.1942 0.539062 49.1435 0.539062 94.3658C0.539062 111.155 4.83117 126.942 12.378 140.689C13.6191 142.949 16.6697 143.302 18.4934 141.479L69.3998 90.5722Z" fill="white"/>
</svg>
