<svg width="198" height="170" viewBox="0 0 198 170" fill="none" xmlns="http://www.w3.org/2000/svg">
<path d="M166.684 59.3494L157.234 48.3543L175.206 27.4441L197.04 54.5863L146.947 112.881L133.764 97.5412L166.684 59.3494Z" fill="white"/>
<path d="M118.94 92.9673L105.8 108.245L115.249 119.244L98.5575 138.656L81.7871 119.244L168.196 18.7434L153.119 0.00012207H43.9066L28.8372 18.7434L79.858 78.1145L92.9983 62.829L55.1107 18.7434H141.926L55.5635 119.244L98.5504 169.216L141.637 119.244L118.94 92.9673Z" fill="white"/>
<path d="M30.3529 59.3494L39.8025 48.3543L21.8304 27.4441L0 54.5863L50.0901 112.881L63.2768 97.5412L30.3529 59.3494Z" fill="white"/>
</svg>
