<svg width="135" height="216" viewBox="0 0 135 216" fill="none" xmlns="http://www.w3.org/2000/svg">
<path fill-rule="evenodd" clip-rule="evenodd" d="M91.0271 100L67.5 48.2922L43.9729 100L45.3886 103.111L53.3579 95.1421L67.5 81L81.6421 95.1421L89.6114 103.111L91.0271 100ZM104.713 118.213L113 100L78.4865 24.1461L67.5 0L56.5135 24.1461L22 100L30.2869 118.213L14.1421 134.358L0 148.5L14.1421 162.642L53.3579 201.858L67.5 216L81.6421 201.858L120.858 162.642L135 148.5L120.858 134.358L104.713 118.213ZM67.5 109.284L106.716 148.5L67.5 187.716L28.2843 148.5L67.5 109.284Z" fill="white"/>
</svg>
