<svg width="194" height="139" viewBox="0 0 194 139" fill="none" xmlns="http://www.w3.org/2000/svg">
<path fill-rule="evenodd" clip-rule="evenodd" d="M190.875 44.0633C192.362 43.6648 193.723 45.0256 193.324 46.5127L187.255 69.1648L193.324 91.8161C193.723 93.3032 192.362 94.664 190.875 94.2655L184.186 92.4734L184.186 115.924C184.186 117.463 182.519 118.426 181.186 117.656L175.189 114.193L169.12 136.845C168.721 138.332 166.862 138.83 165.774 137.742L115.908 87.8762L97.9177 105.867C97.1366 106.648 95.8703 106.648 95.0892 105.867L77.7916 88.5694L28.619 137.742C27.5303 138.831 25.6714 138.333 25.2729 136.845L19.2034 114.193L13.2066 117.656C11.8733 118.426 10.2066 117.463 10.2066 115.924L10.2066 92.4732L3.51814 94.2654C2.031 94.6639 0.670162 93.303 1.06865 91.8159L7.13798 69.1648L1.06846 46.5131C0.669996 45.0259 2.03082 43.6651 3.51796 44.0636L10.2066 45.8558L10.2066 22.4048C10.2066 20.8652 11.8733 19.9029 13.2066 20.6727L19.2037 24.1351L25.2731 1.48359C25.6716 -0.00355304 27.5305 -0.501654 28.6192 0.587009L76.4056 48.3735L95.0892 29.6898C95.8703 28.9088 97.1366 28.9088 97.9177 29.6898L117.294 49.0664L165.774 0.587172C166.862 -0.50149 168.721 -0.00339619 169.12 1.48374L175.189 24.1352L181.186 20.6727C182.519 19.9029 184.186 20.8652 184.186 22.4048L184.186 45.8555L190.875 44.0633ZM109.474 77.6779C114.941 72.2106 114.941 63.3463 109.474 57.879L106.403 54.8079C100.936 49.3406 92.0712 49.3406 86.6039 54.8079L83.5328 57.8789C78.0655 63.3463 78.0655 72.2106 83.5328 77.6779L86.6039 80.749C92.0712 86.2163 100.936 86.2163 106.403 80.749L109.474 77.6779Z" fill="white"/>
</svg>
