<svg width="227" height="227" viewBox="0 0 227 227" fill="none" xmlns="http://www.w3.org/2000/svg">
<mask id="mask0_637_102" style="mask-type:alpha" maskUnits="userSpaceOnUse" x="0" y="0" width="227" height="227">
<path d="M113.5 227C50.8157 227 -7.70126e-06 176.184 -4.96124e-06 113.5C-2.22122e-06 50.8157 50.8157 -7.70126e-06 113.5 -4.96124e-06C176.184 -2.22122e-06 227 50.8157 227 113.5C227 176.184 176.184 227 113.5 227Z" fill="#C4C4C4"/>
</mask>
<g mask="url(#mask0_637_102)">
<path fill-rule="evenodd" clip-rule="evenodd" d="M22 113.5C22 164.034 62.9659 205 113.5 205C164.034 205 205 164.034 205 113.5C205 62.9659 164.034 22 113.5 22C62.9659 22 22 62.9659 22 113.5ZM-4.96124e-06 113.5C-7.70126e-06 176.184 50.8157 227 113.5 227C176.184 227 227 176.184 227 113.5C227 50.8157 176.184 -2.22122e-06 113.5 -4.96124e-06C50.8157 -7.70126e-06 -2.22122e-06 50.8157 -4.96124e-06 113.5Z" fill="white"/>
<path fill-rule="evenodd" clip-rule="evenodd" d="M126 113.5C126 106.596 120.404 101 113.5 101C106.596 101 101 106.596 101 113.5C101 120.404 106.596 126 113.5 126C120.404 126 126 120.404 126 113.5ZM113.5 77C133.658 77 150 93.3416 150 113.5C150 133.658 133.658 150 113.5 150C93.3416 150 77 133.658 77 113.5C77 93.3416 93.3416 77 113.5 77Z" fill="white"/>
<path fill-rule="evenodd" clip-rule="evenodd" d="M126 176.5C126 169.596 120.404 164 113.5 164C106.596 164 101 169.596 101 176.5C101 183.404 106.596 189 113.5 189C120.404 189 126 183.404 126 176.5ZM113.5 140C133.658 140 150 156.342 150 176.5C150 196.658 133.658 213 113.5 213C93.3416 213 77 196.658 77 176.5C77 156.342 93.3416 140 113.5 140Z" fill="white"/>
<path fill-rule="evenodd" clip-rule="evenodd" d="M126 50.5C126 43.5964 120.404 38 113.5 38C106.596 38 101 43.5964 101 50.5C101 57.4036 106.596 63 113.5 63C120.404 63 126 57.4036 126 50.5ZM113.5 14C133.658 14 150 30.3416 150 50.5C150 70.6584 133.658 87 113.5 87C93.3416 87 77 70.6584 77 50.5C77 30.3416 93.3416 14 113.5 14Z" fill="white"/>
</g>
</svg>
