<svg width="167" height="256" viewBox="0 0 167 256" fill="none" xmlns="http://www.w3.org/2000/svg">
<path fill-rule="evenodd" clip-rule="evenodd" d="M80.8777 107.335L53.8358 134.377L80.5863 161.346L106.22 135.713C106.998 134.934 107.001 133.672 106.225 132.89L80.8777 107.335ZM59.751 86.0349L30.5099 115.276C19.9962 125.79 19.9614 142.825 30.4321 153.382L59.3729 182.56L0.929688 241.003L15.0718 255.145L73.4573 196.76L105.608 229.174L126.908 208.048L94.6707 175.546L120.362 149.855C128.929 141.288 128.957 127.408 120.425 118.806L95.0199 93.1925L166.605 21.6067L145.392 0.393555L73.8933 71.8927L45.2489 43.0134L31.0491 57.0977L59.751 86.0349Z" fill="white"/>
</svg>
