<svg width="147" height="205" viewBox="0 0 147 205" fill="none" xmlns="http://www.w3.org/2000/svg">
<path d="M67.8763 39.4176L67.868 39.4057C65.3373 35.7398 62.2232 32.5132 58.6493 29.8541L58.6441 29.8503C56.1338 27.9725 53.299 26.5732 50.2818 25.7223C46.8167 24.7653 43.1638 24.7148 39.6735 25.5757L39.6554 25.5801L39.6373 25.5843C35.4706 26.5464 31.5784 28.4466 28.2571 31.1403C25.1555 33.6859 23.4045 37.03 22.7599 41.1152L22.7598 41.1156C22.208 44.6088 22.5024 48.1355 23.2601 51.7781C24.3574 57.0451 26.3056 62.0888 28.674 67.0754L28.6746 67.0768C32.3519 74.8313 36.8833 82.1214 41.864 89.2123L41.8642 89.2125C44.7734 93.3554 47.8358 97.3833 51.0515 101.297C51.3711 101.674 51.7033 102.275 51.6904 103.061C51.676 103.946 51.2268 104.671 50.6438 105.107C49.5265 105.942 48.2115 105.668 47.4389 105.107C47.3749 105.06 47.3106 105.014 47.246 104.967C46.7039 104.573 46.1376 104.162 45.5772 103.738L45.5682 103.731L45.5593 103.724C40.3707 99.7222 35.531 95.287 31.0923 90.4666C24.0719 82.9588 17.8072 74.8268 12.5876 65.8956L67.8763 39.4176ZM67.8763 39.4176L67.8846 39.4295M67.8763 39.4176L67.8846 39.4295M74.0703 189.001C72.5654 191.898 70.3683 194.271 67.7094 196.223L67.7031 196.227L67.6968 196.232C64.1677 198.789 60.0822 200.472 55.7763 201.143C49.4719 202.263 42.9745 201.38 37.1975 198.618C31.5484 195.93 27.2329 191.784 24.0592 186.542L74.0703 189.001ZM74.0703 189.001C76.1154 191.437 78.4946 193.58 81.1426 195.366C85.5085 198.353 90.5682 200.17 95.8372 200.641C98.9013 200.92 102.072 200.896 105.26 200.18C111.388 198.82 116.917 195.527 121.031 190.787C127.126 183.91 129.365 175.781 127.721 166.743L127.719 166.729L127.716 166.715C126.977 162.903 125.621 159.238 123.701 155.864C121.109 151.177 117.801 147.091 114.14 143.379L114.139 143.378C108.754 137.923 102.723 133.35 96.4195 129.236L96.4137 129.232C95.3756 128.559 94.0546 128.704 93.1898 129.499C92.2877 130.329 92.0437 131.73 92.7596 132.85C92.8795 133.037 93.0152 133.215 93.1655 133.381C97.2008 138.036 100.836 143.023 104.032 148.29C106.473 152.347 108.553 156.475 109.961 160.859L109.961 160.86C111.064 164.29 111.694 167.607 111.422 170.977L111.422 170.98C111.118 174.801 109.614 177.921 106.782 180.446C105.136 181.885 103.268 183.049 101.25 183.892L101.223 183.904L101.197 183.915C100.789 184.097 100.366 184.245 99.9335 184.357C96.6888 185.174 93.3095 185.304 90.0116 184.74C85.8949 184.023 82.49 182.164 79.7813 179.03C78.1913 177.138 76.922 174.999 76.0237 172.697L76.019 172.68L76.0172 172.673C75.9963 172.596 75.9382 172.381 75.8344 172.142C75.5944 171.592 75.1514 171.074 74.5027 170.772C73.8808 170.483 73.2615 170.48 72.7795 170.587C71.8665 170.789 71.1577 171.425 70.811 172.205L70.8056 172.218C69.755 174.617 68.4414 176.891 66.8891 179.001L66.8873 179.003C65.02 181.546 62.9326 183.697 60.4028 185.296L60.4017 185.297C56.8794 187.527 53.1811 188.23 49.1825 187.311L49.1815 187.31C44.6418 186.268 40.7191 183.999 37.322 180.718L37.3186 180.714C35.6672 179.126 34.5691 177.049 34.1856 174.79L34.1835 174.778L34.1814 174.766C33.7922 172.601 33.9891 170.408 34.5909 168.109L34.5916 168.106C35.3695 165.121 36.7028 162.321 38.3555 159.537L38.3571 159.534C41.1486 154.818 44.5695 150.545 48.3437 146.436L48.3466 146.433C57.2509 136.705 67.2577 128.152 77.9154 120.293C79.8912 118.836 81.8976 117.384 83.9141 115.924C88.1167 112.882 92.3629 109.808 96.4664 106.602M74.0703 189.001L2.52827 36.3667C2.27148 29.7146 3.74236 23.3616 8.00937 17.794L8.01081 17.7921C9.69013 15.6053 11.6853 13.6803 13.9309 12.0803C18.3492 8.91243 23.1828 6.40749 28.5685 4.98224L28.5694 4.98201C36.8649 2.78993 44.9241 3.63663 52.6552 7.10217C58.3114 9.63708 63.166 13.2404 67.4988 17.4326C69.3222 19.1872 71.0353 21.0512 72.6287 23.0139C75.7748 16.275 80.8256 11.1711 87.473 7.51002L87.4844 7.50373C91.8605 5.12327 96.6379 3.56989 101.577 2.92146M96.4664 106.602C96.4661 106.603 96.4658 106.603 96.4656 106.603L94.9272 104.632L96.4664 106.602ZM96.4664 106.602C104.996 99.944 113.228 92.867 120.743 84.9406M120.743 84.9406C125.28 80.2119 129.421 75.1182 133.124 69.711L133.129 69.7036L133.134 69.6963C136.529 64.6617 139.467 59.3194 141.522 53.4733M120.743 84.9406C120.741 84.9425 120.739 84.9445 120.737 84.9464L118.934 83.2154M120.743 84.9406C120.745 84.9389 120.746 84.9371 120.748 84.9354L118.934 83.2154M141.522 53.4733C143.189 48.8809 144.112 44.0518 144.256 39.1684L144.257 39.1607L144.257 39.1529C144.314 36.6928 144.15 34.2324 143.766 31.8018L143.766 31.7982C142.99 26.9371 141.372 22.3126 138.6 18.0977C134.473 11.8223 128.748 7.57072 121.846 5.02024V5.02024L121.844 5.01948C115.267 2.5956 108.467 1.97729 101.577 2.92146M141.522 53.4733C141.521 53.4774 141.519 53.4814 141.518 53.4855L139.168 52.632M141.522 53.4733C141.524 53.4691 141.525 53.4648 141.527 53.4606L139.168 52.632M101.577 2.92146C101.58 2.92113 101.582 2.92081 101.585 2.92048L101.91 5.39927M101.577 2.92146C101.575 2.9218 101.572 2.92214 101.57 2.92247L101.91 5.39927M101.91 5.39927C108.425 4.50536 114.811 5.09209 120.98 7.36526M101.91 5.39927C97.2725 6.00716 92.7873 7.46507 88.6791 9.69986L120.98 7.36526M120.98 7.36526C127.43 9.74901 132.705 13.6841 136.511 19.4714C139.06 23.3481 140.569 27.6272 141.297 32.1919C141.657 34.4742 141.812 36.7844 141.758 39.0944C141.621 43.716 140.746 48.2861 139.168 52.632M120.98 7.36526L118.934 83.2154M139.168 52.632C137.202 58.2289 134.376 63.3835 131.061 68.2985C127.435 73.5948 123.378 78.5839 118.934 83.2154M67.8846 39.4295C68.0582 39.6748 68.2301 39.9237 68.4012 40.1763C70.7389 43.6282 75.9707 43.6273 78.0996 39.8446C80.8675 35.3834 84.2779 31.636 88.6048 28.8389L88.6144 28.8327M67.8846 39.4295L88.6144 28.8327M88.6144 28.8327C92.2631 26.4502 96.4607 25.0412 100.808 24.7397C103.64 24.5563 106.483 24.7704 109.255 25.3758L109.268 25.3785M88.6144 28.8327L109.268 25.3785M109.268 25.3785L109.28 25.381M109.268 25.3785L109.28 25.381M109.28 25.381C112.146 25.9772 114.783 26.9076 117.137 28.3909L117.138 28.3915M109.28 25.381L117.138 28.3915M117.138 28.3915C121.812 31.3323 124.174 35.5338 124.514 41.0875L124.514 41.0881M117.138 28.3915L124.514 41.0881M124.514 41.0881C124.76 45.0775 123.941 48.974 122.51 52.9175C120.698 57.9025 118.06 62.4944 114.908 66.8938C110.139 73.5007 104.541 79.467 98.2501 84.6459L98.2418 84.6528M124.514 41.0881L98.2418 84.6528M98.2418 84.6528C91.6142 90.1574 84.9108 95.5651 78.1903 100.986C77.2622 101.735 76.3337 102.484 75.4051 103.234L75.405 103.234M98.2418 84.6528L75.405 103.234M75.405 103.234C67.0776 109.956 58.7008 116.734 50.6862 123.962L50.686 123.963M75.405 103.234L50.686 123.963M50.686 123.963C44.9347 129.151 39.3367 134.574 34.2159 140.516C30.8218 144.372 27.7862 148.53 25.1465 152.937L25.1396 152.948M50.686 123.963L25.1396 152.948M25.1396 152.948L25.1328 152.96M25.1396 152.948L25.1328 152.96M25.1328 152.96C23.0887 156.457 21.3556 160.186 20.3109 164.263L20.3102 164.265M25.1328 152.96L20.3102 164.265M20.3102 164.265C19.2844 168.286 19.0092 172.43 19.9273 176.649L22.3701 176.117M20.3102 164.265L22.3701 176.117M22.3701 176.117L19.9273 176.649C20.7162 180.274 22.2401 183.538 24.0591 186.542L22.3701 176.117ZM4.88744 49.0026L4.88745 49.0026C3.6143 44.9604 2.69604 40.758 2.52832 36.3679L4.88744 49.0026ZM4.88744 49.0026L4.88969 49.0097M4.88744 49.0026L4.88969 49.0097M4.88969 49.0097C6.79297 54.9905 9.47583 60.5732 12.5874 65.8952L4.88969 49.0097ZM73.5041 27.5565C73.4358 27.7751 73.1364 27.8106 72.9985 27.6278L73.5041 27.5565ZM73.6328 184.309L73.4334 184.219L73.6328 184.309Z" fill="white" stroke="white" stroke-width="5"/>
</svg>
