<svg width="143" height="211" viewBox="0 0 143 211" fill="none" xmlns="http://www.w3.org/2000/svg">
<path d="M140.132 50.2062C140.154 50.0693 140.312 50.0065 140.406 50.1088C140.413 50.117 140.42 50.1261 140.426 50.1356C142.698 53.8261 142.565 57.9861 139.7 61.3403C139.331 61.7736 138.882 62.1352 138.508 62.5652C137.916 63.2148 137.358 63.8955 136.837 64.6044C136.635 64.8474 136.517 65.1502 136.5 65.467C136.484 65.7839 136.57 66.0974 136.747 66.3603C136.821 66.4982 136.857 66.6531 136.853 66.8098C136.979 68.4743 136.838 70.1483 136.437 71.7678C135.467 75.2372 133.157 77.1461 129.697 77.6999C128.826 77.801 127.95 77.85 127.074 77.8465C126.982 77.848 126.891 77.8399 126.802 77.8227C126.62 77.7875 126.634 77.5653 126.806 77.4947C127.123 77.3857 127.432 77.2562 127.733 77.107C128.615 76.6086 128.812 75.8724 128.15 75.1166C127.635 74.5367 127.042 74.0323 126.389 73.6181C124.872 72.668 123.227 71.9459 121.504 71.4746C119.798 70.9762 118.063 70.5658 116.335 70.139C112.955 69.3018 109.782 67.9271 106.674 66.3831C101.939 63.9951 97.3599 61.3031 92.9662 58.3238L92.4654 57.9978C92.3274 57.908 92.1397 57.9661 92.1162 58.1291C92.1141 58.1437 92.1136 58.1586 92.1142 58.1734C92.3534 63.6765 93.953 68.692 97.4021 73.035C99.9867 76.2926 103.247 78.7586 106.917 80.661C111.277 82.8928 115.97 84.3904 120.809 85.0946L121.376 85.1786C121.931 85.2608 122.22 85.8877 121.704 86.1077C120.354 86.8178 118.99 87.4987 117.63 88.1828C117.223 88.3881 117.002 88.8259 117.126 89.2648C117.22 89.5959 117.308 89.9215 117.375 90.2513C117.529 90.9039 117.493 91.5874 117.272 92.22C117.051 92.8527 116.654 93.4076 116.128 93.8184C115.487 94.3422 114.777 94.7731 114.018 95.0986C112.102 95.9456 110.051 96.2225 107.98 96.3332C106.846 96.3951 105.718 96.3332 104.571 96.3821C103.566 96.4277 102.568 96.5482 101.567 96.646C101.414 96.6712 101.264 96.7138 101.121 96.773C100.102 97.1411 99.0216 98.5057 98.5713 97.5206C98.4938 97.3512 98.4366 97.1583 98.4004 96.9424C98.2227 95.8837 98.4424 94.9162 98.6556 93.9259C98.9238 92.7076 99.2469 91.499 99.5538 90.2904C100.274 87.4824 99.2727 85.6256 96.5201 84.7525C95.8844 84.5345 95.2248 84.3956 94.5557 84.3388C93.7299 84.2943 92.9204 84.0897 92.1714 83.7362C89.856 82.6503 87.5514 81.5406 85.2575 80.4069C83.319 79.459 81.4161 78.498 79.5229 77.4751C76.6729 75.9941 74.0035 74.1838 71.5686 72.0806C70.2427 70.9487 69.0831 69.6325 68.1246 68.1715C67.2993 66.9691 66.779 65.581 66.6093 64.1288C66.5433 63.4246 66.6042 62.7156 66.7877 62.036C66.8573 61.7785 66.6752 61.5116 66.4187 61.5846C65.8036 61.8473 65.2123 62.1634 64.6515 62.5293C64.0221 62.985 63.4426 63.507 62.923 64.0865C59.2916 68.1878 56.3839 72.7353 54.636 77.9768C54.0234 79.7785 53.6741 81.6604 53.5989 83.5635C53.5146 86.3054 54.0934 89.0267 55.2854 91.4925C56.3809 93.7393 57.7707 95.8276 59.4176 97.7014C62.2962 101.073 65.611 103.976 69.0583 106.725C74.7962 111.305 80.8636 115.416 86.9698 119.469C92.413 123.025 97.5828 126.99 102.436 131.329C106.345 134.88 109.963 138.695 112.936 143.093C114.616 145.575 116.063 148.187 116.945 151.077C117.175 151.82 117.326 152.588 117.485 153.357C117.602 153.933 117.001 154.402 116.436 154.237C114.885 153.784 113.391 153.267 111.831 152.822C111.691 152.782 111.577 152.926 111.663 153.044C113.889 155.533 115.126 158.504 115.808 161.739C116.525 165.13 116.577 168.56 116.325 172.004C116.144 174.416 115.788 176.811 115.259 179.17C115.196 179.459 114.799 179.501 114.655 179.243L110.629 172.071C110.612 172.041 110.576 172.026 110.543 172.036C110.508 172.046 110.486 172.078 110.488 172.114C110.502 172.312 110.512 172.509 110.532 172.704C110.855 175.926 110.316 179.037 109.366 182.092C108.176 185.759 106.565 189.273 104.565 192.562C100.688 199.103 96.0322 205.026 90.8662 210.564C90.7336 210.706 90.4956 210.57 90.5322 210.379C90.6571 209.73 90.7699 209.152 90.8694 208.573C92.6851 198.546 91.5156 188.875 87.4932 179.538C84.9086 173.538 81.387 168.137 77.2225 163.153C71.8529 156.716 65.6498 151.194 58.9524 146.213C52.5056 141.47 45.7135 137.223 38.6339 133.509C31.2518 129.585 24.1716 125.11 17.4528 120.12C15.8988 118.967 14.6161 117.54 13.3464 116.104C10.051 112.374 7.35652 108.256 5.74436 103.503C2.56848 94.1376 3.89312 85.2966 8.92993 76.9213C9.10029 76.6729 8.81403 76.465 8.56466 76.6339L1.15959 81.6508C0.689508 81.9693 0.0619553 81.6058 0.0936959 81.0389C0.539546 73.2207 3.06926 66.1322 7.28222 59.6138C11.4952 53.0954 16.9068 47.7367 23.1777 43.2379C23.1867 43.2321 23.1957 43.2262 23.2047 43.2202C23.6323 42.937 23.3998 42.3276 22.887 42.3356C20.6609 42.3617 18.548 42.9415 16.4803 43.7103C13.1499 44.9963 9.97522 46.6596 7.01729 48.6683C6.66432 48.9039 6.19379 48.6615 6.21462 48.2377C6.23733 47.7756 6.30693 47.3162 6.42283 46.8669C6.87837 44.5312 7.92515 42.4463 9.22716 40.4853C11.0913 37.6707 13.3852 35.2406 15.8471 32.9635C20.6125 28.556 25.785 24.7447 31.6327 21.8878C33.2804 21.0864 34.8926 20.1971 36.4628 19.2459C37.4546 18.6372 38.3852 17.9324 39.2413 17.1415C40.9891 15.5322 41.6062 13.4669 41.3477 11.1214C41.1797 9.57084 40.3591 8.80856 38.8148 8.92584C37.9176 9.00689 37.0347 9.20509 36.1882 9.51546C34.1786 10.2158 32.3467 11.2974 30.544 12.4212C26.8747 14.7597 23.3518 17.3239 19.9954 20.0993L19.0834 20.8661C18.9891 20.9453 18.8584 20.8574 18.906 20.7438C18.9085 20.7377 18.9116 20.7317 18.9152 20.7261C22.5389 14.9439 26.7472 9.65672 32.1044 5.42394C34.5345 3.42882 37.2966 1.88464 40.2622 0.863325C44.0067 -0.371298 47.7447 -0.15304 51.4731 0.921961C54.8997 1.9492 58.0944 3.64113 60.8779 5.9028C62.9876 7.5772 64.9939 9.3819 67.0164 11.1573C69.0389 12.9327 71.1034 14.8351 73.1808 16.63C76.1144 19.1612 79.5325 20.7802 83.1963 21.9399C86.1266 22.8683 89.0569 23.7869 91.9743 24.7512C93.7632 25.3416 95.4937 26.0984 97.1436 27.0119C101.554 29.4421 104.316 33.1166 105.389 38.0682C105.993 40.8632 107.201 43.3161 109.288 45.2902C111.068 46.9343 113.172 48.1809 115.462 48.9485C118.066 49.8639 120.728 50.6131 123.355 51.4666C125.145 52.0497 126.932 52.6491 128.692 53.3169C130.045 53.8446 131.301 54.5966 132.408 55.5418C133.09 56.144 133.875 56.6164 134.724 56.9361C136.23 57.4605 137.454 57.0729 138.391 55.7536C139.176 54.6525 139.554 53.3788 139.826 52.0725C139.938 51.4733 140.024 50.8692 140.132 50.2062Z" fill="white"/>
</svg>
