<svg width="160" height="160" viewBox="0 0 160 160" fill="none" xmlns="http://www.w3.org/2000/svg">
<path fill-rule="evenodd" clip-rule="evenodd" d="M39.4585 0.928715L80.001 41.4712L120.543 0.929236L134.685 15.0714L94.1432 55.6133L104.388 65.858L144.929 25.317L159.071 39.4591L118.53 80.0001L159.071 120.542L144.929 134.684L104.388 94.1422L94.1427 104.387L134.685 144.929L120.543 159.071L80.0005 118.529L39.4581 159.072L25.316 144.93L65.8584 104.387L55.6138 94.1427L15.0723 134.684L0.930134 120.542L41.4716 80.0006L0.929688 39.4586L15.0718 25.3165L55.6138 65.8584L65.8589 55.6133L25.3164 15.0709L39.4585 0.928715ZM69.7559 80.0006L80.0005 90.2452L90.2457 80.0001L80.001 69.7555L69.7559 80.0006Z" fill="white"/>
</svg>
