<svg width="143" height="198" viewBox="0 0 143 198" fill="none" xmlns="http://www.w3.org/2000/svg">
<path fill-rule="evenodd" clip-rule="evenodd" d="M143 71.5C143 75.8099 142.619 80.0308 141.888 84.1306C122.731 68.4036 98.4349 59 72 59C45.1642 59 20.5329 68.6909 1.24422 84.8504C0.427353 80.5253 0 76.0626 0 71.5C0 32.0116 32.0116 0 71.5 0C110.988 0 143 32.0116 143 71.5ZM72 80C95.9916 80 118.011 89.6694 134.379 105.566C124.175 124.361 105.789 138.069 84 141.911V194C84 196.209 82.2091 198 80 198H64C61.7909 198 60 196.209 60 194V142.08C38.0228 138.527 19.4014 124.956 8.97139 106.203C25.4038 89.9282 47.6894 80 72 80Z" fill="white"/>
</svg>
