<svg width="221" height="210" viewBox="0 0 221 210" fill="none" xmlns="http://www.w3.org/2000/svg">
<path fill-rule="evenodd" clip-rule="evenodd" d="M72 20C43.2812 20 20 43.2812 20 72C20 89.5206 28.665 105.017 41.9435 114.439C48.0225 96.8767 60.7076 82.3989 77.0266 73.9771C77.0089 73.3203 77 72.6612 77 72C77 54.0666 83.5565 37.6645 94.4031 25.0601C87.6188 21.8163 80.0215 20 72 20ZM80.7516 94.9993C71.1157 101.566 63.8014 111.287 60.2944 122.677C64.0567 123.543 67.9749 124 72 124C80.0215 124 87.6188 122.184 94.4031 118.94C88.4208 111.988 83.7436 103.881 80.7516 94.9993ZM38.0424 135.505C15.4002 123.373 0 99.4848 0 72C0 32.2355 32.2355 0 72 0C86.1599 0 99.3651 4.08755 110.5 11.1471C121.635 4.08755 134.84 0 149 0C188.764 0 221 32.2355 221 72C221 99.8812 205.152 124.061 181.973 136.023C181.991 136.68 182 137.339 182 138C182 177.764 149.764 210 110 210C70.2355 210 38 177.764 38 138C38 137.165 38.0142 136.333 38.0424 135.505ZM161.775 142.87C159.32 169.305 137.077 190 110 190C82.8587 190 60.5741 169.206 58.2078 142.68C62.6717 143.546 67.2829 144 72 144C86.1599 144 99.3651 139.912 110.5 132.853C121.635 139.912 134.84 144 149 144C153.36 144 157.629 143.613 161.775 142.87ZM178.248 115.001C191.982 105.641 201 89.8736 201 72C201 43.2812 177.719 20 149 20C140.978 20 133.381 21.8163 126.597 25.0601C137.444 37.6645 144 54.0666 144 72C144 72.835 143.986 73.6666 143.958 74.4948C159.974 83.0771 172.367 97.5417 178.248 115.001ZM140.057 95.5613C149.35 102.155 156.384 111.726 159.769 122.884C156.294 123.615 152.692 124 149 124C140.978 124 133.381 122.184 126.597 118.94C132.453 112.135 137.058 104.223 140.057 95.5613ZM121.706 87.3228C119.434 94.7015 115.564 101.38 110.5 106.954C105.389 101.328 101.494 94.577 99.2313 87.1164C102.706 86.3848 106.308 86 110 86C114.025 86 117.943 86.4573 121.706 87.3228ZM123.792 67.3196C119.328 66.4536 114.717 66 110 66C105.64 66 101.371 66.3875 97.2251 67.1299C98.2965 55.5947 103.136 45.1525 110.5 37.0459C117.905 45.197 122.756 55.7092 123.792 67.3196Z" fill="white"/>
</svg>
