<svg width="223" height="207" viewBox="0 0 223 207" fill="none" xmlns="http://www.w3.org/2000/svg">
<path d="M37.63 204.05L92.09 170.73C85.83 156.73 92.82 145.33 107.34 142.18C107.42 139.9 107.49 137.58 107.58 135.27C107.67 132.96 107.8 130.4 107.91 128.07C98.12 124.84 93.81 119.25 94.91 111.55C95.458 107.974 97.2757 104.715 100.03 102.37C102.785 100.025 106.292 98.7503 109.91 98.78C117.55 98.78 123.43 103.61 124.45 111.15C125.57 119.51 120.02 126.22 109.78 128.38C109.6 133.04 109.42 137.76 109.23 142.44C124.69 145.83 130.03 157.65 123.07 171.32C139.98 182.7 156.91 194.11 174.83 206.16C169.71 185.26 164.95 165.77 160.22 146.42C147.15 146.15 140.04 142.03 137.82 133.78C136.857 130.043 137.109 126.096 138.538 122.511C139.967 118.927 142.5 115.89 145.77 113.84C153.59 108.73 161.33 109.84 170.9 117.66L222.04 79.8L158.69 76.05C154.57 87.99 148.91 92.93 139.54 93C132.16 93.06 124.95 88.6 122.76 81.8C119.11 70.48 124.36 62.96 134.09 58L113.89 0L89.5 57.05C99.56 63.9 102.68 70.66 99.95 79.2C98.697 82.9366 96.3037 86.1862 93.107 88.4914C89.9103 90.7965 86.0711 92.0411 82.13 92.05C72.59 92.05 67.13 86.95 63.5 74.53L0 76.37L48.58 115.97C56.58 108.67 65.18 107.41 72.74 112.05C79.51 116.2 82.74 124.05 80.3 131.47C76.95 141.64 69.44 146.17 56.74 144.72C50.51 164.05 44.25 183.5 37.63 204.05Z" fill="white"/>
</svg>
