<svg width="201" height="190" viewBox="0 0 201 190" fill="none" xmlns="http://www.w3.org/2000/svg">
<path fill-rule="evenodd" clip-rule="evenodd" d="M176.832 133.438L184.465 141.071L198.607 126.929L184.193 112.515C185.377 106.863 186 101.004 186 95C186 89.4265 185.463 83.9782 184.439 78.7041L200.072 63.0713L185.93 48.9292L177.32 57.5384C169.046 40.7126 155.371 27.0215 138.557 18.7265L141.142 16.1416L127 1.99946L117.416 11.5839C112.104 10.5446 106.615 10 101 10C94.9956 10 89.1369 10.6225 83.4847 11.8065L72.607 0.928711L58.4648 15.0708L62.5613 19.1673C45.9292 27.6146 32.4487 41.3727 24.3524 58.2093L15.0718 48.9287L0.929688 63.0708L17.4016 79.5428C16.4807 84.5551 15.9996 89.7214 15.9996 95C15.9996 100.616 16.5442 106.104 17.5835 111.416L0.999997 127.999L15.1421 142.142L24.726 132.558C33.0211 149.372 46.7121 163.046 63.538 171.321L59.9297 174.929L74.0718 189.071L84.7036 178.439C89.9778 179.464 95.426 180 101 180C106.278 180 111.444 179.519 116.457 178.598L126.93 189.071L141.072 174.929L137.79 171.647C154.627 163.551 168.385 150.07 176.832 133.438ZM114.643 148.5L122.502 156.359C140.499 150.053 154.879 136.053 161.697 118.303L153.269 109.875L114.643 148.5ZM162.096 72.7626L153.269 81.5903L114.481 42.8027L123.342 33.9417C141.302 40.5156 155.552 54.7879 162.096 72.7626ZM139.126 95.7324L100.501 134.358L61.7134 95.5703L100.339 56.9449L139.126 95.7324ZM86.3588 148.5L47.5713 109.712L39.9413 117.342C46.5152 135.303 60.7875 149.553 78.7622 156.097L86.3588 148.5ZM77.6961 34.3021L86.1967 42.8027L47.5713 81.4282L39.6405 73.4973C45.9468 55.5007 59.9469 41.1208 77.6961 34.3021Z" fill="white"/>
</svg>
