<svg width="150" height="188" viewBox="0 0 150 188" fill="none" xmlns="http://www.w3.org/2000/svg">
<path fill-rule="evenodd" clip-rule="evenodd" d="M51.9304 26.7778C51.9304 22.9087 54.9907 20 58.4865 20C61.9823 20 65.0425 22.9087 65.0425 26.7778C65.0425 30.6469 61.9823 33.5556 58.4865 33.5556C54.9907 33.5556 51.9304 30.6469 51.9304 26.7778ZM58.4865 0C46.0815 0 35.8056 8.52069 32.8125 19.9194C30.8096 19.4329 28.7151 19.1748 26.556 19.1748C11.7645 19.1748 0 31.2895 0 45.9526C0 53.4297 3.05904 60.2441 8.0186 65.1274C3.05904 70.0108 0 76.8252 0 84.3023C0 98.9654 11.7645 111.08 26.556 111.08C28.7144 111.08 30.8084 110.822 32.8107 110.336C34.0462 115.041 36.5224 119.255 39.8769 122.583C35.0908 127.444 32.1523 134.135 32.1523 141.463C32.1523 156.127 43.9169 168.241 58.7084 168.241C60.8674 168.241 62.962 167.983 64.9649 167.497C67.9579 178.895 78.2339 187.416 90.6388 187.416C103.044 187.416 113.32 178.895 116.313 167.497C118.315 167.983 120.41 168.241 122.569 168.241C137.36 168.241 149.125 156.127 149.125 141.463C149.125 133.986 146.066 127.172 141.106 122.289C146.066 117.405 149.125 110.591 149.125 103.114C149.125 88.4506 137.36 76.3359 122.569 76.3359C120.41 76.3359 118.315 76.594 116.313 77.0804C115.077 72.3757 112.601 68.1614 109.247 64.834C114.034 59.973 116.972 53.2811 116.972 45.9526C116.972 31.2895 105.208 19.1748 90.4162 19.1748C88.2574 19.1748 86.163 19.4329 84.1604 19.9192C81.1672 8.52061 70.8913 0 58.4865 0ZM84.3823 134.605C86.3852 134.119 88.4798 133.86 90.6388 133.86C92.7976 133.86 94.8919 134.118 96.8946 134.605C98.1387 129.867 100.641 125.627 104.031 122.289C100.71 119.018 98.2409 114.882 96.9721 110.261C94.8789 110.796 92.6831 111.08 90.4162 111.08C88.299 111.08 86.2439 110.832 84.2764 110.364C83.5751 112.879 82.518 115.249 81.1613 117.412C80.0736 119.21 78.7814 120.87 77.316 122.358C80.6706 125.685 83.1469 129.9 84.3823 134.605ZM58.7084 76.3359C60.8255 76.3359 62.8807 76.5841 64.8482 77.0525C65.5435 74.5588 66.5886 72.2077 67.9285 70.0592C69.0233 68.2403 70.3272 66.5613 71.8079 65.0575C68.4537 61.7301 65.9776 57.5158 64.7423 52.8111C62.7396 53.2975 60.6453 53.5556 58.4865 53.5556C56.3274 53.5556 54.2329 53.2974 52.23 52.811C50.9859 57.5487 48.4837 61.7893 45.0935 65.1274C48.4147 68.3977 50.8837 72.5339 52.1524 77.1551C54.2457 76.6205 56.4415 76.3359 58.7084 76.3359ZM52.1523 103.114C52.1523 101.838 52.4853 100.666 53.0569 99.6686C54.2578 97.8509 56.285 96.6993 58.4845 96.6993C61.9803 96.6993 65.0406 99.608 65.0406 103.477C65.0406 104.753 64.7076 105.925 64.136 106.922C62.9351 108.74 60.9079 109.891 58.7084 109.891C55.2126 109.891 52.1523 106.983 52.1523 103.114ZM90.4162 39.1748C86.9204 39.1748 83.8601 42.0835 83.8601 45.9526C83.8601 49.8217 86.9204 52.7304 90.4162 52.7304C93.9119 52.7304 96.9722 49.8217 96.9722 45.9526C96.9722 42.0835 93.9119 39.1748 90.4162 39.1748ZM84.0828 83.9389C84.0828 82.6687 84.4126 81.502 84.9794 80.5077C86.1791 78.6819 88.211 77.5245 90.4162 77.5245C93.9119 77.5245 96.9722 80.4332 96.9722 84.3023C96.9722 85.5725 96.6423 86.7393 96.0755 87.7335C94.8758 89.5593 92.844 90.7167 90.6388 90.7167C87.143 90.7167 84.0828 87.808 84.0828 83.9389ZM26.556 39.1748C30.0518 39.1748 33.1121 42.0835 33.1121 45.9526C33.1121 49.8217 30.0518 52.7304 26.556 52.7304C23.0603 52.7304 20 49.8217 20 45.9526C20 42.0835 23.0603 39.1748 26.556 39.1748ZM33.1121 84.3023C33.1121 88.1714 30.0518 91.0801 26.556 91.0801C23.0603 91.0801 20 88.1714 20 84.3023C20 80.4332 23.0603 77.5245 26.556 77.5245C30.0518 77.5245 33.1121 80.4332 33.1121 84.3023ZM84.0828 160.638C84.0828 164.507 87.143 167.416 90.6388 167.416C94.1346 167.416 97.1949 164.507 97.1949 160.638C97.1949 156.769 94.1346 153.86 90.6388 153.86C87.143 153.86 84.0828 156.769 84.0828 160.638ZM122.569 96.3359C119.073 96.3359 116.012 99.2446 116.012 103.114C116.012 106.983 119.073 109.891 122.569 109.891C126.064 109.891 129.125 106.983 129.125 103.114C129.125 99.2446 126.064 96.3359 122.569 96.3359ZM116.012 141.463C116.012 145.333 119.073 148.241 122.569 148.241C126.064 148.241 129.125 145.333 129.125 141.463C129.125 137.594 126.064 134.686 122.569 134.686C119.073 134.686 116.012 137.594 116.012 141.463ZM65.2644 141.463C65.2644 145.333 62.2042 148.241 58.7084 148.241C55.2126 148.241 52.1523 145.333 52.1523 141.463C52.1523 137.594 55.2126 134.686 58.7084 134.686C62.2042 134.686 65.2644 137.594 65.2644 141.463Z" fill="white"/>
</svg>
