<svg width="96" height="160" viewBox="0 0 96 160" fill="none" xmlns="http://www.w3.org/2000/svg">
<path fill-rule="evenodd" clip-rule="evenodd" d="M76 48C76 32.536 63.464 20 48 20C32.536 20 20 32.536 20 48L0 48C2.31755e-06 21.4903 21.4903 -6.51384e-06 48 -4.19629e-06C74.5097 -1.87874e-06 96 21.4903 96 48L76 48Z" fill="white"/>
<path fill-rule="evenodd" clip-rule="evenodd" d="M48 73.1549C48.3762 73.3524 48.7729 73.5633 49.1876 73.7871C52.4978 75.5738 56.8468 78.1264 61.1364 81.2314C65.4811 84.3764 69.4215 87.843 72.1913 91.3776C74.9963 94.9572 76 97.8241 76 100.001L96 100.001C96 91.6844 92.2537 84.5547 87.9337 79.0417C83.5785 73.4838 78.0189 68.7621 72.8636 65.0304C67.6532 61.2588 62.5022 58.2464 58.6874 56.1873C56.7684 55.1515 55.1591 54.3417 54.0124 53.783C53.4384 53.5034 52.9785 53.2858 52.6516 53.1334C52.4881 53.0572 52.3577 52.9972 52.2627 52.9539L52.1471 52.9013L52.1097 52.8845L52.0908 52.876C52.0885 52.875 52.0863 52.874 48 62.001L52.0863 52.874L48 51.0445L43.9137 52.874L48 62.001C43.9137 52.874 43.9115 52.875 43.9092 52.876L43.8903 52.8845L43.8529 52.9013L43.7373 52.9539C43.6424 52.9972 43.5119 53.0572 43.3484 53.1334C43.0215 53.2858 42.5616 53.5034 41.9876 53.783C40.8409 54.3417 39.2316 55.1515 37.3126 56.1873C33.4978 58.2464 28.3469 61.2588 23.1364 65.0304C17.9811 68.7621 12.4215 73.4838 8.06629 79.0417C3.74626 84.5546 7.27055e-07 91.6844 0 100.001L20 100.001C20 97.8241 21.0037 94.9572 23.8087 91.3776C26.5785 87.843 30.5189 84.3764 34.8636 81.2314C39.1532 78.1264 43.5022 75.5738 46.8124 73.7871C47.2271 73.5633 47.6238 73.3524 48 73.1549Z" fill="white"/>
<path fill-rule="evenodd" clip-rule="evenodd" d="M47.9992 128.142L78.9282 159.071L93.0703 144.929L47.9992 99.8581L2.92818 144.929L17.0703 159.071L47.9992 128.142Z" fill="white"/>
</svg>
