<svg width="96" height="188" viewBox="0 0 96 188" fill="none" xmlns="http://www.w3.org/2000/svg">
<path fill-rule="evenodd" clip-rule="evenodd" d="M38 107.043L38 80.9568C16.2901 76.3562 3.81596e-06 57.0805 5.83371e-06 34L20 34C20 45.9408 27.4745 56.1358 38 60.1615L38 -5.07052e-06L58 -3.32207e-06L58 60.1615C68.5255 56.1358 76 45.9408 76 34L96 34C96 57.0805 79.7099 76.3562 58 80.9568L58 107.043C79.7099 111.644 96 130.92 96 154L76 154C76 142.059 68.5255 131.864 58 127.839L58 188L38 188L38 127.839C27.4745 131.864 20 142.059 20 154L2.97237e-06 154C4.99013e-06 130.92 16.2901 111.644 38 107.043Z" fill="white"/>
</svg>
