<svg width="127" height="159" viewBox="0 0 127 159" fill="none" xmlns="http://www.w3.org/2000/svg">
<path d="M63.632 69L115.161 158.25H12.1035L63.632 69Z" fill="white"/>
<path fill-rule="evenodd" clip-rule="evenodd" d="M67.6697 3.4333C66.7476 -1.14443 60.2041 -1.14443 59.282 3.4333C58.4818 7.40607 53.1202 8.143 51.2778 4.53346C49.1548 0.374267 42.854 2.13967 43.2011 6.79643C43.5024 10.8378 38.5384 12.9939 35.7905 10.0153C32.6241 6.58313 27.0332 9.98301 28.6239 14.3734C30.0043 18.1836 25.8062 21.5991 22.3565 19.4723C18.3815 17.0217 13.9153 21.8039 16.6315 25.6023C18.9887 28.8988 15.8677 33.3202 11.9722 32.203C7.48344 30.9157 4.47303 36.7256 8.11329 39.6504C11.2725 42.1886 9.46013 47.2881 5.40763 47.2634C0.738039 47.2348 -0.59327 53.6414 3.7011 55.4756C7.42796 57.0674 7.05864 62.4668 3.14973 63.5363C-1.3544 64.7686 -0.907854 71.2969 3.72213 71.9044C7.74025 72.4317 8.84135 77.7305 5.36595 79.8149C1.36134 82.2168 3.55261 88.3825 8.17482 87.7183C12.1862 87.142 14.6761 91.9472 11.8919 94.892C8.68383 98.2852 12.4573 103.631 16.7289 101.745C20.4361 100.107 24.13 104.063 22.2436 107.649C20.9568 110.096 22.2108 112.542 24.1962 113.514L63.9759 44.6135L103.493 113.06C105.026 111.902 105.827 109.776 104.708 107.649C102.822 104.063 106.516 100.107 110.223 101.745C114.494 103.631 118.268 98.2852 115.06 94.892C112.276 91.9472 114.766 87.142 118.777 87.7183C123.399 88.3825 125.59 82.2168 121.586 79.8149C118.11 77.7305 119.211 72.4317 123.23 71.9044C127.86 71.2969 128.306 64.7686 123.802 63.5363C119.893 62.4668 119.524 57.0674 123.251 55.4756C127.545 53.6414 126.214 47.2348 121.544 47.2634C117.492 47.2881 115.679 42.1886 118.838 39.6504C122.479 36.7256 119.468 30.9157 114.98 32.203C111.084 33.3202 107.963 28.8988 110.32 25.6023C113.036 21.8039 108.57 17.0217 104.595 19.4723C101.146 21.5991 96.9474 18.1836 98.3278 14.3734C99.9185 9.98301 94.3276 6.58313 91.1612 10.0153C88.4133 12.9939 83.4493 10.8378 83.7506 6.79643C84.0977 2.13967 77.7969 0.374267 75.674 4.53346C73.8315 8.143 68.47 7.40607 67.6697 3.4333Z" fill="white"/>
</svg>
