<svg width="191" height="191" viewBox="0 0 191 191" fill="none" xmlns="http://www.w3.org/2000/svg">
<path fill-rule="evenodd" clip-rule="evenodd" d="M0 153.885L94.9212 189.957L95.0791 190.211L95.3347 190.114L95.5919 190.212L95.7509 189.956L190.671 153.884V131.001C185.342 133.629 179.344 135.106 173 135.106C164.87 135.106 157.307 132.681 150.994 128.514C161.835 121.358 168.988 109.067 168.988 95.1056C168.988 81.1442 161.836 68.8534 150.995 61.6978C157.307 57.5314 164.871 55.1061 173 55.1061C179.344 55.1061 185.342 56.5828 190.671 59.2111V36.3271L95.7499 0.254894L95.5919 0.000606327L95.3363 0.0977357L95.0792 0L94.9202 0.255875L1.1679e-05 36.3277L9.40564e-06 59.2108C5.32878 56.5824 11.3274 55.1058 17.6709 55.1058C25.8009 55.1058 33.3644 57.5312 39.6772 61.698C28.8358 68.8535 21.6827 81.1445 21.6827 95.1063C21.6827 109.068 28.8355 121.359 39.6764 128.514C33.3637 132.681 25.8006 135.106 17.6709 135.106C11.3274 135.106 5.32877 133.629 2.27347e-06 131.001L0 153.885ZM95.0001 131.546C114.882 131.546 131 115.428 131 95.546C131 75.6638 114.882 59.546 95.0001 59.546C75.1178 59.546 59.0001 75.6638 59.0001 95.546C59.0001 115.428 75.1178 131.546 95.0001 131.546ZM112 32.546C112 41.9349 104.389 49.546 95.0001 49.546C85.6112 49.546 78.0001 41.9349 78.0001 32.546C78.0001 23.1572 85.6112 15.546 95.0001 15.546C104.389 15.546 112 23.1572 112 32.546ZM95.0001 175.546C104.389 175.546 112 167.935 112 158.546C112 149.157 104.389 141.546 95.0001 141.546C85.6112 141.546 78.0001 149.157 78.0001 158.546C78.0001 167.935 85.6112 175.546 95.0001 175.546Z" fill="white"/>
</svg>
