<svg width="159" height="160" viewBox="0 0 159 160" fill="none" xmlns="http://www.w3.org/2000/svg">
<path fill-rule="evenodd" clip-rule="evenodd" d="M41.1574 34.5C48.9731 27.907 58.511 23.2911 69 21.4235V34.5L41.1574 34.5ZM25.7259 54.5C23.6372 58.8967 22.0719 63.5902 21.1105 68.5H69V54.5L25.7259 54.5ZM24.0031 101.5C22.402 97.37 21.2486 93.0168 20.6026 88.5H69V101.5H24.0031ZM36.8619 121.5C45.3548 130.224 56.5023 136.351 69 138.576V121.5H36.8619ZM139 80C139 109.628 117.345 134.197 89 138.746V21.2543C117.345 25.8026 139 50.3724 139 80ZM0 80C0 36.0934 35.5934 0.5 79.5 0.5C123.407 0.5 159 36.0934 159 80C159 123.907 123.407 159.5 79.5 159.5C35.5934 159.5 0 123.907 0 80Z" fill="white"/>
</svg>
