<svg width="168" height="168" viewBox="0 0 168 168" fill="none" xmlns="http://www.w3.org/2000/svg">
<path fill-rule="evenodd" clip-rule="evenodd" d="M58.6898 11.3137C72.7487 -2.74519 95.5427 -2.74519 109.602 11.3137L156.978 58.6898C171.037 72.7487 171.037 95.5427 156.978 109.602L109.602 156.978C95.5426 171.037 72.7487 171.037 58.6898 156.978L11.3137 109.602C-2.74519 95.5427 -2.74519 72.7487 11.3137 58.6898L58.6898 11.3137ZM95.4594 25.4558C89.211 19.2074 79.0804 19.2074 72.832 25.4558L25.4558 72.832C19.2074 79.0804 19.2074 89.211 25.4558 95.4594L72.832 142.836C79.0804 149.084 89.211 149.084 95.4594 142.836L142.836 95.4594C149.084 89.211 149.084 79.0804 142.836 72.832L95.4594 25.4558ZM86.5522 100.659C85.4516 100.883 84.3124 101 83.1457 101C73.7568 101 66.1457 93.3893 66.1457 84.0004C66.1457 82.8949 66.2512 81.8141 66.4527 80.7675L55.898 70.3219L69.9664 56.1064L81.0976 67.1225C81.7691 67.0419 82.4525 67.0004 83.1457 67.0004C92.5345 67.0004 100.146 74.6116 100.146 84.0004C100.146 84.6332 100.111 85.2579 100.044 85.8727L111.431 97.1421L97.3625 111.358L86.5522 100.659Z" fill="white"/>
</svg>
