<svg width="170" height="186" viewBox="0 0 170 186" fill="none" xmlns="http://www.w3.org/2000/svg">
<path fill-rule="evenodd" clip-rule="evenodd" d="M21.7811 41.3352L9.57598 64.3244C-11.2135 103.483 2.96962 153.212 41.2548 175.397C79.54 197.583 127.429 183.823 148.219 144.665L160.424 121.676C181.213 82.5173 167.03 32.7883 128.745 10.6029C90.46 -11.5825 42.5705 2.17681 21.7811 41.3352ZM138.481 131.068C139.973 130.134 142.068 131.94 141.241 133.498L138.349 138.945C128.51 157.478 111.593 169.377 92.8884 173.123C86.3292 174.436 86.3629 163.69 92.0383 160.137L138.481 131.068ZM77.9613 25.8594C83.6353 22.3079 83.6679 11.5642 77.1102 12.8775C58.4062 16.6234 41.4899 28.5224 31.651 47.0545L28.7603 52.4994C27.9335 54.0568 30.0271 55.8623 31.5189 54.9285L77.9613 25.8594ZM149.903 52.3744C136.338 28.7929 106.68 21.3569 83.6597 35.7656C81.7137 36.9836 84.3203 44.0319 86.6086 44.1842C102.123 45.2168 116.985 53.433 125.696 67.454L127.489 70.3388C136.743 85.2334 136.747 102.96 129.09 117.124C128.302 118.582 131.38 122.039 132.782 121.162C155.802 106.753 163.467 75.9559 149.903 52.3744ZM86.3399 150.231C88.2861 149.013 85.6797 141.965 83.3911 141.812C67.8772 140.78 53.0155 132.563 44.3038 118.543L42.5114 115.658C33.257 100.763 33.2536 83.037 40.9097 68.8729C41.6977 67.4152 38.6193 63.9572 37.2173 64.8347C14.1971 79.2435 6.53208 110.041 20.0969 133.622C33.6617 157.204 63.3197 164.64 86.3399 150.231ZM117.619 76.0582C128.324 93.2872 122.799 115.484 105.279 125.637C87.7594 135.789 64.8787 130.052 54.1737 112.823L52.3813 109.938C41.6763 92.7093 47.2009 70.5123 64.7208 60.3599C82.2407 50.2076 105.121 55.9443 115.826 73.1734L117.619 76.0582Z" fill="white"/>
</svg>
