<svg width="194" height="158" viewBox="0 0 194 158" fill="none" xmlns="http://www.w3.org/2000/svg">
<path fill-rule="evenodd" clip-rule="evenodd" d="M39.8413 3.92928C34.421 -1.30976 25.8236 -1.30976 20.4032 3.92928C14.7158 9.42648 14.7159 18.5427 20.4033 24.0399L40.2727 43.2449C42.0158 44.9296 43 47.2499 43 49.674C43 54.6123 38.9968 58.6155 34.0586 58.6155H18.5C8.28273 58.6155 0 66.8982 0 77.1155C0 87.3327 8.28273 95.6155 18.5 95.6155H31.5194C37.86 95.6155 43 100.756 43 107.096C43 110.209 41.7362 113.188 39.4982 115.351L20.4033 133.807C14.7159 139.305 14.7159 148.421 20.4033 153.918C25.8236 159.157 34.421 159.157 39.8413 153.918L62.9906 131.543C71.8093 123.019 83.5943 118.255 95.859 118.255H98.7575C111.022 118.255 122.807 123.019 131.626 131.543L154.775 153.918C160.195 159.157 168.793 159.157 174.213 153.918C179.901 148.421 179.901 139.305 174.213 133.807L155.581 115.799C153.292 113.586 152 110.54 152 107.356C152 100.872 157.257 95.6155 163.741 95.6155H175.5C185.717 95.6155 194 87.3327 194 77.1155C194 66.8982 185.717 58.6155 175.5 58.6155H161.202C156.12 58.6155 152 54.4957 152 49.4137C152 46.9189 153.013 44.5311 154.807 42.7973L174.213 24.0399C179.901 18.5427 179.901 9.42649 174.213 3.92929C168.793 -1.30975 160.195 -1.30974 154.775 3.9293L132.06 25.8844C123.358 34.2954 111.729 38.9969 99.6267 38.9969H94.9897C82.8872 38.9969 71.258 34.2954 62.556 25.8844L39.8413 3.92928ZM43 77.1155C43 69.6596 36.9559 63.6155 29.5 63.6155H18.5C11.0442 63.6155 5 69.6596 5 77.1155C5 84.5713 11.0442 90.6155 18.5 90.6155H29.5001C36.9559 90.6155 43 84.5713 43 77.1155ZM165.5 90.6155C158.044 90.6155 152 84.5713 152 77.1155C152 69.6596 158.044 63.6155 165.5 63.6155H175.5C182.956 63.6155 189 69.6596 189 77.1155C189 84.5713 182.956 90.6155 175.5 90.6155H165.5Z" fill="white"/>
</svg>
