<svg width="262" height="247" viewBox="0 0 262 247" fill="none" xmlns="http://www.w3.org/2000/svg">
<path fill-rule="evenodd" clip-rule="evenodd" d="M84.8936 0.440379C85.2901 -0.146791 86.1546 -0.146794 86.5511 0.440376L171.272 125.903C171.72 126.568 171.244 127.463 170.443 127.463H140.819C140.083 127.463 139.601 128.231 139.946 128.881C146.654 141.561 159.981 150.201 175.325 150.201C194.132 150.201 209.907 137.222 214.182 119.733C214.293 119.278 214.698 118.951 215.166 118.951L260.045 118.951C260.846 118.951 261.322 119.847 260.873 120.511L176.153 245.974C175.756 246.561 174.892 246.561 174.495 245.974L89.7745 120.511C89.326 119.847 89.8019 118.951 90.6033 118.951L120.228 118.951C120.964 118.951 121.446 118.184 121.102 117.533C114.393 104.853 101.066 96.2131 85.7223 96.2131C66.9157 96.2131 51.1404 109.192 46.865 126.681C46.7538 127.136 46.3492 127.463 45.8808 127.463H1.0017C0.200316 127.463 -0.275523 126.568 0.172949 125.903L84.8936 0.440379Z" fill="white"/>
</svg>
