<svg width="244" height="164" viewBox="0 0 244 164" fill="none" xmlns="http://www.w3.org/2000/svg">
<path d="M5.99999 119.279C3.33332 117.739 3.33333 113.89 6 112.35L66.2784 77.5486C68.945 76.009 72.2783 77.9335 72.2783 81.0127L72.2784 150.616C72.2784 153.695 68.945 155.62 66.2784 154.08L5.99999 119.279Z" fill="white"/>
<path d="M237.463 112.35C240.13 113.89 240.13 117.739 237.463 119.279L177.185 154.08C174.518 155.62 171.185 153.695 171.185 150.616L171.185 81.0127C171.185 77.9335 174.518 76.009 177.185 77.5486L237.463 112.35Z" fill="white"/>
<path d="M119.114 5.99999C120.654 3.33332 124.503 3.33333 126.042 6L160.844 66.2784C162.384 68.945 160.459 72.2784 157.38 72.2784L87.7764 72.2784C84.6972 72.2784 82.7727 68.945 84.3123 66.2784L119.114 5.99999Z" fill="white"/>
<rect x="87.918" y="116.66" width="69.3196" height="30.433" rx="4" fill="white"/>
</svg>
