<svg width="221" height="197" viewBox="0 0 221 197" fill="none" xmlns="http://www.w3.org/2000/svg">
<path fill-rule="evenodd" clip-rule="evenodd" d="M162.138 106.465L187.723 121.236C196.572 126.345 199.603 137.659 194.495 146.508C189.386 155.356 178.072 158.388 169.223 153.279L135.052 133.55C122.359 126.223 106.328 128.333 95.9647 138.696L68.0638 166.597C60.8391 173.822 49.1256 173.822 41.9009 166.597C34.6762 159.373 34.6762 147.659 41.9009 140.434L62.7914 119.544C71.6557 110.679 69.6993 95.8193 58.8428 89.5512L33.2571 74.7793C24.4087 69.6707 21.377 58.3563 26.4856 49.5079C31.5943 40.6595 42.9087 37.6278 51.7571 42.7364L85.9287 62.4654C98.6209 69.7932 114.653 67.6826 125.016 57.3195L152.917 29.4185C160.141 22.1938 171.855 22.1938 179.08 29.4185C186.304 36.6432 186.304 48.3568 179.08 55.5815L158.189 76.4721C149.325 85.3364 151.281 100.197 162.138 106.465ZM196.05 72.552C187.804 80.7978 189.624 94.6211 199.723 100.452C220.051 112.188 227.015 138.18 215.279 158.508C203.543 178.835 177.551 185.8 157.223 174.064C133.782 160.53 104.174 164.428 85.0344 183.568C68.4371 200.165 41.5276 200.165 24.9303 183.568C8.33301 166.971 8.33301 140.061 24.9303 123.464C33.1761 115.218 31.3561 101.395 21.2571 95.564C0.929654 83.8279 -6.03503 57.8353 5.70102 37.5079C17.4371 17.1804 43.4297 10.2157 63.7571 21.9518C87.1981 35.4854 116.807 31.5874 135.946 12.448C152.543 -4.14933 179.453 -4.14931 196.05 12.448C212.647 29.0452 212.647 55.9548 196.05 72.552Z" fill="white"/>
</svg>
