<svg width="242" height="158" viewBox="0 0 242 158" fill="none" xmlns="http://www.w3.org/2000/svg">
<path fill-rule="evenodd" clip-rule="evenodd" d="M40.295 20.069C36.8536 16.7427 36.8536 11.2265 40.295 7.90013L44.4033 3.92928C49.8236 -1.30976 58.421 -1.30976 63.8413 3.92927L83.3598 22.7951C91.2043 30.3772 101.688 34.6155 112.597 34.6155H199.5C222.972 34.6155 242 53.6434 242 77.1155C242 100.588 222.972 119.615 199.5 119.615C193.695 119.615 190.839 126.68 195.013 130.714L201.218 136.712C205.263 140.621 205.263 147.104 201.218 151.014L198.213 153.918C192.793 159.157 184.195 159.157 178.775 153.918L156.619 132.502C148.066 124.236 136.637 119.615 124.743 119.615H42.5C19.0279 119.615 0 100.588 0 77.1155C0 53.6434 19.0279 34.6155 42.5 34.6155C47.1692 34.6155 49.4663 28.9336 46.109 25.6886L40.295 20.069ZM67 77.1155C67 66.8982 58.7173 58.6155 48.5001 58.6155H42.5C32.2827 58.6155 24 66.8982 24 77.1155C24 87.3328 32.2827 95.6155 42.5 95.6155H48.5001C58.7173 95.6155 67 87.3327 67 77.1155ZM176 77.1155C176 87.3327 184.283 95.6155 194.5 95.6155H199.5C209.717 95.6155 218 87.3328 218 77.1155C218 66.8982 209.717 58.6155 199.5 58.6155H194.5C184.283 58.6155 176 66.8982 176 77.1155Z" fill="white"/>
</svg>
