<svg width="180" height="180" viewBox="0 0 180 180" fill="none" xmlns="http://www.w3.org/2000/svg">
<mask id="mask0_1249_4909" style="mask-type:alpha" maskUnits="userSpaceOnUse" x="94" y="0" width="86" height="86">
<path d="M94 0H180V86H94V0Z" fill="#C4C4C4"/>
</mask>
<g mask="url(#mask0_1249_4909)">
<path fill-rule="evenodd" clip-rule="evenodd" d="M180 104C189.941 104 198 95.9411 198 86C198 76.0589 189.941 68 180 68C170.059 68 162 76.0589 162 86C162 95.9411 170.059 104 180 104ZM180 172C227.496 172 266 133.496 266 86C266 38.5035 227.496 0 180 0C132.504 0 94 38.5035 94 86C94 133.496 132.504 172 180 172Z" fill="white"/>
</g>
<mask id="mask1_1249_4909" style="mask-type:alpha" maskUnits="userSpaceOnUse" x="94" y="94" width="86" height="86">
<path d="M94 180L94 94L180 94L180 180L94 180Z" fill="#C4C4C4"/>
</mask>
<g mask="url(#mask1_1249_4909)">
<path fill-rule="evenodd" clip-rule="evenodd" d="M198 94C198 84.0589 189.941 76 180 76C170.059 76 162 84.0589 162 94C162 103.941 170.059 112 180 112C189.941 112 198 103.941 198 94ZM266 94C266 46.5035 227.496 7.99999 180 8C132.504 8 94 46.5035 94 94C94 141.496 132.504 180 180 180C227.496 180 266 141.496 266 94Z" fill="white"/>
</g>
<mask id="mask2_1249_4909" style="mask-type:alpha" maskUnits="userSpaceOnUse" x="0" y="94" width="86" height="86">
<path d="M86 180L0 180L7.51836e-06 94L86 94L86 180Z" fill="#C4C4C4"/>
</mask>
<g mask="url(#mask2_1249_4909)">
<path fill-rule="evenodd" clip-rule="evenodd" d="M9.09197e-06 76C-9.94111 76 -18 84.0589 -18 94C-18 103.941 -9.94112 112 5.94475e-06 112C9.94113 112 18 103.941 18 94C18 84.0589 9.94113 76 9.09197e-06 76ZM1.50367e-05 7.99999C-47.4965 7.99999 -86 46.5035 -86 94C-86 141.496 -47.4965 180 0 180C47.4965 180 86 141.496 86 94C86 46.5035 47.4965 8 1.50367e-05 7.99999Z" fill="white"/>
</g>
<mask id="mask3_1249_4909" style="mask-type:alpha" maskUnits="userSpaceOnUse" x="0" y="0" width="86" height="86">
<path d="M86 0L86 86L-3.75918e-06 86L0 -3.75918e-06L86 0Z" fill="#C4C4C4"/>
</mask>
<g mask="url(#mask3_1249_4909)">
<path fill-rule="evenodd" clip-rule="evenodd" d="M-18 86C-18 95.9411 -9.94113 104 -4.54598e-06 104C9.94112 104 18 95.9411 18 86C18 76.0589 9.94112 68 -2.97237e-06 68C-9.94113 68 -18 76.0589 -18 86ZM-86 86C-86 133.496 -47.4965 172 -7.51836e-06 172C47.4965 172 86 133.496 86 86C86 38.5035 47.4965 -1.68304e-06 0 -3.75918e-06C-47.4965 -5.83532e-06 -86 38.5035 -86 86Z" fill="white"/>
</g>
</svg>
