<svg width="166" height="166" viewBox="0 0 166 166" fill="none" xmlns="http://www.w3.org/2000/svg">
<path fill-rule="evenodd" clip-rule="evenodd" d="M138 83C138 113.376 113.376 138 83 138C52.6243 138 28 113.376 28 83C28 52.6243 52.6243 28 83 28C113.376 28 138 52.6243 138 83ZM166 83C166 128.84 128.84 166 83 166C37.1604 166 0 128.84 0 83C0 37.1604 37.1604 0 83 0C128.84 0 166 37.1604 166 83ZM47.5069 56.612L62.742 82.9999L47.5068 109.388C46.0668 111.882 47.8668 115 50.7469 115L115.85 115C118.73 115 120.53 111.882 119.09 109.388L103.855 83.0001L119.09 56.612C120.53 54.1178 118.73 51 115.85 51L50.747 51C47.8669 51 46.0669 54.1177 47.5069 56.612Z" fill="white"/>
</svg>
