<svg width="248" height="102" viewBox="0 0 248 102" fill="none" xmlns="http://www.w3.org/2000/svg">
<path fill-rule="evenodd" clip-rule="evenodd" d="M11.5277 20.0003C18.673 7.62423 31.8781 0.000286312 46.1687 0.000287561L75.2915 0.000290107C79.1949 0.000290448 82.8018 2.08273 84.7535 5.46318C87.5235 10.261 93.4459 12.2262 98.5347 10.0361L111.774 4.33828C118.621 1.39114 126.38 1.39114 133.228 4.33828L148.007 10.699C153.432 13.0337 159.746 10.9387 162.699 5.82402C164.779 2.22028 168.624 0.000283007 172.786 0.000283371L201.492 0.000285881C215.782 0.00028713 228.987 7.62424 236.133 20.0003L242.301 30.6842C249.446 43.0603 249.446 58.3082 242.301 70.6842L236.133 81.3682C228.987 93.7442 215.782 101.368 201.492 101.368L172.759 101.368C168.614 101.368 164.785 99.1571 162.712 95.5679C159.771 90.4739 153.483 88.3874 148.08 90.7127L133.239 97.1C126.384 100.05 118.617 100.05 111.762 97.1L98.4617 91.3756C93.3949 89.1949 87.4979 91.1517 84.7399 95.9288C82.7966 99.2947 79.2052 101.368 75.3186 101.368L46.1687 101.368C31.8781 101.368 18.673 93.7442 11.5277 81.3681L5.35932 70.6842C-1.78599 58.3082 -1.78599 43.0603 5.35934 30.6842L11.5277 20.0003ZM175.001 68.7214C185.494 68.7214 194.001 60.2148 194.001 49.7214C194.001 39.228 185.494 30.7214 175.001 30.7214L73.0008 30.7214C62.5074 30.7214 54.0008 39.228 54.0008 49.7214C54.0008 60.2148 62.5074 68.7214 73.0008 68.7214L175.001 68.7214Z" fill="white"/>
</svg>
