<svg width="86" height="241" viewBox="0 0 86 241" fill="none" xmlns="http://www.w3.org/2000/svg">
<path d="M0 59.8545C12.1504 33.1983 26.7345 12.5721 42.8972 0C59.0419 12.5721 73.6499 33.1983 85.7943 59.8545C81.1528 70.1245 77.0552 80.6295 73.5183 91.3264C64.1185 81.9152 53.7859 76.7006 42.8972 76.7006C32.0084 76.7006 21.6757 81.9152 12.2759 91.3264C8.74164 80.6285 4.6441 70.1234 0 59.8545Z" fill="white"/>
<path d="M0 181.062C4.64408 170.792 8.74162 160.285 12.2759 149.586C21.6757 159.002 32.0084 164.211 42.8972 164.211C53.7859 164.211 64.1185 159.002 73.5183 149.586C77.0552 160.284 81.1528 170.791 85.7943 181.062C73.6499 207.71 59.0598 228.335 42.8972 240.912C26.7345 228.341 12.1504 207.71 0 181.062Z" fill="white"/>
<path d="M42.8973 140.926C53.9823 140.926 62.9684 131.761 62.9684 120.456C62.9684 109.151 53.9823 99.9863 42.8973 99.9863C31.8124 99.9863 22.8262 109.151 22.8262 120.456C22.8262 131.761 31.8124 140.926 42.8973 140.926Z" fill="white"/>
</svg>
