<svg width="254" height="255" viewBox="0 0 254 255" fill="none" xmlns="http://www.w3.org/2000/svg">
<path fill-rule="evenodd" clip-rule="evenodd" d="M71.4749 115.733H88.0751V138.564H71.4752L66.9339 146.464L33.5541 127.125L66.9258 107.819L71.4749 115.733ZM137.743 115.733H114.917V138.564H137.743V115.733ZM137.743 88.6987H114.917V72.2742L106.891 67.6295L126.352 33.794L145.793 67.6467L137.743 72.2742V88.6987ZM180.128 73.3371L139.424 2.50867C138.532 0.956782 136.879 0 135.089 0H117.572C115.782 0 114.129 0.956779 113.237 2.50867L72.3918 73.5831L2.49498 114.046C0.950803 114.94 0 116.589 0 118.374V135.918C0 137.702 0.95072 139.351 2.49478 140.245L72.3907 180.712L113.237 251.788C114.129 253.34 115.782 254.297 117.572 254.297H135.089C136.879 254.297 138.532 253.34 139.424 251.788L180.13 180.956L250.93 140.242C252.48 139.35 253.436 137.698 253.437 135.91L253.446 118.385C253.447 116.595 252.49 114.94 250.938 114.048L180.128 73.3371ZM164.759 115.733H181.18L185.791 107.716L219.656 127.172L185.814 146.616L181.186 138.564H164.759V115.733ZM137.743 165.598V182.023L145.779 186.643L126.334 220.503L106.886 186.671L114.917 182.023V165.598H137.743Z" fill="white"/>
</svg>
