<svg width="206" height="151" viewBox="0 0 206 151" fill="none" xmlns="http://www.w3.org/2000/svg">
<path fill-rule="evenodd" clip-rule="evenodd" d="M102.894 14.1186L85.9768 4.35157C75.9273 -1.45052 63.5457 -1.45051 53.4962 4.35158L16.2403 25.8613C6.19076 31.6634 0 42.3861 0 53.9903V97.0097C0 108.614 6.19078 119.337 16.2403 125.139L53.4962 146.648C63.5457 152.451 75.9272 152.451 85.9768 146.648L102.894 136.881L119.811 146.648C129.86 152.451 142.242 152.451 152.291 146.648L189.547 125.139C199.597 119.337 205.787 108.614 205.787 97.0097V53.9903C205.787 42.3861 199.597 31.6634 189.547 25.8613L152.291 4.35157C142.242 -1.45052 129.86 -1.45052 119.811 4.35157L102.894 14.1186ZM102.894 14.1186L82.5547 25.8613C72.5052 31.6634 66.3145 42.3861 66.3145 53.9903V97.0097C66.3145 108.614 72.5052 119.337 82.5547 125.139L102.894 136.881L123.233 125.139C133.282 119.337 139.473 108.614 139.473 97.0097V53.9903C139.473 42.3861 133.282 31.6634 123.233 25.8613L102.894 14.1186Z" fill="white"/>
<rect x="90" y="55" width="25" height="41" fill="white"/>
</svg>
