<svg width="138" height="266" viewBox="0 0 138 266" fill="none" xmlns="http://www.w3.org/2000/svg">
<path d="M19.2442 90.2735L69 61.547L118.756 90.2735V147.726L69 176.453L19.2442 147.726V90.2735Z" stroke="white" stroke-width="20"/>
<path d="M60.5 16.4545C65.7598 13.4177 72.2402 13.4177 77.5 16.4545L110.256 35.366C115.516 38.4028 118.756 44.0149 118.756 50.0885V87.9115C118.756 93.9851 115.516 99.5972 110.256 102.634L77.5 121.546C72.2402 124.582 65.7598 124.582 60.5 121.546L27.7442 102.634C22.4844 99.5972 19.2442 93.9851 19.2442 87.9115V50.0885C19.2442 44.0149 22.4844 38.4028 27.7442 35.366L60.5 16.4545Z" stroke="white" stroke-width="20"/>
<path d="M51.7668 182.785C62.7402 176.45 76.2598 176.45 87.2332 182.785C98.2065 189.121 104.966 200.829 104.966 213.5C104.966 226.171 98.2065 237.879 87.2332 244.215C76.2598 250.55 62.7402 250.55 51.7668 244.215C40.7935 237.879 34.0337 226.171 34.0337 213.5C34.0337 200.829 40.7935 189.121 51.7668 182.785Z" stroke="white" stroke-width="20"/>
</svg>
