<svg width="168" height="160" viewBox="0 0 168 160" fill="none" xmlns="http://www.w3.org/2000/svg">
<circle cx="84.1029" cy="45.1283" r="35.1283" stroke="white" stroke-width="20"/>
<circle cx="84.1029" cy="114.872" r="35.1283" stroke="white" stroke-width="20"/>
<path d="M157.036 61.7204C157.036 72.2846 148.62 80.6206 138.518 80.6206C128.416 80.6206 120 72.2846 120 61.7204C120 51.1563 128.416 42.8203 138.518 42.8203C148.62 42.8203 157.036 51.1563 157.036 61.7204Z" stroke="white" stroke-width="20"/>
<path d="M157.036 100.696C157.036 90.1315 148.62 81.7954 138.518 81.7954C128.416 81.7954 120 90.1315 120 100.696C120 111.26 128.416 119.596 138.518 119.596C148.62 119.596 157.036 111.26 157.036 100.696Z" stroke="white" stroke-width="20"/>
<path d="M10.0008 61.7204C10.0008 72.2846 18.4166 80.6206 28.5189 80.6206C38.6212 80.6206 47.0371 72.2846 47.0371 61.7204C47.0371 51.1563 38.6212 42.8203 28.5189 42.8203C18.4166 42.8203 10.0008 51.1563 10.0008 61.7204Z" stroke="white" stroke-width="20"/>
<path d="M10.0008 100.696C10.0008 90.1315 18.4166 81.7954 28.5189 81.7954C38.6212 81.7954 47.0371 90.1315 47.0371 100.696C47.0371 111.26 38.6212 119.596 28.5189 119.596C18.4166 119.596 10.0008 111.26 10.0008 100.696Z" stroke="white" stroke-width="20"/>
<circle cx="114.873" cy="80.0001" r="8.20514" fill="white"/>
<circle cx="53.334" cy="80.0001" r="8.20514" fill="white"/>
</svg>
