<svg width="144" height="176" viewBox="0 0 144 176" fill="none" xmlns="http://www.w3.org/2000/svg">
<path fill-rule="evenodd" clip-rule="evenodd" d="M25.2196 49.2662C33.6554 31.9399 51.4333 20 72 20C92.5667 20 110.345 31.9399 118.78 49.2662C106.197 38.5013 89.8578 32 72 32C54.1422 32 37.8028 38.5013 25.2196 49.2662ZM1.78413 88C0.616492 82.8542 0 77.4991 0 72C0 32.2355 32.2355 0 72 0C111.765 0 144 32.2355 144 72C144 77.4991 143.383 82.8542 142.216 88C143.383 93.1458 144 98.5009 144 104C144 143.764 111.765 176 72 176C32.2355 176 0 143.764 0 104C0 98.5009 0.616492 93.1458 1.78413 88ZM118.78 126.734C110.345 144.06 92.5667 156 72 156C51.4333 156 33.6554 144.06 25.2196 126.734C37.8028 137.499 54.1422 144 72 144C89.8578 144 106.197 137.499 118.78 126.734ZM121.492 88C114.744 108.89 95.1363 124 72 124C48.8637 124 29.2565 108.89 22.508 88C29.2565 67.1099 48.8637 52 72 52C95.1363 52 114.744 67.1099 121.492 88ZM72.5522 69.3344L72.5888 69.2988L76.0819 72.8805L98.5759 95.478L91.4886 102.533L72.448 83.4045L52.8358 102.532L45.8538 95.3729L69.0286 72.771L72.5167 69.2988L72.5522 69.3344Z" fill="white"/>
</svg>
