<svg width="159" height="214" viewBox="0 0 159 214" fill="none" xmlns="http://www.w3.org/2000/svg">
<path fill-rule="evenodd" clip-rule="evenodd" d="M115.425 36.7573L135.578 60.0291L136.616 45.5852L115.425 36.7573ZM132.483 103.138L130.927 85.2089L79.1479 25.4182L27.2648 84.8401L25.7255 106.276L27.178 127.722L79.891 188.591L130.687 128.141L132.483 103.138ZM117.156 175.333L136.727 152.042L138.003 166.747L117.156 175.333ZM89.3613 208.409L153.766 181.885C156.998 180.554 158.992 177.278 158.689 173.796L152.545 102.989L157.183 38.4025C157.429 34.9717 155.455 31.7675 152.28 30.4447L86.0667 2.86082C84.2985 0.924387 81.7263 0.00811929 79.1994 0.313759C76.6732 -0.00247782 74.0968 0.903464 72.3205 2.83319L5.99626 30.1481C2.81578 31.4579 0.828574 34.6541 1.06101 38.0859L5.6769 106.236L0.784349 174.369C0.537987 177.8 2.51221 181.004 5.68735 182.327L71.9008 209.911C73.522 211.686 75.8191 212.604 78.1376 212.509L78.4768 212.65C81.7034 213.995 85.4292 213.088 87.678 210.412L89.3613 208.409ZM42.5426 176.014L22.3888 152.742L21.3516 167.186L42.5426 176.014ZM22.5775 59.7998L42.825 36.6103L21.599 45.352L22.5775 59.7998ZM78.0268 97.4774L69.6617 102.365L69.7116 112.053L78.1266 116.853L86.4917 111.966L86.4418 102.278L78.0268 97.4774ZM78.2455 139.947L106.551 123.41L106.382 90.6284L77.9079 74.3837L49.6025 90.9208L49.7713 123.702L78.2455 139.947Z" fill="white"/>
</svg>
