<svg width="107" height="180" viewBox="0 0 107 180" fill="none" xmlns="http://www.w3.org/2000/svg">
<path fill-rule="evenodd" clip-rule="evenodd" d="M20 53.5C20 34.9985 34.9985 20 53.5 20C72.0015 20 87 34.9985 87 53.5C87 72.0015 72.0015 87 53.5 87C34.9985 87 20 72.0015 20 53.5ZM53.5 0C23.9528 0 0 23.9528 0 53.5C0 82.9496 23.7947 106.842 53.2071 106.999L45.0953 119.581L16.0834 164.581L6.14297 180H24.4881H82.5118H100.857L90.9165 164.581L61.9047 119.581L53.7929 106.999C83.2053 106.842 107 82.9496 107 53.5C107 23.9528 83.0472 0 53.5 0ZM53.5 143.455L64.1667 160H42.8333L53.5 143.455Z" fill="white"/>
</svg>
