<svg width="166" height="183" viewBox="0 0 166 183" fill="none" xmlns="http://www.w3.org/2000/svg">
<path fill-rule="evenodd" clip-rule="evenodd" d="M118.793 39.506C118.786 39.3354 118.871 39.1747 119.014 39.0816L135.142 28.5851C140.161 25.3189 146.919 27.8058 147.59 33.756C147.758 35.2477 147.875 36.7478 147.94 38.2537C148.44 49.8824 145.808 61.432 140.319 71.6959C138.229 75.604 133.105 76.2302 129.432 73.751C128.025 72.8016 126.587 71.8939 125.119 71.0295C122.601 69.5466 120.014 68.202 117.369 66.9988C114.049 65.4886 112.873 61.1547 114.593 57.9385C117.618 52.2813 119.069 45.9154 118.793 39.506ZM49.3962 66.6554C52.3613 65.3425 53.4071 61.4964 51.8114 58.6734C48.6545 53.0885 47.0551 46.7584 47.1804 40.3442C47.1837 40.1736 47.095 40.0149 46.9498 39.9251L30.5803 29.8091C25.4865 26.6612 18.7888 29.3056 18.2569 35.2699C18.1236 36.7652 18.0418 38.2676 18.0124 39.7746C17.7851 51.4118 20.6868 62.8966 26.4144 73.0293C28.1911 76.1724 32.3598 76.6881 35.315 74.6138C37.0376 73.4046 38.8094 72.2588 40.6271 71.1796C43.4667 69.4937 46.3953 67.9841 49.3962 66.6554ZM13.3076 97.4711C15.5324 94.0315 15.5324 89.5609 13.3076 86.1212C12.413 84.738 11.5581 83.326 10.7446 81.8868C3.43089 68.9481 -0.274358 54.283 0.0158396 39.4231C0.234185 28.243 2.70818 17.2613 7.24765 7.12352C9.73041 1.57887 16.5838 -0.000250594 21.7517 3.19344L59.7377 26.6681C64.21 29.4319 65.2796 35.4393 65.1769 40.6957C65.1146 43.8872 65.9104 47.037 67.4812 49.8159C69.052 52.5948 71.3402 54.901 74.1068 56.4935C76.8733 58.086 80.0167 58.9064 83.2087 58.869C86.4006 58.8317 89.524 57.9379 92.2525 56.2811C94.981 54.6242 97.2146 52.2652 98.7199 49.4502C100.225 46.6353 100.947 43.4678 100.81 40.2786C100.584 35.026 101.513 28.9952 105.919 26.1275L143.346 1.77011C148.437 -1.54367 155.326 -0.125402 157.938 5.3596C162.713 15.3884 165.444 26.3091 165.924 37.4811C166.561 52.33 163.201 67.0779 156.192 80.1842C155.105 82.2156 153.938 84.1961 152.692 86.1212C150.468 89.5609 150.468 94.0315 152.692 97.4712C153.736 99.0843 154.725 100.736 155.657 102.425C162.842 115.436 166.402 130.137 165.964 144.993C165.635 156.17 163.052 167.127 158.412 177.219C155.874 182.739 149.005 184.25 143.869 181.005L106.118 157.155C101.674 154.346 100.664 148.329 100.819 143.074C100.913 139.883 100.148 136.725 98.6051 133.931C97.062 131.137 94.7968 128.808 92.0462 127.188C89.2956 125.568 86.1605 124.716 82.9683 124.722C79.7762 124.728 76.6441 125.591 73.8993 127.22C71.1544 128.85 68.8976 131.187 67.3643 133.986C65.8312 136.786 65.0779 139.947 65.1832 143.137C65.3567 148.391 64.3682 154.413 59.9336 157.237L22.2676 181.221C17.1432 184.484 10.2691 182.998 7.71181 177.487C3.03608 167.411 0.414268 156.464 0.0452236 145.288C-0.445289 130.433 3.06192 115.72 10.2005 102.683C11.1744 100.905 12.2111 99.1665 13.3076 97.4711ZM116.737 86.9894C120.415 89.223 120.415 94.3694 116.737 96.603C106.788 102.644 95.3995 105.903 83.7608 106.039C72.1222 106.176 60.6605 103.184 50.5729 97.3774C50.3196 97.2316 50.0674 97.0842 49.8164 96.9352C45.8316 94.5694 45.8316 89.023 49.8164 86.6572C59.8248 80.7151 71.2451 77.5694 82.8845 77.5487C94.5239 77.528 105.955 80.6331 115.985 86.5397C116.237 86.688 116.487 86.8379 116.737 86.9894ZM130.155 109.347C133.413 107.098 137.987 107.661 139.9 111.127C145.527 121.316 148.315 132.829 147.972 144.463C147.927 145.97 147.831 147.471 147.683 148.965C147.092 154.924 140.368 157.501 135.306 154.303L119.037 144.025C118.893 143.934 118.806 143.774 118.811 143.604C119 137.191 117.463 130.845 114.362 125.229C112.712 122.241 113.813 118.188 116.929 116.792C120.066 115.387 123.122 113.784 126.079 111.989C127.466 111.147 128.825 110.266 130.155 109.347ZM48.9551 116.74C52.1249 118.166 53.2459 122.293 51.5765 125.341C48.4952 130.968 46.9813 137.319 47.193 143.731C47.1987 143.902 47.1121 144.061 46.9681 144.153L30.7365 154.489C25.6856 157.705 18.9529 155.151 18.3407 149.195C18.1872 147.701 18.0852 146.2 18.0354 144.694C17.6513 133.061 20.3979 121.538 25.9884 111.329C27.9497 107.747 32.668 107.168 36.0349 109.478C37.8367 110.715 39.6906 111.882 41.5931 112.978C43.9896 114.357 46.4469 115.612 48.9551 116.74Z" fill="white"/>
</svg>
