<svg width="192" height="198" viewBox="0 0 192 198" fill="none" xmlns="http://www.w3.org/2000/svg">
<path fill-rule="evenodd" clip-rule="evenodd" d="M159.457 29.4177C163.705 23.1902 162.253 14.7164 156.173 10.2591C149.794 5.58228 140.809 7.12251 136.352 13.6569L107.023 56.6533C104.428 60.4574 100.121 62.7332 95.5163 62.7332C90.859 62.7332 86.5098 60.4055 83.9264 56.5303L55.0572 13.2242C50.8758 6.95183 42.4753 5.12243 36.0643 9.08813C29.3375 13.2493 27.3977 22.1567 31.7851 28.7382L37.2004 36.8616C44.5727 47.9206 36.645 62.7334 23.3539 62.7335L13.395 62.7335C9.97855 62.7335 7.17696 65.4415 7.06081 68.8559C6.93894 72.4386 9.81025 75.4092 13.395 75.4092L50.5437 75.4091C58.2616 75.409 65.4688 79.2663 69.7497 85.6881L70.4091 86.6771C75.2287 93.9069 75.1785 103.338 70.2822 110.516C66.3106 116.339 59.718 119.822 52.6699 119.822L15.1039 119.822C11.6875 119.822 8.88595 122.53 8.7698 125.945C8.64792 129.527 11.5192 132.498 15.104 132.498L25.0672 132.498C37.8976 132.498 45.4885 146.864 38.2585 157.464L31.0438 168.041C26.7958 174.268 28.2484 182.742 34.3279 187.199C40.707 191.876 49.6922 190.336 54.1494 183.801L85.8385 137.345C87.9071 134.312 91.3408 132.498 95.0116 132.498C98.7244 132.498 102.192 134.353 104.251 137.443L135.444 184.234C139.625 190.507 148.026 192.336 154.437 188.37C161.164 184.209 163.103 175.302 158.716 168.72L153.005 160.153C145.124 148.332 153.598 132.498 167.806 132.497L178.874 132.497C182.29 132.497 185.092 129.789 185.208 126.375C185.33 122.792 182.459 119.822 178.874 119.822L137.288 119.822C130.31 119.822 123.794 116.335 119.923 110.529C115.206 103.452 115.255 94.2197 120.048 87.1934L121.071 85.6932C125.46 79.2584 132.746 75.4087 140.535 75.4087L177.165 75.4085C180.581 75.4085 183.383 72.7006 183.499 69.2862C183.621 65.7035 180.75 62.7329 177.165 62.7329L167.114 62.7329C154.215 62.733 146.584 48.2901 153.853 37.6345L159.457 29.4177Z" fill="white"/>
</svg>
