<svg width="210" height="184" viewBox="0 0 210 184" fill="none" xmlns="http://www.w3.org/2000/svg">
<path fill-rule="evenodd" clip-rule="evenodd" d="M40.2709 177.048C41.1144 178.23 42.1574 179.3 43.3908 180.204C49.7699 184.881 58.7551 183.341 63.2123 176.806L75.401 158.938C89.3417 138.5 119.534 138.661 133.257 159.246L145.252 177.239C149.433 183.512 157.834 185.341 164.245 181.375C170.972 177.214 172.911 168.307 168.524 161.725L143.257 123.823C141.294 120.879 139.628 117.8 138.259 114.629C141.966 114.787 145.692 115.304 149.39 116.196L192.377 126.567C199.705 128.335 207.116 123.976 209.132 116.712C211.247 109.09 206.626 101.233 198.936 99.3776L178.444 94.4338C154.76 88.7203 144.381 60.8572 158.555 41.0418L170.822 23.8926C175.207 17.7613 173.944 9.25721 167.965 4.66559C166.825 3.78933 165.593 3.11676 164.313 2.64147C158.016 -1.25577 149.661 0.436784 145.415 6.66184L133.536 24.0767C119.807 44.2029 90.0743 44.0447 76.5608 23.7734L64.8652 6.22916C60.6839 -0.0432561 52.2833 -1.87266 45.8724 2.09305C39.1455 6.25417 37.2057 15.1616 41.5931 21.7431L66.4142 58.9766C68.299 61.804 69.9065 64.7569 71.2367 67.7981C68.1781 67.5697 65.1114 67.0929 62.0636 66.3577L17.2682 55.551C9.94003 53.7831 2.52938 58.1417 0.513353 65.4055C-1.60202 73.0273 3.01967 80.8851 10.7089 82.7401L31.7356 87.8127C55.7848 93.6144 66.3242 121.908 51.9315 142.03L39.35 159.619C35.4871 165.019 36.0067 172.26 40.2709 177.048Z" fill="white"/>
</svg>
