<svg width="175" height="182" viewBox="0 0 175 182" fill="none" xmlns="http://www.w3.org/2000/svg">
<path fill-rule="evenodd" clip-rule="evenodd" d="M125.388 59.0821C125.388 80.6665 107.89 98.1642 86.3056 98.1642C64.7212 98.1642 47.2235 80.6665 47.2235 59.0821C47.2235 37.4976 64.7212 20 86.3056 20C107.89 20 125.388 37.4976 125.388 59.0821ZM109.601 113.394C130.648 104.355 145.388 83.4398 145.388 59.0821C145.388 26.452 118.936 0 86.3056 0C53.6755 0 27.2235 26.452 27.2235 59.0821C27.2235 83.7744 42.3711 104.929 63.8808 113.76C54.8061 120.71 48.954 131.657 48.954 143.97C48.954 164.974 65.9805 182 86.9838 182C107.987 182 125.014 164.974 125.014 143.97C125.014 131.439 118.952 120.323 109.601 113.394ZM105.014 143.97C105.014 153.928 96.9415 162 86.9838 162C77.0262 162 68.954 153.928 68.954 143.97C68.954 134.013 77.0262 125.94 86.9838 125.94C96.9415 125.94 105.014 134.013 105.014 143.97ZM160.328 134.462L138.597 112.731L152.739 98.5889L174.47 120.32L160.328 134.462ZM36.7309 112.731L14.9996 134.462L0.857422 120.32L22.5888 98.5889L36.7309 112.731Z" fill="white"/>
</svg>
