<svg width="189" height="239" viewBox="0 0 189 239" fill="none" xmlns="http://www.w3.org/2000/svg">
<path fill-rule="evenodd" clip-rule="evenodd" d="M188.905 107.86V61.935H181.502C167.155 61.9334 153.397 56.251 143.252 46.1375C133.107 36.0241 127.408 22.3076 127.406 8.005V0H61.5107V8.005C61.5107 22.3081 55.8113 36.0255 45.6665 46.1393C35.5216 56.2531 21.7622 61.935 7.41516 61.935H0V107.86H64.5113C67.0995 102.098 71.3048 97.2064 76.6197 93.7746C81.9346 90.3428 88.132 88.5175 94.4643 88.5191C100.799 88.5152 106.999 90.3395 112.316 93.7714C117.633 97.2034 121.84 102.096 124.429 107.86H188.905ZM188.905 177.223V130.691H126.094C124.168 137.574 120.034 143.638 114.324 147.958C108.615 152.277 101.644 154.614 94.4762 154.611C87.3089 154.614 80.3377 152.277 74.6282 147.958C68.9187 143.638 64.785 137.574 62.8589 130.691H0V177.223H7.41516C21.7612 177.223 35.5196 182.904 45.6643 193.016C55.8091 203.129 61.5091 216.845 61.5107 231.147V238.551H127.382V231.147C127.385 216.845 133.086 203.13 143.23 193.018C153.375 182.906 167.132 177.224 181.478 177.223H188.905Z" fill="white"/>
</svg>
