<svg width="164" height="77" viewBox="0 0 164 77" fill="none" xmlns="http://www.w3.org/2000/svg">
<path d="M110.98 56.6797C107.995 54.2726 105.207 51.6423 102.642 48.8125C95.9987 51.2478 88.9561 52.4868 81.8574 52.4691C74.7587 52.4868 67.7157 51.2478 61.0723 48.8125C58.5076 51.6423 55.7198 54.2726 52.7344 56.6797C61.2974 63.5418 71.2066 68.6335 81.8574 71.6441C92.5082 68.6335 102.417 63.5418 110.98 56.6797Z" fill="white"/>
<path d="M159.54 26.7084C155.657 16.5495 149.51 7.41428 141.568 0C138.622 2.78767 135.469 5.3459 132.135 7.65234C128.026 10.4821 123.675 12.9409 119.132 15C107.412 20.2776 94.7018 22.9863 81.8529 22.9451C69.0064 22.9883 56.2985 20.2816 44.5793 15.006C40.0366 12.9475 35.6855 10.4886 31.5768 7.65832C28.242 5.35042 25.0867 2.79229 22.1379 0.00597953C14.1996 7.42213 8.0545 16.5569 4.1713 26.7143C1.412 34.0479 -0.00118564 41.8215 7.46368e-07 49.6594C0.00609262 58.8658 1.95148 67.9671 5.70876 76.3678C9.62669 67.7109 15.2098 59.9138 22.1379 53.4229C25.0853 50.6367 28.2408 48.0805 31.5768 45.7765C45.4553 36.1887 62.9032 30.4778 81.8588 30.4778C100.814 30.4778 118.262 36.1887 132.141 45.7765C135.476 48.079 138.63 50.6354 141.574 53.4229C148.506 59.9104 154.089 67.7083 158.003 76.3678C161.765 67.9685 163.712 58.8665 163.718 49.6594C163.718 41.8191 162.302 34.0434 159.54 26.7084Z" fill="white"/>
</svg>
