<svg width="182" height="243" viewBox="0 0 182 243" fill="none" xmlns="http://www.w3.org/2000/svg">
<path d="M150.333 182.652C154.365 182.652 158.358 181.858 162.083 180.315C165.808 178.771 169.192 176.509 172.043 173.657C174.894 170.805 177.155 167.42 178.698 163.694C180.24 159.968 181.034 155.974 181.033 151.942C181.031 143.799 177.796 135.991 172.039 130.234C166.282 124.477 158.474 121.243 150.333 121.243C142.192 121.243 134.385 124.477 128.629 130.235C122.873 135.992 119.639 143.8 119.639 151.942C119.638 155.974 120.431 159.967 121.973 163.692C123.515 167.418 125.776 170.803 128.626 173.655C131.477 176.507 134.86 178.769 138.585 180.313C142.309 181.857 146.301 182.651 150.333 182.652ZM150.333 134.524C152.621 134.523 154.886 134.973 157 135.848C159.114 136.723 161.035 138.006 162.653 139.623C164.272 141.24 165.556 143.161 166.432 145.274C167.308 147.388 167.759 149.654 167.76 151.942C167.76 156.564 165.924 160.998 162.656 164.267C159.388 167.535 154.955 169.372 150.333 169.372C145.711 169.372 141.278 167.535 138.01 164.267C134.741 160.998 132.905 156.564 132.905 151.942C132.909 147.321 134.746 142.891 138.014 139.625C141.282 136.359 145.713 134.524 150.333 134.524Z" fill="white"/>
<path d="M90.5143 182.652C94.5464 182.652 98.539 181.858 102.264 180.315C105.989 178.771 109.374 176.509 112.225 173.657C115.076 170.805 117.337 167.42 118.879 163.694C120.422 159.968 121.215 155.974 121.214 151.942C121.213 143.799 117.978 135.991 112.22 130.234C106.463 124.477 98.6554 121.243 90.5143 121.243C82.3738 121.243 74.5667 124.477 68.8104 130.235C63.0542 135.992 59.8203 143.8 59.8203 151.942C59.8195 155.974 60.6128 159.967 62.1549 163.692C63.697 167.418 65.9577 170.803 68.8079 173.655C71.6582 176.507 75.0421 178.769 78.7665 180.313C82.4909 181.857 86.4828 182.651 90.5143 182.652ZM90.5143 134.524C92.8022 134.523 95.0677 134.973 97.1817 135.848C99.2956 136.723 101.217 138.006 102.835 139.623C104.453 141.24 105.737 143.161 106.613 145.274C107.49 147.388 107.941 149.654 107.942 151.942C107.942 156.564 106.106 160.998 102.837 164.267C99.5691 167.535 95.1364 169.372 90.5143 169.372C88.226 169.372 85.9601 168.921 83.8461 168.045C81.732 167.169 79.8112 165.885 78.1934 164.266C76.5756 162.647 75.2925 160.726 74.4174 158.611C73.5422 156.497 73.0922 154.23 73.0929 151.942C73.0945 147.322 74.9307 142.891 78.1977 139.625C81.4647 136.359 85.8949 134.524 90.5143 134.524Z" fill="white"/>
<path d="M30.6999 182.652C34.7315 182.651 38.7234 181.857 42.4478 180.313C46.1722 178.769 49.5561 176.507 52.4063 173.655C55.2565 170.803 57.5171 167.418 59.0592 163.692C60.6013 159.967 61.3946 155.974 61.3938 151.942C61.3922 143.8 58.1579 135.993 52.402 130.236C46.6462 124.48 38.8399 121.245 30.6999 121.243C26.6686 121.242 22.6766 122.036 18.952 123.578C15.2273 125.121 11.843 127.382 8.99221 130.232C6.14138 133.083 3.87991 136.468 2.33703 140.192C0.79414 143.917 5.0708e-07 147.91 5.83761e-07 151.942C-0.000785701 155.974 0.792738 159.968 2.3352 163.694C3.87766 167.42 6.1389 170.805 8.98972 173.657C11.8405 176.509 15.2251 178.771 18.9502 180.315C22.6752 181.858 26.6678 182.652 30.6999 182.652ZM30.6999 134.524C35.3198 134.524 39.7507 136.359 43.0186 139.625C46.2865 142.891 48.124 147.321 48.1272 151.942C48.1272 156.564 46.2911 160.998 43.0229 164.267C39.7546 167.535 35.3219 169.372 30.6999 169.372C26.0779 169.372 21.6452 167.535 18.3769 164.267C15.1087 160.998 13.2726 156.564 13.2726 151.942C13.2734 149.654 13.7248 147.388 14.601 145.274C15.4773 143.161 16.7611 141.24 18.3794 139.623C19.9977 138.006 21.9186 136.723 24.0326 135.848C26.1465 134.973 28.4121 134.523 30.6999 134.524Z" fill="white"/>
<path d="M121.214 92.1107C121.214 88.0781 120.419 84.0853 118.876 80.36C117.332 76.6347 115.071 73.25 112.22 70.3991C109.369 67.5482 105.985 65.287 102.261 63.7445C98.5366 62.202 94.5451 61.4084 90.5143 61.4092C82.3748 61.4092 74.5686 64.6437 68.8126 70.4011C63.0565 76.1586 59.8219 83.9676 59.8203 92.1107C59.8203 100.255 63.0542 108.066 68.8104 113.824C74.5667 119.583 82.3738 122.818 90.5143 122.818C94.5456 122.819 98.5376 122.025 102.262 120.482C105.987 118.94 109.371 116.678 112.222 113.826C115.073 110.975 117.334 107.589 118.877 103.863C120.42 100.137 121.214 96.1437 121.214 92.1107ZM73.0963 92.1107C73.0963 87.4886 74.9313 83.0558 78.1976 79.7869C81.4639 76.518 85.8942 74.6807 90.5143 74.6791C95.1355 74.6791 99.5673 76.5158 102.835 79.7849C106.103 83.0539 107.938 87.4875 107.938 92.1107C107.938 96.7338 106.103 101.168 102.835 104.437C99.5673 107.706 95.1355 109.543 90.5143 109.543C88.2265 109.543 85.961 109.091 83.8474 108.215C81.7337 107.339 79.8133 106.055 78.1958 104.436C76.5784 102.818 75.2955 100.896 74.4205 98.781C73.5455 96.6661 73.0956 94.3995 73.0963 92.1107Z" fill="white"/>
<path d="M121.214 30.7046C121.214 26.6719 120.42 22.6786 118.877 18.9529C117.334 15.2273 115.073 11.8421 112.222 8.99085C109.371 6.13957 105.987 3.87813 102.262 2.33542C98.5376 0.792717 94.5456 -0.000785825 90.5143 5.8396e-07C82.3738 5.8396e-07 74.5667 3.23493 68.8104 8.99319C63.0542 14.7514 59.8203 22.5612 59.8203 30.7046C59.8203 38.848 63.0542 46.6577 68.8104 52.416C74.5667 58.1742 82.3738 61.4092 90.5143 61.4092C94.5456 61.41 98.5376 60.6165 102.262 59.0738C105.987 57.5311 109.371 55.2696 112.222 52.4183C115.073 49.5671 117.334 46.1819 118.877 42.4562C120.42 38.7306 121.214 34.7373 121.214 30.7046ZM73.0963 30.7046C73.0956 28.4159 73.5455 26.1495 74.4205 24.0348C75.2955 21.9202 76.5784 19.9985 78.1958 18.3799C79.8133 16.7613 81.7337 15.4774 83.8474 14.6014C85.961 13.7253 88.2265 13.2746 90.5143 13.2746C95.1355 13.2746 99.5673 15.1108 102.835 18.3796C106.103 21.6484 107.938 26.0818 107.938 30.7046C107.938 35.3273 106.103 39.7608 102.835 43.0296C99.5673 46.2984 95.1355 48.1346 90.5143 48.1346C88.2265 48.1346 85.961 47.6838 83.8474 46.8078C81.7337 45.9318 79.8133 44.6479 78.1958 43.0293C76.5784 41.4107 75.2955 39.489 74.4205 37.3743C73.5455 35.2597 73.0956 32.9933 73.0963 30.7046Z" fill="white"/>
<path d="M121.214 211.783C121.214 207.75 120.42 203.757 118.877 200.031C117.334 196.306 115.073 192.92 112.222 190.069C109.371 187.218 105.987 184.956 102.262 183.414C98.5376 181.871 94.5456 181.077 90.5143 181.078C82.3738 181.078 74.5667 184.313 68.8104 190.071C63.0542 195.829 59.8203 203.639 59.8203 211.783C59.8203 219.926 63.0542 227.736 68.8104 233.494C74.5667 239.252 82.3738 242.487 90.5143 242.487C94.5456 242.488 98.5376 241.694 102.262 240.152C105.987 238.609 109.371 236.347 112.222 233.496C115.073 230.645 117.334 227.26 118.877 223.534C120.42 219.809 121.214 215.815 121.214 211.783ZM73.0963 211.783C73.0956 209.494 73.5455 207.228 74.4205 205.113C75.2955 202.998 76.5784 201.077 78.1958 199.458C79.8133 197.84 81.7337 196.556 83.8474 195.68C85.961 194.804 88.2265 194.353 90.5143 194.353C95.1355 194.353 99.5673 196.189 102.835 199.458C106.103 202.727 107.938 207.16 107.938 211.783C107.938 216.405 106.103 220.839 102.835 224.107C99.5673 227.376 95.1355 229.213 90.5143 229.213C88.2265 229.213 85.961 228.762 83.8474 227.886C81.7337 227.01 79.8133 225.726 78.1958 224.107C76.5784 222.489 75.2955 220.567 74.4205 218.452C73.5455 216.338 73.0956 214.071 73.0963 211.783Z" fill="white"/>
</svg>
