<svg width="144" height="188" viewBox="0 0 144 188" fill="none" xmlns="http://www.w3.org/2000/svg">
<path fill-rule="evenodd" clip-rule="evenodd" d="M108.821 6.91273C112.935 0.156492 121.828 -1.84645 128.441 2.49418C134.743 6.63097 136.632 15.0183 132.711 21.4573L110.206 58.423C109.327 59.8675 110.377 61.716 112.068 61.7003C128.912 61.5432 142.694 75.0706 142.851 91.9145C143.008 108.758 129.481 122.541 112.637 122.698C111.946 122.704 111.555 123.492 111.967 124.046L139.177 160.611C143.899 166.957 142.422 175.953 135.92 180.456C129.722 184.748 121.238 183.356 116.738 177.308L77.9259 125.15C76.9376 123.821 75.3743 123.045 73.7188 123.061C71.9271 123.077 70.271 124.018 69.3393 125.548L35.53 181.082C31.4167 187.838 22.5233 189.841 15.9108 185.5C9.60889 181.363 7.71994 172.976 11.64 166.537L34.6474 128.746C36.0679 126.413 34.3718 123.427 31.6403 123.453C14.7963 123.61 1.01427 110.083 0.857187 93.2387C0.700102 76.3948 14.2275 62.6127 31.0714 62.4556C31.1551 62.4548 31.2025 62.3594 31.1525 62.2923L5.17511 27.3821C0.453103 21.0363 1.92954 12.0405 8.43217 7.53699C14.6294 3.24498 23.1133 4.63739 27.6136 10.6851L63.226 58.5435C64.9035 60.7978 67.5569 62.1154 70.3668 62.0892C73.4079 62.0608 76.2187 60.464 77.8002 57.8663L108.821 6.91273ZM45.4887 81.5582C42.1281 77.042 36.8125 74.4026 31.1833 74.4551C20.9665 74.5504 12.7614 82.91 12.8567 93.1268C12.9519 103.344 21.3116 111.549 31.5284 111.453L36.5016 111.407C41.9441 111.356 46.9746 108.499 49.805 103.85C53.1423 98.3679 52.819 91.4092 48.9878 86.2605L45.4887 81.5582ZM96.4748 103.225C100.008 107.974 105.607 110.763 111.525 110.707L112.525 110.698C122.742 110.603 130.947 102.243 130.852 92.0264C130.756 81.8096 122.397 73.6045 112.18 73.6997L111.107 73.7097C104.723 73.7693 98.8223 77.1214 95.5023 82.5747C91.5876 89.0048 91.9807 97.186 96.4748 103.225Z" fill="white"/>
</svg>
