<svg width="133" height="199" viewBox="0 0 133 199" fill="none" xmlns="http://www.w3.org/2000/svg">
<path fill-rule="evenodd" clip-rule="evenodd" d="M92.1444 35.1278C89.6516 39.0426 84.6066 40.3678 80.2859 38.6733C70.1591 34.7019 59.3133 32.7456 48.3618 32.9595C46.117 33.0033 45.0101 30.21 46.8767 28.9622C48.4629 27.9019 50.0988 26.9093 51.7806 25.9884C61.9896 20.3979 73.5124 17.6513 85.1455 18.0354C86.652 18.0852 88.1532 18.1872 89.6465 18.3407C95.6031 18.9529 98.1569 25.6856 94.9407 30.7365L92.1444 35.1278ZM107.07 45.2007C104.629 49.0342 105.47 54.05 108.683 57.2642C113.81 62.3933 118.266 68.1951 121.916 74.5367C129.331 87.4178 133.151 102.054 132.977 116.915C132.803 131.777 128.641 146.319 120.927 159.023C113.213 171.727 102.229 182.127 89.1229 189.135C76.0166 196.144 61.2687 199.505 46.4197 198.867C35.2478 198.387 24.327 195.657 14.2983 190.881C8.81326 188.269 7.39499 181.381 10.7088 176.289L25.5389 153.502C28.0281 149.677 27.2195 144.631 24.0092 141.387C19.1972 136.525 14.9834 131.066 11.4812 125.119C3.93903 112.312 -0.0259399 97.7152 0.000473022 82.8525C0.0268707 67.9899 4.04369 53.407 11.6313 40.6271C19.219 27.8472 30.0991 17.3391 43.1351 10.2005C56.1712 3.06192 70.885 -0.445288 85.7396 0.0452235C96.9157 0.414267 107.863 3.03608 117.939 7.71181C123.449 10.2691 124.936 17.1432 121.673 22.2676L107.07 45.2007ZM85.4448 165.964C87.4402 165.905 88.4337 168.389 86.7882 169.519C84.8136 170.876 82.7597 172.126 80.6346 173.262C70.3706 178.751 58.8211 181.383 47.1924 180.884C45.6865 180.819 44.1864 180.702 42.6946 180.534C36.7444 179.863 34.2576 173.105 37.5238 168.086L40.4659 163.565C42.9872 159.691 48.0168 158.409 52.3114 160.118C62.807 164.295 74.0805 166.299 85.4448 165.964Z" fill="white"/>
</svg>
