<svg width="133" height="194" viewBox="0 0 133 194" fill="none" xmlns="http://www.w3.org/2000/svg">
<path fill-rule="evenodd" clip-rule="evenodd" d="M67.2803 152.24C72.4133 153.315 76.2681 157.867 76.2681 163.32V175.5C76.2681 185.717 84.5508 194 94.7681 194C104.985 194 113.268 185.717 113.268 175.5V161.809C113.268 156.392 117.66 152 123.077 152C128.495 152 132.887 147.608 132.887 142.191V52.8093C132.887 47.3918 128.495 43 123.077 43C117.66 43 113.268 38.6084 113.268 33.1907V18.5C113.268 8.28271 104.985 0 94.7681 0C84.5508 0 76.2681 8.28271 76.2681 18.5V31.6804C76.2681 37.1328 72.4133 41.6846 67.2803 42.7595C62.906 41.7727 59.6392 37.8633 59.6392 33.1907V18.5C59.6392 8.28271 51.3564 0 41.1392 0C30.9219 0 22.6392 8.28271 22.6392 18.5V31.6804C22.6392 37.9321 17.5713 43 11.3196 43C5.06812 43 0 48.0679 0 54.3196V140.68C0 146.932 5.06812 152 11.3196 152C17.5713 152 22.6392 157.068 22.6392 163.32V175.5C22.6392 185.717 30.9219 194 41.1392 194C51.3564 194 59.6392 185.717 59.6392 175.5V161.809C59.6392 157.137 62.906 153.227 67.2803 152.24ZM54.6392 29.5C54.6392 36.9558 48.5952 43 41.1392 43C33.6833 43 27.6392 36.9558 27.6392 29.5V18.5C27.6392 11.0442 33.6833 5 41.1392 5C48.595 5 54.6392 11.0442 54.6392 18.5V29.5ZM41.1392 152C33.6833 152 27.6392 158.044 27.6392 165.5V175.5C27.6392 182.956 33.6833 189 41.1392 189C48.595 189 54.6392 182.956 54.6392 175.5V165.5C54.6392 158.044 48.595 152 41.1392 152ZM108.268 29.5C108.268 36.9558 102.224 43 94.7681 43C87.3123 43 81.2681 36.9558 81.2681 29.5V18.5C81.2681 11.0442 87.3123 5 94.7681 5C102.224 5 108.268 11.0442 108.268 18.5V29.5ZM94.7681 152C87.3123 152 81.2681 158.044 81.2681 165.5V175.5C81.2681 182.956 87.3123 189 94.7681 189C102.224 189 108.268 182.956 108.268 175.5V165.5C108.268 158.044 102.224 152 94.7681 152Z" fill="white"/>
</svg>
