<svg width="192" height="186" viewBox="0 0 192 186" fill="none" xmlns="http://www.w3.org/2000/svg">
<path fill-rule="evenodd" clip-rule="evenodd" d="M52.7094 155.812L63.7948 123.725C62.3144 121.951 60.9733 120.049 59.7897 118.035C54.6674 109.319 52.8233 99.0607 54.5892 89.106C56.355 79.1513 61.6148 70.1534 69.4227 63.7306C77.2305 57.3078 87.0738 53.8817 97.1822 54.0685C107.291 54.2554 117.001 58.0429 124.566 64.7498C132.131 71.4568 137.055 80.643 138.451 90.6561C139.848 100.669 137.626 110.852 132.185 119.373C130.928 121.342 129.518 123.193 127.973 124.912L137.865 157.386C146.036 151.819 153.067 144.619 158.47 136.157C167.908 121.377 171.761 103.715 169.339 86.3476C166.916 68.98 158.376 53.0468 145.255 41.4137C132.133 29.7807 115.291 23.2114 97.7586 22.8873C80.2258 22.5632 63.1528 28.5057 49.6103 39.6459C36.0679 50.786 26.9448 66.3928 23.882 83.6589C20.8191 100.925 24.0177 118.718 32.9022 133.836C37.989 142.492 44.7489 149.947 52.7094 155.812ZM125.547 127.434C125.546 127.433 125.554 127.422 125.572 127.4C125.556 127.423 125.547 127.434 125.547 127.434ZM66.1257 126.335C66.1252 126.335 66.1169 126.324 66.1019 126.301C66.1187 126.323 66.1262 126.335 66.1257 126.335ZM121.436 178.723C122.989 183.822 128.407 186.741 133.323 184.682C151.195 177.197 166.447 164.419 176.956 147.96C189.204 128.779 194.205 105.857 191.061 83.3175C187.917 60.7778 176.834 40.0996 159.804 25.0022C142.775 9.90478 120.918 1.37903 98.1639 0.958452C75.4098 0.537855 53.2524 8.25003 35.6769 22.7078C18.1014 37.1655 6.26143 57.42 2.2865 79.8281C-1.68843 102.236 2.4626 125.327 13.993 144.948C23.8866 161.784 38.6563 175.116 56.2392 183.257C61.0757 185.496 66.5975 182.779 68.3379 177.742L86.5429 125.047C87.8741 121.193 86.462 117.133 84.0673 113.721C83.3314 112.673 82.5026 111.685 81.6321 110.784C80.5129 109.626 79.5265 108.331 78.6989 106.923C76.2224 102.709 75.3309 97.7495 76.1846 92.9368C77.0383 88.124 79.5813 83.7738 83.3561 80.6686C87.1309 77.5634 91.8898 75.9071 96.7769 75.9974C101.664 76.0877 106.358 77.9189 110.016 81.1614C113.673 84.404 116.054 88.8452 116.729 93.6862C117.404 98.5272 116.33 103.45 113.7 107.57C112.821 108.947 111.787 110.204 110.626 111.32C109.723 112.188 108.858 113.144 108.084 114.165C105.564 117.486 104.003 121.492 105.191 125.391L121.436 178.723Z" fill="white"/>
</svg>
