<svg width="140" height="176" viewBox="0 0 140 176" fill="none" xmlns="http://www.w3.org/2000/svg">
<path fill-rule="evenodd" clip-rule="evenodd" d="M68.6661 0.470306C69.0578 -0.156769 69.9709 -0.156769 70.3625 0.470306L93.5325 37.572C93.7087 37.8541 94.0136 38.0302 94.3461 38.0417L138.062 39.5567C138.801 39.5823 139.258 40.3731 138.91 41.0258L118.364 79.6424C118.208 79.9361 118.208 80.2882 118.364 80.5818L138.91 119.198C139.258 119.851 138.801 120.642 138.062 120.668L105.059 121.811L70.0143 61.1121L34.95 121.845L0.966602 120.668C0.227735 120.642 -0.228846 119.851 0.118413 119.198L20.6644 80.5818C20.8207 80.2882 20.8207 79.9361 20.6644 79.6424L0.118413 41.0258C-0.228846 40.3731 0.227735 39.5823 0.966603 39.5567L44.6826 38.0417C45.015 38.0302 45.32 37.8541 45.4962 37.572L68.6661 0.470306ZM121.198 175.25L69.6691 86L18.1406 175.25H121.198Z" fill="white"/>
</svg>
