<svg width="113" height="148" viewBox="0 0 113 148" fill="none" xmlns="http://www.w3.org/2000/svg">
<path fill-rule="evenodd" clip-rule="evenodd" d="M80.0322 52.4849L84.4682 56.9209L81.0322 60.3569L76.5963 55.9209L80.0322 52.4849ZM112.447 56.6157L112.141 56.9219L112.446 57.2271L95.1744 74.499L112.447 91.7719L112.348 91.8716L112.446 91.9703L93.9678 110.449L112.447 128.928L98.3051 143.07L79.8257 124.591L56.688 147.729L33.5513 124.592L15.0728 143.07L0.93065 128.928L19.4091 110.45L0.929685 91.9703L1.02934 91.8706L0.93065 91.7719L18.2026 74.5L0.929685 57.2271L1.23588 56.9209L0.93065 56.6157L19.2026 38.3437L0.929685 20.0708L15.0718 5.92871L33.3447 24.2016L56.689 0.857364L80.0322 24.2006L98.3042 5.92873L112.446 20.0709L94.1744 38.3428L112.447 56.6157ZM29.1153 91.8716L33.5513 96.3076L36.7807 93.0781L32.3447 88.6421L29.1153 91.8716ZM47.6934 110.45L56.688 119.444L65.6836 110.449L62.4541 107.219L56.688 112.985L50.9228 107.22L47.6934 110.45ZM79.8257 96.3066L84.2617 91.8706L81.0322 88.6412L76.5963 93.0772L79.8257 96.3066ZM62.4541 70.063L66.8901 74.499L62.4541 78.935L58.0181 74.499L62.4541 70.063ZM55.3588 74.5L50.9228 78.936L46.4868 74.5L50.9228 70.064L55.3588 74.5ZM36.7807 55.9219L32.3447 60.3579L28.9087 56.9219L33.3447 52.4859L36.7807 55.9219ZM65.8901 38.3428L56.689 29.1416L47.4868 38.3438L50.9228 41.7797L56.689 36.0136L62.4541 41.7788L65.8901 38.3428Z" fill="white"/>
</svg>
