<svg width="151" height="217" viewBox="0 0 151 217" fill="none" xmlns="http://www.w3.org/2000/svg">
<path fill-rule="evenodd" clip-rule="evenodd" d="M57.8848 3.02597C57.8473 1.92204 58.7122 1.02713 59.8168 1.02713L83.8021 1.02713C84.9067 1.02713 85.8326 1.92204 85.8701 3.02597L86.884 32.8255C87.7093 57.0839 107.69 76.2803 131.962 76.1346C139.693 76.0882 145.999 82.3185 146.045 90.0504L146.243 123.05C146.29 130.782 140.059 137.087 132.328 137.134C124.777 137.179 120.473 145.777 124.96 151.849L149.651 185.262C150.308 186.151 150.102 187.378 149.192 188.004L129.428 201.594C128.518 202.22 127.248 202.008 126.592 201.119C115.725 186.414 92.3858 194.544 93.0075 212.818L93.0399 213.769C93.0775 214.873 92.2125 215.768 91.1079 215.768L67.1226 215.768C66.018 215.768 65.0921 214.873 65.0546 213.769L63.9622 181.66C63.1267 157.103 42.9005 137.67 18.3297 137.818C10.5979 137.864 4.29232 131.634 4.24591 123.902L4.04784 90.9027C4.00144 83.1708 10.2317 76.8653 17.9636 76.8189C24.9063 76.7772 28.8647 68.8713 24.7385 63.2876L1.27301 31.5333C0.616558 30.645 0.822213 29.4175 1.73236 28.7916L21.4958 15.2011C22.4059 14.5752 23.6759 14.788 24.3324 15.6763C35.1993 30.3818 58.5389 22.2514 57.9172 3.97696L57.8848 3.02597ZM54.7514 103.902C47.6759 94.3274 36.4528 88.7081 24.5476 88.7796L18.0356 88.8187C16.931 88.8253 16.041 89.7261 16.0476 90.8306L16.2457 123.83C16.2523 124.935 17.1531 125.825 18.2577 125.818L52.5711 125.612C57.7645 125.581 61.9076 121.269 61.731 116.078C61.6676 114.214 61.04 112.412 59.9313 110.912L54.7514 103.902ZM95.3786 111.819C101.637 120.288 111.564 125.258 122.094 125.195L132.256 125.134C133.36 125.127 134.25 124.226 134.244 123.122L134.045 90.1224C134.039 89.0178 133.138 88.1278 132.034 88.1344L100.445 88.324C94.0529 88.3624 88.9539 93.6695 89.1713 100.058C89.2493 102.352 90.0217 104.569 91.3862 106.416L95.3786 111.819Z" fill="white"/>
</svg>
