<svg width="163" height="158" viewBox="0 0 163 158" fill="none" xmlns="http://www.w3.org/2000/svg">
<path fill-rule="evenodd" clip-rule="evenodd" d="M23.7036 3.92944C18.2833 -1.30959 9.68586 -1.3096 4.26555 3.92944C-1.42186 9.42665 -1.42184 18.5428 4.26556 24.04L17.2662 36.6059C23.3991 42.5337 26.8623 50.6976 26.8623 59.2271V98.6206C26.8623 107.15 23.3991 115.314 17.2662 121.242L4.26559 133.808C-1.42182 139.305 -1.42182 148.421 4.26558 153.918C9.68589 159.157 18.2833 159.157 23.7036 153.918L26.7367 150.986C34.3488 143.629 46.5836 144.628 55.9947 149.476C62.8478 153.007 70.6223 155 78.8623 155H82.8623C91.1384 155 98.9449 152.989 105.82 149.43C115.353 144.494 127.782 143.426 135.501 150.886L138.637 153.918C144.058 159.157 152.655 159.157 158.075 153.918C163.763 148.421 163.763 139.305 158.075 133.808L145.347 121.505C139.285 115.646 135.862 107.577 135.862 99.1465V58.7012C135.862 50.2709 139.285 42.2019 145.347 36.343L158.076 24.04C163.763 18.5428 163.763 9.42665 158.076 3.92945C152.655 -1.30959 144.058 -1.30958 138.637 3.92945L136.375 6.116C128.979 13.2646 116.995 12.0452 108.123 6.84102C100.71 2.49287 92.0773 0 82.8623 0H78.8623C69.6802 0 61.0761 2.47511 53.6809 6.79454C44.93 11.9059 33.1442 13.0544 25.8574 6.01119L23.7036 3.92944ZM55.698 122.994C49.3283 129.15 48.7054 139.554 56.375 143.987C62.991 147.811 70.6711 150 78.8623 150H82.8623C91.3415 150 99.273 147.655 106.044 143.578C113.47 139.106 112.805 128.95 106.572 122.925C103.472 119.929 99.3308 118.255 95.0205 118.255H67.4199C63.0459 118.255 58.843 119.954 55.698 122.994ZM107.44 12.2985C114.98 17.2237 114.025 27.7189 107.549 33.9779C104.218 37.1974 99.767 38.9971 95.1344 38.9971H67.3136C62.6124 38.9971 58.0951 37.1708 54.7148 33.9036C48.0959 27.506 47.1777 16.7498 54.9748 11.8565C61.8973 7.51214 70.0864 5 78.8623 5H82.8623C91.9316 5 100.374 7.68296 107.44 12.2985Z" fill="white"/>
</svg>
