<svg width="198" height="198" viewBox="0 0 198 198" fill="none" xmlns="http://www.w3.org/2000/svg">
<path d="M97.2147 82.0545C98.0082 80.6485 99.9918 80.6485 100.785 82.0545L118.721 113.836C119.514 115.242 118.522 117 116.935 117H81.0645C79.4776 117 78.4858 115.242 79.2793 113.836L97.2147 82.0545Z" fill="white"/>
<path fill-rule="evenodd" clip-rule="evenodd" d="M198 99V4.32743e-06L99 0C44.3238 -2.38997e-06 2.38997e-06 44.3238 0 99C-2.82513e-06 153.676 44.3238 198 99 198C153.676 198 198 153.676 198 99ZM98.9998 170.077C138.254 170.077 170.077 138.255 170.077 99C170.077 59.7453 138.254 27.9231 98.9998 27.9231C59.7451 27.9231 27.9228 59.7453 27.9228 99C27.9228 138.255 59.7451 170.077 98.9998 170.077Z" fill="white"/>
</svg>
