<svg width="128" height="161" viewBox="0 0 128 161" fill="none" xmlns="http://www.w3.org/2000/svg">
<path fill-rule="evenodd" clip-rule="evenodd" d="M127.493 72.7953V41.8004H122.497C112.814 41.7993 103.528 37.9642 96.6819 31.1386C89.8352 24.3129 85.9884 15.0556 85.9873 5.40264V0H41.514V5.40264C41.514 15.0559 37.6675 24.3139 30.8206 31.1397C23.9738 37.9656 14.6875 41.8004 5.00455 41.8004H0V72.7953H43.5392C45.286 68.9068 48.1241 65.6054 51.7112 63.2892C55.2983 60.9731 59.481 59.7411 63.7547 59.7422C68.0298 59.7396 72.2142 60.9708 75.8029 63.2871C79.3915 65.6033 82.2309 68.9055 83.9782 72.7953H127.493ZM127.493 119.609V88.2046H85.1015C83.8016 92.8498 81.0118 96.9427 77.1584 99.858C73.305 102.773 68.6001 104.35 63.7627 104.348C58.9254 104.35 54.2205 102.773 50.3671 99.858C46.5137 96.9427 43.7239 92.8498 42.4239 88.2046H0V119.609H5.00455C14.6868 119.609 23.9725 123.443 30.8192 130.268C37.666 137.093 41.513 146.35 41.514 156.003V161H85.9712V156.003C85.9733 146.35 89.8207 137.094 96.6672 130.269C103.514 123.445 112.799 119.61 122.481 119.609H127.493Z" fill="white"/>
</svg>
