<svg width="194" height="158" viewBox="0 0 194 158" fill="none" xmlns="http://www.w3.org/2000/svg">
<path fill-rule="evenodd" clip-rule="evenodd" d="M20.4032 24.0399C14.7158 18.5427 14.7158 9.42648 20.4032 3.92928C25.8235 -1.30976 34.4209 -1.30976 39.8412 3.92928L62.5559 25.8843C71.2579 34.2953 82.8871 38.9968 94.9895 38.9968H142.191C147.608 38.9968 152 43.3886 152 48.8061C152 54.2237 156.392 58.6155 161.809 58.6155H175.5C185.717 58.6155 194 66.8982 194 77.1155C194 87.3327 185.717 95.6155 175.5 95.6155H163.741C157.257 95.6155 152 100.872 152 107.357C152 110.54 153.292 113.586 155.581 115.799L174.213 133.807C179.901 139.305 179.901 148.421 174.213 153.918C168.793 159.157 160.195 159.157 154.775 153.918L131.626 131.543C122.807 123.019 111.022 118.255 98.7573 118.255H54.3196C48.068 118.255 43 113.187 43 106.935C43 100.683 37.9321 95.6155 31.6805 95.6155H18.5C8.28273 95.6155 0 87.3327 0 77.1155C0 66.8982 8.28273 58.6155 18.5 58.6155H34.0586C38.9968 58.6155 43 54.6123 43 49.674C43 47.2499 42.0158 44.9296 40.2727 43.2449L20.4032 24.0399ZM43 77.1155C43 74.0779 40.5376 71.6155 37.5 71.6155H18.5C15.4624 71.6155 13 74.0779 13 77.1155C13 80.153 15.4624 82.6155 18.5 82.6155H37.5C40.5376 82.6155 43 80.153 43 77.1155ZM152 77.1155C152 80.153 154.462 82.6155 157.5 82.6155H175.5C178.538 82.6155 181 80.153 181 77.1155C181 74.0779 178.538 71.6155 175.5 71.6155H157.5C154.462 71.6155 152 74.0779 152 77.1155Z" fill="white"/>
</svg>
