<svg width="137" height="257" viewBox="0 0 137 257" fill="none" xmlns="http://www.w3.org/2000/svg">
<path d="M83.6841 40.838L68.6236 56.2392L53.5684 40.838L68.6236 25.4316L83.6841 40.838Z" fill="white"/>
<path fill-rule="evenodd" clip-rule="evenodd" d="M68.6198 0.550781L108.005 40.8406L68.6198 81.1169L29.248 40.8406L68.6198 0.550781Z" fill="white"/>
<path d="M130.91 84.3087L113.796 102.109L96.6875 84.3087L113.796 66.5088L130.91 84.3087Z" fill="white"/>
<path fill-rule="evenodd" clip-rule="evenodd" d="M113.795 60.2354L136.94 84.3091L113.795 108.383L90.6562 84.3091L113.795 60.2354ZM113.796 72.7829L102.717 84.3091L113.796 95.8352L124.878 84.3091L113.796 72.7829Z" fill="white"/>
<path d="M83.6841 128.469L68.6236 143.87L53.5684 128.469L68.6236 113.062L83.6841 128.469Z" fill="white"/>
<path fill-rule="evenodd" clip-rule="evenodd" d="M68.6198 88.1816L108.005 128.471L68.6198 168.748L29.248 128.471L68.6198 88.1816Z" fill="white"/>
<path d="M130.91 172.282L113.796 189.739L96.6875 172.282L113.796 154.824L130.91 172.282Z" fill="white"/>
<path fill-rule="evenodd" clip-rule="evenodd" d="M113.797 148.613L137 172.282L113.797 195.951L90.6016 172.282L113.797 148.613ZM113.798 161.036L102.777 172.282L113.798 183.528L124.823 172.282L113.798 161.036Z" fill="white"/>
<path d="M83.6841 216.442L68.6236 231.501L53.5684 216.442L68.6236 201.378L83.6841 216.442Z" fill="white"/>
<path fill-rule="evenodd" clip-rule="evenodd" d="M68.6199 176.777L108.277 216.444L68.6199 256.097L28.9766 216.444L68.6199 176.777Z" fill="white"/>
<path d="M83.6841 40.838L68.6236 56.2392L53.5684 40.838L68.6236 25.4316L83.6841 40.838Z" fill="white"/>
<path fill-rule="evenodd" clip-rule="evenodd" d="M68.6198 0.550781L108.005 40.8406L68.6198 81.1169L29.248 40.8406L68.6198 0.550781Z" fill="white"/>
<path d="M40.564 84.3087L23.4503 102.109L6.3418 84.3087L23.4503 66.5088L40.564 84.3087Z" fill="white"/>
<path fill-rule="evenodd" clip-rule="evenodd" d="M23.4511 60.2354L46.5967 84.3091L23.4511 108.383L0.3125 84.3091L23.4511 60.2354ZM23.4521 72.7829L12.3736 84.3091L23.4521 95.8352L34.5338 84.3091L23.4521 72.7829Z" fill="white"/>
<path d="M83.6841 128.469L68.6236 143.87L53.5684 128.469L68.6236 113.062L83.6841 128.469Z" fill="white"/>
<path fill-rule="evenodd" clip-rule="evenodd" d="M68.6198 88.1816L108.005 128.471L68.6198 168.748L29.248 128.471L68.6198 88.1816Z" fill="white"/>
<path d="M40.564 172.282L23.4503 189.739L6.3418 172.282L23.4503 154.824L40.564 172.282Z" fill="white"/>
<path fill-rule="evenodd" clip-rule="evenodd" d="M23.4496 148.613L46.6523 172.282L23.4496 195.951L0.253906 172.282L23.4496 148.613ZM23.4505 161.036L12.4292 172.282L23.4505 183.528L34.4752 172.282L23.4505 161.036Z" fill="white"/>
<path d="M83.6841 216.442L68.6236 231.501L53.5684 216.442L68.6236 201.378L83.6841 216.442Z" fill="white"/>
<path fill-rule="evenodd" clip-rule="evenodd" d="M68.6199 176.777L108.277 216.444L68.6199 256.097L28.9766 216.444L68.6199 176.777Z" fill="white"/>
</svg>
