<svg width="166" height="139" viewBox="0 0 166 139" fill="none" xmlns="http://www.w3.org/2000/svg">
<path fill-rule="evenodd" clip-rule="evenodd" d="M138.007 36.0386C135.039 33.4122 135.16 28.574 138.481 26.4123L138.691 26.2758C141.933 24.1658 146.296 25.7599 146.979 29.5674C147.492 32.4284 147.815 35.3301 147.94 38.2537C148.065 41.1508 144.471 42.3484 142.448 40.2715C141.02 38.8068 139.539 37.3948 138.007 36.0386ZM109.308 19.4734C112.08 20.3998 115.141 20.126 117.591 18.5318L143.346 1.77011C148.438 -1.54367 155.326 -0.125402 157.938 5.3596C162.713 15.3884 165.444 26.3091 165.924 37.4811C166.348 47.349 165.006 57.1723 162.001 66.4989C161.347 68.527 161.347 70.7113 162.001 72.7394C164.89 81.7083 166.244 91.1415 165.964 100.638C165.635 111.816 163.052 122.772 158.412 132.864C155.874 138.384 149.005 139.895 143.869 136.65L118.16 120.407C115.705 118.856 112.664 118.616 109.918 119.558C101.598 122.41 92.8419 123.934 83.9718 124.038C74.5058 124.149 65.1314 122.639 56.2437 119.613C53.4906 118.675 50.4442 118.924 47.991 120.486L22.2676 136.866C17.1432 140.129 10.2691 138.643 7.71181 133.132C3.03608 123.056 0.414268 112.109 0.0452236 100.933C-0.27161 91.338 1.07948 81.8018 3.99976 72.7385C4.65323 70.7105 4.65325 68.5261 3.9998 66.498C1.19477 57.7921 -0.163951 48.6451 0.0161447 39.4231C0.23449 28.243 2.70848 17.2613 7.24795 7.12352C9.73072 1.57887 16.5841 -0.000250535 21.752 3.19344L47.418 19.0546C49.8756 20.5733 52.9024 20.789 55.6298 19.8363C64.3448 16.7922 73.5438 15.2103 82.8525 15.1938C91.8832 15.1778 100.816 16.6353 109.308 19.4734ZM65.1772 40.6957C65.2324 37.8705 66.9039 35.1548 69.6696 34.5753C73.9977 33.6684 78.425 33.2017 82.8845 33.1938C87.4873 33.1856 92.0575 33.6662 96.5213 34.6156C99.0982 35.1636 100.697 37.6465 100.81 40.2786C100.947 43.4678 100.226 46.6353 98.7202 49.4502C97.2149 52.2652 94.9813 54.6242 92.2528 56.2811C89.5243 57.9379 86.4009 58.8317 83.209 58.869C80.017 58.9064 76.8736 58.086 74.1071 56.4935C71.3405 54.901 69.0523 52.5948 67.4815 49.8159C65.9107 47.037 65.1149 43.8872 65.1772 40.6957ZM27.4029 36.566C30.1968 34.0455 29.9947 29.447 26.7938 27.4689L26.602 27.3504C23.5002 25.4335 19.424 27.0311 18.8399 30.6304C18.3506 33.6447 18.0728 36.7001 18.0127 39.7746C17.9668 42.1265 20.8902 43.0855 22.5007 41.3708C24.0674 39.7028 25.7028 38.0998 27.4029 36.566ZM25.9883 72.2629C25.0857 70.6145 25.0857 68.6223 25.9884 66.9739C28.6477 62.1176 31.9042 57.6433 35.6653 53.6468C40.3553 48.6633 48.3234 52.3522 51.6282 58.3448C51.6887 58.4546 51.7499 58.5642 51.8117 58.6734C52.2631 59.472 52.7439 60.2511 53.2529 61.0094C56.5799 65.9665 56.5799 73.2707 53.2528 78.2276C52.6544 79.1192 52.0949 80.0395 51.5765 80.9861C48.3127 86.9462 40.4036 90.6088 35.7385 85.668C32.1469 81.8641 29.0119 77.6239 26.4147 73.0293C26.2708 72.7746 26.1287 72.5192 25.9883 72.2629ZM23.1042 98.502C21.2574 96.5769 17.9474 97.6726 18.0354 100.339C18.1341 103.326 18.4383 106.293 18.9419 109.219C19.5821 112.939 23.8234 114.536 27.0072 112.509L27.2094 112.38C30.4812 110.297 30.6375 105.559 27.7433 102.976C26.1392 101.545 24.5917 100.053 23.1042 98.502ZM65.1832 98.782C65.2729 101.497 66.9038 104.078 69.5611 104.639C74.2088 105.621 78.97 106.095 83.7611 106.039C88.0306 105.989 92.2664 105.519 96.4099 104.646C99.096 104.079 100.738 101.463 100.819 98.7187C100.913 95.5279 100.148 92.3704 98.6051 89.576C97.062 86.7817 94.7968 84.4529 92.0462 82.833C89.2956 81.2131 86.1605 80.3615 82.9683 80.3672C79.7762 80.3729 76.6441 81.2356 73.8993 82.8653C71.1544 84.4949 68.8976 86.8317 67.3643 89.6316C65.8312 92.4314 65.0779 95.5916 65.1832 98.782ZM138.347 102.897C135.479 105.463 135.647 110.164 138.901 112.22L139.1 112.346C142.263 114.344 146.46 112.746 147.086 109.058C147.586 106.109 147.883 103.119 147.972 100.108C148.048 97.5247 144.84 96.4653 143.056 98.3353C141.548 99.9165 139.977 101.438 138.347 102.897ZM140.319 67.5421C141.013 68.8403 141.013 70.3978 140.319 71.6959C137.606 76.7699 134.243 81.4376 130.335 85.5906C125.645 90.5742 117.67 86.8652 114.362 80.8745C113.861 79.9672 113.322 79.0844 112.747 78.228C109.42 73.271 109.42 65.9668 112.748 61.0098C113.412 60.0201 114.028 58.9953 114.593 57.9385C117.722 52.0874 125.435 48.512 130.017 53.3115C133.859 57.3368 137.186 61.8567 139.9 66.7716C140.042 67.0276 140.181 67.2845 140.319 67.5421Z" fill="white"/>
</svg>
