<svg width="227" height="227" viewBox="0 0 227 227" fill="none" xmlns="http://www.w3.org/2000/svg">
<mask id="mask0_1571_2468" style="mask-type:alpha" maskUnits="userSpaceOnUse" x="0" y="0" width="227" height="227">
<path d="M227 113.5C227 176.184 176.184 227 113.5 227C50.8157 227 0 176.184 0 113.5C0 50.8157 50.8157 0 113.5 0C176.184 0 227 50.8157 227 113.5Z" fill="#C4C4C4"/>
</mask>
<g mask="url(#mask0_1571_2468)">
<path fill-rule="evenodd" clip-rule="evenodd" d="M113.5 205C164.034 205 205 164.034 205 113.5C205 62.9659 164.034 22 113.5 22C62.9659 22 22 62.9659 22 113.5C22 164.034 62.9659 205 113.5 205ZM113.5 227C176.184 227 227 176.184 227 113.5C227 50.8157 176.184 0 113.5 0C50.8157 0 0 50.8157 0 113.5C0 176.184 50.8157 227 113.5 227Z" fill="white"/>
</g>
<path fill-rule="evenodd" clip-rule="evenodd" d="M113.5 134.083C124.868 134.083 134.083 124.868 134.083 113.5C134.083 102.132 124.868 92.9172 113.5 92.9172C102.132 92.9172 92.9172 102.132 92.9172 113.5C92.9172 124.868 102.132 134.083 113.5 134.083ZM50 113.5C50 78.4299 78.4299 50 113.5 50C148.57 50 177 78.4299 177 113.5C177 148.57 148.57 177 113.5 177C78.4299 177 50 148.57 50 113.5Z" fill="white"/>
</svg>
