<svg width="166" height="178" viewBox="0 0 166 178" fill="none" xmlns="http://www.w3.org/2000/svg">
<path fill-rule="evenodd" clip-rule="evenodd" d="M156.329 83C161.67 83 166.058 78.655 165.437 73.3498C163.277 54.8903 154.963 37.5838 141.69 24.3101C126.124 8.74462 105.013 0 83 0C60.9871 0 39.8757 8.74461 24.3102 24.3101C11.0365 37.5837 2.72305 54.8903 0.562631 73.3498C-0.0582683 78.655 4.33009 83 9.6715 83C15.0129 83 19.2677 78.6451 20.0761 73.3653C22.1149 60.049 28.3447 47.6307 37.9877 37.9877C49.9257 26.0497 66.1171 19.343 83 19.343C99.8829 19.343 116.074 26.0497 128.012 37.9877C137.655 47.6307 143.885 60.049 145.924 73.3653C146.732 78.6452 150.987 83 156.329 83ZM37.0381 140.962C29.1934 133.117 23.5605 123.473 20.5418 113L57.164 113C57.419 113.235 57.7187 113.522 58.073 113.872C58.488 114.283 58.9174 114.72 59.4277 115.241L59.602 115.419L59.6038 115.421C60.0469 115.874 60.5655 116.404 61.0806 116.919C66.894 122.733 74.7786 125.999 83 125.999C91.2214 125.999 99.1061 122.733 104.919 116.919C105.435 116.403 105.955 115.872 106.399 115.419L106.572 115.241C107.083 114.72 107.512 114.283 107.927 113.872C108.281 113.522 108.581 113.235 108.836 113L145.458 113C142.439 123.473 136.807 133.117 128.962 140.962C116.772 153.152 100.239 160 83 160C65.7609 160 49.2279 153.152 37.0381 140.962ZM11 95C4.92489 95 -0.0750985 99.9466 0.727635 105.968C3.12227 123.933 11.353 140.733 24.3102 153.69C39.8757 169.255 60.987 178 83 178C105.013 178 126.124 169.255 141.69 153.69C154.647 140.733 162.878 123.933 165.272 105.969C166.075 99.9466 161.075 95 155 95L106.208 95C101.192 95 97.1636 99.1184 93.5285 102.835C93.0772 103.296 92.6319 103.751 92.1915 104.192C89.7538 106.629 86.4475 107.999 83 107.999C79.5525 107.999 76.2462 106.629 73.8085 104.192C73.3684 103.751 72.9234 103.296 72.4723 102.835L72.4715 102.835C68.8364 99.1184 64.8078 95 59.7923 95L11 95Z" fill="white"/>
</svg>
