<svg width="167" height="119" viewBox="0 0 167 119" fill="none" xmlns="http://www.w3.org/2000/svg">
<path fill-rule="evenodd" clip-rule="evenodd" d="M18.4966 5.21429C12.9936 2.64069 6.36922 5.00302 4.54539 10.7979C1.42773 20.7038 0.186828 31.1392 0.923067 41.5632C1.91855 55.6577 6.49571 69.2647 14.221 81.0954C21.9463 92.9261 32.5639 102.589 45.0682 109.168C57.5725 115.748 71.5494 119.026 85.6751 118.692C99.8007 118.359 113.607 114.425 125.787 107.263C137.967 100.101 148.117 89.9485 155.276 77.7666C162.435 65.5846 166.365 51.7768 166.694 37.6511C166.938 27.2039 165.206 16.8387 161.625 7.09088C159.53 1.38847 152.801 -0.658729 147.426 2.1716L139.462 6.36454C134.087 9.19487 132.151 15.8403 133.79 21.6903C135.173 26.6276 135.823 31.7619 135.703 36.9282C135.496 45.7781 133.034 54.4288 128.549 62.0608C124.064 69.6929 117.705 76.0537 110.074 80.5407C102.444 85.0277 93.7935 87.4924 84.9437 87.7012C76.0938 87.9101 67.3372 85.8562 59.5032 81.7342C51.6691 77.6121 45.0171 71.5584 40.1772 64.1464C35.3372 56.7344 32.4696 48.2095 31.8459 39.3792C31.4818 34.2244 31.8895 29.0651 33.038 24.068C34.3987 18.1472 32.1521 11.6005 26.6491 9.02689L18.4966 5.21429ZM88.3086 20.5404C81.3046 17.2649 72.9715 20.2874 69.6961 27.2913C66.4206 34.2952 69.443 42.6283 76.4469 45.9038C83.4509 49.1793 91.784 46.1568 95.0595 39.1529C98.3349 32.149 95.3125 23.8159 88.3086 20.5404Z" fill="white"/>
</svg>
