<svg width="194" height="193" viewBox="0 0 194 193" fill="none" xmlns="http://www.w3.org/2000/svg">
<path fill-rule="evenodd" clip-rule="evenodd" d="M90.6069 147.697V102.394L45.3035 102.394C20.283 102.394 2.45711e-06 122.677 0 147.697C-1.09368e-06 172.717 20.283 193 45.3034 193C70.3238 193 90.6069 172.717 90.6069 147.697ZM45.3043 180.222C63.2677 180.222 77.8298 165.66 77.8298 147.697C77.8298 129.734 63.2677 115.171 45.3043 115.171C27.3409 115.171 12.7788 129.734 12.7788 147.697C12.7788 165.66 27.3409 180.222 45.3043 180.222Z" fill="white"/>
<path fill-rule="evenodd" clip-rule="evenodd" d="M147.696 102.393L102.393 102.393L102.393 147.697C102.393 172.717 122.676 193 147.696 193C172.716 193 192.999 172.717 192.999 147.697C192.999 122.676 172.716 102.393 147.696 102.393ZM180.222 147.696C180.222 129.733 165.66 115.171 147.696 115.171C129.733 115.171 115.171 129.733 115.171 147.697C115.171 165.66 129.733 180.222 147.696 180.222C165.66 180.222 180.222 165.66 180.222 147.696Z" fill="white"/>
<path fill-rule="evenodd" clip-rule="evenodd" d="M102.395 45.304L102.395 90.6074L147.698 90.6074C172.719 90.6074 193.002 70.3244 193.002 45.304C193.002 20.2836 172.719 0.00055109 147.699 0.000553277C122.678 0.000555464 102.395 20.2836 102.395 45.304ZM147.698 12.7785C129.734 12.7785 115.172 27.3407 115.172 45.3041C115.172 63.2674 129.734 77.8296 147.698 77.8296C165.661 77.8296 180.223 63.2674 180.223 45.3041C180.223 27.3407 165.661 12.7785 147.698 12.7785Z" fill="white"/>
<path fill-rule="evenodd" clip-rule="evenodd" d="M46.0403 90.6069L91.3437 90.6069L91.3437 45.3035C91.3437 20.283 71.0607 1.57051e-06 46.0403 -1.98028e-06C21.0199 -4.16763e-06 0.736877 20.283 0.736875 45.3034C0.736874 70.3238 21.0199 90.6069 46.0403 90.6069ZM13.5143 45.3035C13.5143 63.2669 28.0765 77.829 46.0399 77.829C64.0032 77.829 78.5654 63.2669 78.5654 45.3035C78.5654 27.3401 64.0032 12.778 46.0399 12.778C28.0765 12.778 13.5143 27.3401 13.5143 45.3035Z" fill="white"/>
</svg>
