<svg width="221" height="221" viewBox="0 0 221 221" fill="none" xmlns="http://www.w3.org/2000/svg">
<path fill-rule="evenodd" clip-rule="evenodd" d="M107.26 61.9926C108.7 64.4869 112.301 64.4869 113.741 61.9926L146.292 5.61204C147.732 3.1178 145.932 5.94325e-06 143.052 5.69146e-06L77.9492 0C75.0691 -2.51788e-07 73.269 3.11779 74.7091 5.61202L107.26 61.9926ZM113.74 159.007C112.3 156.513 108.699 156.513 107.259 159.007L74.708 215.388C73.2679 217.882 75.068 221 77.9481 221L143.051 221C145.931 221 147.731 217.882 146.291 215.388L113.74 159.007ZM61.9926 107.26C64.4869 108.7 64.4869 112.3 61.9926 113.74L5.61202 146.291C3.11779 147.731 0 145.931 0 143.051L6.4678e-06 77.9486C6.75393e-06 75.0685 3.1178 73.2685 5.61204 74.7085L61.9926 107.26ZM159.007 107.26C156.513 108.7 156.513 112.3 159.007 113.74L215.388 146.292C217.882 147.732 221 145.932 221 143.051L221 77.9487C221 75.0686 217.882 73.2686 215.388 74.7086L159.007 107.26Z" fill="white"/>
</svg>
