<svg width="221" height="221" viewBox="0 0 221 221" fill="none" xmlns="http://www.w3.org/2000/svg">
<path fill-rule="evenodd" clip-rule="evenodd" d="M113.737 1.87068C112.297 -0.623554 108.696 -0.623562 107.256 1.87067L74.7051 58.2513C73.265 60.7455 75.0651 63.8633 77.9452 63.8633H143.048C145.928 63.8633 147.728 60.7455 146.288 58.2513L113.737 1.87068ZM107.257 219.128C108.697 221.623 112.297 221.623 113.737 219.128L146.288 162.748C147.728 160.254 145.928 157.136 143.048 157.136L77.9453 157.136C75.0652 157.136 73.2651 160.254 74.7052 162.748L107.257 219.128ZM1.87067 113.739C-0.623563 112.299 -0.623554 108.699 1.87068 107.259L58.2513 74.7076C60.7455 73.2675 63.8633 75.0676 63.8633 77.9477L63.8633 143.05C63.8633 145.931 60.7455 147.731 58.2513 146.291L1.87067 113.739ZM219.125 113.739C221.62 112.299 221.62 108.699 219.125 107.259L162.745 74.7078C160.251 73.2677 157.133 75.0678 157.133 77.9479V143.051C157.133 145.931 160.251 147.731 162.745 146.291L219.125 113.739Z" fill="white"/>
</svg>
