<svg width="250" height="153" viewBox="0 0 250 153" fill="none" xmlns="http://www.w3.org/2000/svg">
<path fill-rule="evenodd" clip-rule="evenodd" d="M247.818 5.14793C246.636 -1.34564 237.835 -1.69658 234.675 4.09844C227.352 17.5311 217.634 29.4707 206.096 39.3438C196.019 47.9659 181.329 42.8294 171.724 33.6857C159.544 22.0921 143.064 14.9758 124.921 14.9758C106.779 14.9758 90.2982 22.0921 78.1189 33.6857C68.5133 42.8294 53.8232 47.966 43.7468 39.3439C32.2084 29.4707 22.4908 17.5312 15.1674 4.09843C12.008 -1.69659 3.20693 -1.34563 2.02468 5.14793C0.694673 12.4531 0 19.9799 0 27.6689C0 96.661 55.9292 152.59 124.921 152.59C193.913 152.59 249.843 96.661 249.843 27.6689C249.843 19.9799 249.148 12.4531 247.818 5.14793ZM125 127.59C148.748 127.59 168 108.338 168 84.5901C168 60.8418 148.748 41.5901 125 41.5901C101.252 41.5901 82 60.8418 82 84.5901C82 108.338 101.252 127.59 125 127.59Z" fill="white"/>
</svg>
