<svg width="92" height="128" viewBox="0 0 92 128" fill="none" xmlns="http://www.w3.org/2000/svg">
<path fill-rule="evenodd" clip-rule="evenodd" d="M56.3591 39.4996L46.0012 29.1417L35.6428 39.5L46.0008 49.858L46.0012 49.8574L46.0012 49.8575L56.3591 39.4996ZM21.5007 53.6422L31.8586 64L21.5007 74.3579L15.0718 67.929L0.929688 82.0712L7.35857 88.5001L0.930131 94.9285L15.0723 109.071L21.5007 102.642L46.0008 127.142L70.5012 102.642L76.9301 109.071L91.0723 94.9285L84.6434 88.4996L91.0718 82.0712L76.9297 67.929L70.5012 74.3575L60.1434 63.9996L70.5012 53.6417L76.9301 60.0706L91.0723 45.9285L84.6434 39.4996L91.0718 33.0712L76.9297 18.929L70.5012 25.3575L46.0012 0.857422L21.5007 25.3579L15.0718 18.929L0.929688 33.0712L7.35857 39.5L0.930131 45.9285L15.0723 60.0706L21.5007 53.6422ZM56.3591 88.4996L46.0012 78.1417L46.0008 78.1422L35.6429 88.5001L46.0008 98.858L56.3591 88.4996Z" fill="white"/>
</svg>
