<svg width="242" height="215" viewBox="0 0 242 215" fill="none" xmlns="http://www.w3.org/2000/svg">
<path fill-rule="evenodd" clip-rule="evenodd" d="M132.11 13.5854C131.854 6.05132 125.67 0 118.131 0C110.221 0 103.89 6.69262 104.159 14.5979C104.647 28.9266 86.0533 35.3341 77.6021 23.7528C73.1584 17.6634 64.6107 16.0862 58.3737 20.3202C51.8294 24.7629 50.3289 33.8265 54.9916 40.2161C61.874 49.6476 55.2537 63.0618 43.578 63.0618H42.5C19.0279 63.0618 0 82.0897 0 105.562C0 129.034 19.0279 148.062 42.5 148.062H46.7917C61.0709 148.062 69.7915 163.751 62.2526 175.878L60.0989 179.343C56.1189 185.745 57.9295 194.149 64.1926 198.345C70.7643 202.747 79.7185 200.759 83.8946 194.041C91.3639 182.026 110.025 187.017 110.506 201.156C110.763 208.69 116.947 214.741 124.485 214.741C132.395 214.741 138.726 208.048 138.457 200.143C137.97 185.814 156.563 179.407 165.015 190.988C169.458 197.078 178.006 198.655 184.243 194.421C190.787 189.978 192.348 180.997 187.685 174.607L186.599 173.119C178.998 162.702 186.604 148.062 199.5 148.062C222.972 148.062 242 129.034 242 105.562C242 82.0897 222.972 63.0618 199.5 63.0618H195.303C182.232 63.0618 174.249 48.6995 181.15 37.5985L182.518 35.3983C186.498 28.9962 184.687 20.5916 178.424 16.3963C171.852 11.9942 162.898 13.9824 158.722 20.7C151.253 32.7149 132.591 27.7246 132.11 13.5854ZM95.7415 96.0585C91.6158 90.4048 85.0379 87.0618 78.0389 87.0618H42.5C32.2827 87.0618 24 95.3445 24 105.562C24 115.779 32.2827 124.062 42.5 124.062H85.9182C91.2334 124.062 96.1717 121.317 98.9779 116.803C102.287 111.48 102.034 104.682 98.3401 99.6195L95.7415 96.0585ZM160.013 124.062C154.224 124.062 148.783 121.296 145.37 116.62C141.015 110.652 140.717 102.638 144.618 96.363L144.872 95.9551C148.31 90.4247 154.36 87.0618 160.872 87.0618H199.5C209.717 87.0618 218 95.3445 218 105.562C218 115.779 209.717 124.062 199.5 124.062H160.013Z" fill="white"/>
</svg>
