<svg width="161" height="256" viewBox="0 0 161 256" fill="none" xmlns="http://www.w3.org/2000/svg">
<path d="M121.214 24.2506C116.984 28.1944 113.068 32.4579 109.501 37.003C100.267 33.0817 90.3273 31.0658 80.2849 31.0777C70.2426 31.0665 60.3027 33.0823 51.0685 37.003C47.5017 32.4579 43.5856 28.1944 39.3555 24.2506C51.0724 13.3215 65.0367 5.04769 80.2849 0C95.5338 5.04613 109.498 13.3202 121.214 24.2506Z" fill="white"/>
<path d="M121.214 231.621C116.984 227.677 113.068 223.413 109.501 218.868C100.267 222.789 90.3273 224.805 80.2849 224.793C70.2426 224.805 60.3027 222.789 51.0685 218.868C47.5017 223.413 43.5856 227.677 39.3555 231.621C51.0724 242.55 65.0367 250.823 80.2849 255.871C95.5338 250.825 109.498 242.551 121.214 231.621Z" fill="white"/>
<path d="M160.569 118.882H119.406C117.469 109.925 112.531 101.903 105.413 96.1514C98.2956 90.3997 89.4273 87.2651 80.2846 87.2692C71.142 87.2651 62.2737 90.3997 55.1558 96.1514C48.0379 101.903 43.0999 109.925 41.1635 118.882H0C2.09212 98.9996 11.4526 80.598 26.277 67.2237C41.1013 53.8494 60.3402 46.4493 80.2846 46.4502C100.229 46.4493 119.468 53.8494 134.292 67.2237C149.117 80.598 158.477 98.9996 160.569 118.882Z" fill="white"/>
<path d="M160.569 135.415C158.535 155.277 149.2 173.68 134.369 187.06C119.539 200.44 100.268 207.847 80.2875 207.846C60.3064 207.846 41.0359 200.438 26.2048 187.059C11.3737 173.679 2.03654 155.277 0 135.415H41.1198C43.009 144.398 47.9325 152.458 55.0642 158.243C62.1959 164.028 71.1018 167.186 80.2875 167.186C89.4732 167.186 98.379 164.028 105.511 158.243C112.642 152.458 117.566 144.398 119.455 135.415H160.569Z" fill="white"/>
</svg>
