<svg width="196" height="233" viewBox="0 0 196 233" fill="none" xmlns="http://www.w3.org/2000/svg">
<path d="M38.3456 116.144C38.3305 128.404 40.8164 140.538 45.6521 151.811C40.0458 156.168 34.7874 160.952 29.9239 166.12C16.4386 151.808 6.22907 134.751 0 116.126C6.22769 97.5 16.4374 80.4431 29.9239 66.1328C34.7874 71.3006 40.0458 76.0845 45.6521 80.4413C40.8111 91.7248 38.3252 103.872 38.3456 116.144Z" fill="white"/>
<path d="M195.988 116.108C189.759 134.74 179.549 151.803 166.064 166.12C161.201 160.95 155.942 156.164 150.336 151.806C155.172 140.529 157.657 128.39 157.642 116.126C157.658 103.862 155.172 91.7229 150.336 80.4464C155.942 76.088 161.201 71.3025 166.064 66.1328C179.546 80.4378 189.755 97.4883 195.988 116.108Z" fill="white"/>
<path d="M146.4 216.517C132.093 203.029 115.04 192.818 96.4185 186.59C77.7977 192.82 60.7452 203.03 46.4375 216.517C51.6055 221.382 56.3883 226.643 60.7425 232.253C72.012 227.415 84.1437 224.927 96.4008 224.94C108.658 224.926 120.79 227.414 132.059 232.253C136.425 226.642 141.219 221.38 146.4 216.517Z" fill="white"/>
<path d="M146.4 15.738C141.231 10.8713 136.447 5.60953 132.09 0C120.816 4.83944 108.68 7.32794 96.4185 7.31423C84.1571 7.32727 72.0209 4.8388 60.7474 0C56.3902 5.60953 51.6059 10.8713 46.4375 15.738C60.7506 29.2248 77.8092 39.4347 96.4364 45.6632C115.051 39.4316 132.098 29.2217 146.4 15.738Z" fill="white"/>
<path d="M102.083 85.8154H91.5461C77.5021 85.8154 66.1172 97.2031 66.1172 111.25V121.79C66.1172 135.837 77.5021 147.225 91.5461 147.225H102.083C116.127 147.225 127.511 135.837 127.511 121.79V111.25C127.511 97.2031 116.127 85.8154 102.083 85.8154Z" fill="white"/>
</svg>
