<svg width="180" height="178" viewBox="0 0 180 178" fill="none" xmlns="http://www.w3.org/2000/svg">
<path d="M147.703 113.789C132.518 101.918 114.048 95.018 94.8061 94.0275C95.7983 113.288 102.691 131.776 114.548 146.978C114.07 147.181 113.597 147.379 113.112 147.576L111.73 148.109H111.665C110.687 148.477 109.702 148.814 108.709 149.121L107.961 149.355L107.208 149.577L106.466 149.78C105.269 150.116 104.053 150.411 102.817 150.666L102.38 150.756C101.74 150.888 101.094 151.008 100.447 151.122L100.011 151.193L98.7605 151.385L98.1622 151.463L96.9658 151.613L96.2658 151.685L95.4641 151.762L94.6565 151.828L93.9864 151.876L93.3344 151.918H92.8857L92.1858 151.948H91.4499C90.8875 151.948 90.3252 151.948 89.7629 151.948C89.2005 151.948 88.6322 151.948 88.0699 151.948H87.334L86.6341 151.918H86.1854L85.5333 151.876L84.8632 151.828L84.0556 151.762L83.254 151.685L82.554 151.613L81.3575 151.463L80.7593 151.385L79.5149 151.193L79.0782 151.122C78.4262 151.008 77.7801 150.888 77.1399 150.756L76.7032 150.666C75.4709 150.411 74.2544 150.116 73.0539 149.78L72.3121 149.577L71.5583 149.355L70.8105 149.121C69.8174 148.81 68.8323 148.473 67.8552 148.109H67.7954L66.4074 147.576C65.9228 147.385 65.4502 147.187 64.9716 146.978C76.8284 131.776 83.7214 113.288 84.7137 94.0275C65.4718 95.018 47.002 101.918 31.817 113.789C28.4702 105.958 26.7503 97.527 26.7618 89.0092C26.7503 80.4914 28.4702 72.0602 31.817 64.2288L84.7137 83.9908C83.7226 64.7299 76.8295 46.2419 64.9716 31.0408C72.797 27.69 81.2217 25.9684 89.7329 25.9805C98.2422 25.969 106.665 27.6907 114.488 31.0408C102.63 46.2419 95.7373 64.7299 94.7462 83.9908C113.987 82.9972 132.456 76.0973 147.643 64.2288C150.99 72.0602 152.71 80.4914 152.698 89.0092C152.729 97.5229 151.029 105.954 147.703 113.789Z" fill="white"/>
<path d="M179.46 88.9251C175.144 101.845 168.066 113.677 158.715 123.605C155.341 120.022 151.692 116.706 147.803 113.685C132.576 101.832 114.055 94.9427 94.76 93.9537C93.0983 93.864 91.4186 93.8161 89.7329 93.8161C88.0472 93.8161 86.3615 93.864 84.6997 93.9537C65.4047 94.9427 46.8837 101.832 31.6567 113.685C27.7674 116.706 24.1191 120.022 20.7445 123.605C11.3937 113.677 4.31593 101.845 0 88.9251C4.31802 76.0061 11.3955 64.1742 20.7445 54.2449C24.119 57.8297 27.7673 61.1481 31.6567 64.1705L84.6997 83.9023C83.7059 64.6708 76.7937 46.211 64.9031 31.033C72.7501 27.6874 81.1981 25.9684 89.7329 25.9805C98.2657 25.969 106.712 27.688 114.557 31.033C102.666 46.211 95.7538 64.6708 94.76 83.9023C114.054 82.9103 132.574 76.0209 147.803 64.1705C151.692 61.1481 155.341 57.8297 158.715 54.2449C168.064 64.1742 175.142 76.0061 179.46 88.9251Z" fill="white"/>
<path d="M179.46 89.0332C175.145 101.964 168.07 113.807 158.722 123.743C155.349 120.157 151.702 116.838 147.814 113.815C132.592 101.952 114.077 95.056 94.7884 94.0661C95.783 113.314 102.693 131.789 114.578 146.981C114.099 147.184 113.625 147.382 113.139 147.579L111.754 148.112H111.688C110.71 148.471 109.721 148.812 108.725 149.123L107.976 149.357L107.22 149.578L106.476 149.782C105.277 150.117 104.058 150.412 102.818 150.667L102.38 150.757C101.739 150.889 101.091 151.009 100.443 151.122L100.006 151.194L98.7523 151.386L98.1526 151.463L96.9533 151.613L96.2516 151.685L95.448 151.763L94.6384 151.828L93.9667 151.876L93.313 151.918H92.8633L92.1617 151.948H91.424C90.8603 151.948 90.2966 151.948 89.7329 151.948C89.1691 151.948 88.5995 151.948 88.0357 151.948H87.298L86.5965 151.918H86.1467L85.493 151.876L84.8213 151.828L84.0117 151.763L83.2081 151.685L82.5065 151.613L81.3071 151.463L80.7074 151.386L79.46 151.194L79.0223 151.122C78.3686 151.009 77.7209 150.889 77.0792 150.757L76.6415 150.667C75.4061 150.412 74.1866 150.117 72.9833 149.782L72.2396 149.578L71.484 149.357L70.7344 149.123C69.7389 148.812 68.7494 148.471 67.7719 148.112H67.712L66.3206 147.579C65.8349 147.388 65.3611 147.19 64.8813 146.981C76.767 131.789 83.6768 113.314 84.6714 94.0661C65.3828 95.056 46.8681 101.952 31.6461 113.815C27.7581 116.838 24.1109 120.157 20.7375 123.743C11.3898 113.807 4.31448 101.964 0 89.0332C4.31657 76.1032 11.3917 64.261 20.7375 54.3232C24.1109 57.9111 27.758 61.2324 31.6461 64.2574L84.6714 84.0062C86.3305 84.094 88.0077 84.1378 89.7028 84.1378C91.388 84.1378 93.0672 84.096 94.7283 84.0062C114.016 83.0133 132.53 76.1179 147.754 64.2574C151.642 61.2324 155.289 57.9111 158.662 54.3232C168.03 64.2553 175.125 76.0979 179.46 89.0332Z" fill="white"/>
<path d="M124.363 157.362C114.45 166.635 102.633 173.652 89.7301 177.929C76.8272 173.652 65.0107 166.634 55.0977 157.362C58.6757 154.018 61.9876 150.403 65.0037 146.548C76.8381 131.45 83.718 113.088 84.7084 93.9578C84.7999 92.3043 84.8437 90.6409 84.8397 88.9676C84.8397 87.2903 84.7979 85.6308 84.7084 83.9773C83.7192 64.8471 76.8391 46.4846 65.0037 31.3867C61.9892 27.531 58.6771 23.9157 55.0977 20.5736C65.012 11.3013 76.8279 4.28191 89.7301 0C102.633 4.28122 114.449 11.3006 124.363 20.5736C120.783 23.9157 117.471 27.531 114.456 31.3867C102.621 46.4846 95.741 64.8471 94.7518 83.9773C94.6623 85.6308 94.6204 87.2903 94.6204 88.9676C94.6204 90.6449 94.6623 92.3043 94.7518 93.9578C95.7422 113.088 102.622 131.45 114.456 146.548C117.473 150.403 120.785 154.018 124.363 157.362Z" fill="white"/>
</svg>
