<svg width="148" height="149" viewBox="0 0 148 149" fill="none" xmlns="http://www.w3.org/2000/svg">
<path d="M27.205 27.2091C21.4823 32.9186 16.9804 39.733 13.9731 47.2378C9.33893 46.6632 4.66722 46.4493 0 46.598C0.409559 33.6643 3.61687 20.973 9.40102 9.39851C20.9703 3.61054 33.6577 0.403878 46.5868 0C46.4381 4.66695 46.652 9.33848 47.2263 13.9723C39.7265 16.985 32.9155 21.488 27.205 27.2091Z" fill="white"/>
<path d="M138.575 138.77C127.006 144.462 114.319 147.616 101.389 148.012C101.541 143.423 101.327 138.829 100.75 134.273C108.251 131.313 115.063 126.885 120.771 121.256C126.494 115.642 130.996 108.941 134.003 101.562C138.638 102.123 143.309 102.334 147.976 102.191C147.57 114.909 144.362 127.39 138.575 138.77Z" fill="white"/>
<path d="M46.5868 148.012C33.6577 147.615 20.9703 144.462 9.40102 138.77C3.61687 127.389 0.409559 114.909 0 102.191C4.66719 102.334 9.33868 102.124 13.9731 101.562C16.9804 108.941 21.4823 115.642 27.205 121.256C32.9155 126.882 39.7265 131.31 47.2263 134.273C46.652 138.829 46.4381 143.423 46.5868 148.012Z" fill="white"/>
<path d="M147.976 46.598C143.309 46.4495 138.637 46.6634 134.003 47.2378C130.996 39.733 126.494 32.9186 120.771 27.2091C115.063 21.4855 108.251 16.9822 100.75 13.9723C101.327 9.33873 101.541 4.66697 101.389 0C114.319 0.40312 127.006 3.60982 138.575 9.39851C144.362 20.972 147.57 33.6638 147.976 46.598Z" fill="white"/>
<path d="M114.917 75.5808C114.917 53.4054 96.9449 35.4287 74.775 35.4287C52.6051 35.4287 34.6328 53.4054 34.6328 75.5808C34.6328 97.7562 52.6051 115.733 74.775 115.733C96.9449 115.733 114.917 97.7562 114.917 75.5808Z" fill="white"/>
</svg>
