<svg width="200" height="146" viewBox="0 0 200 146" fill="none" xmlns="http://www.w3.org/2000/svg">
<path d="M168.44 39.7585L135.791 66.1237L119.207 79.517L115.582 76.5894C115.782 75.5495 115.882 74.4927 115.881 73.4335C115.882 71.9779 115.691 70.5286 115.313 69.1235C114.372 65.6555 112.322 62.5949 109.48 60.4128C106.637 58.2306 103.16 57.048 99.5838 57.047C96.0062 57.0474 92.5281 58.2305 89.6856 60.4139C86.8431 62.5974 84.794 65.6598 83.8544 69.1294C83.4657 70.531 83.2646 71.9785 83.2563 73.4335C83.2554 74.4907 83.3555 75.5456 83.5553 76.5835L79.925 79.517L63.3403 66.1179L30.6973 39.7585L79.925 0L99.5479 15.8459L119.177 0L168.44 39.7585Z" fill="white"/>
<path d="M199.137 103.515L127.95 145.65L99.5686 128.851L71.1877 145.65L0 103.515L63.5042 65.9577L71.1877 61.4153L83.904 68.9445C83.5169 70.3345 83.3166 71.77 83.3084 73.213C83.3075 74.2614 83.4072 75.3073 83.6062 76.3366C84.3322 80.0318 86.318 83.3601 89.2241 85.7523C92.1302 88.1445 95.7761 89.452 99.5388 89.4517C103.301 89.452 106.947 88.1445 109.854 85.7523C112.76 83.3601 114.745 80.0318 115.471 76.3366C115.67 75.3053 115.77 74.2572 115.769 73.2068C115.77 71.7633 115.58 70.326 115.203 68.9326L127.914 61.4092L135.597 65.9577L199.137 103.515Z" fill="white"/>
</svg>
