<svg width="164" height="110" viewBox="0 0 164 110" fill="none" xmlns="http://www.w3.org/2000/svg">
<path fill-rule="evenodd" clip-rule="evenodd" d="M51.3323 69.5909C44.1947 72.0839 37.5545 75.4249 31.5766 79.4704C28.2474 81.7215 25.0921 84.2256 22.1377 86.9612C15.2399 93.2702 9.65456 100.91 5.70877 109.434C1.95806 101.235 0.0101993 92.3092 0 83.2732C0.000902134 75.585 1.41546 67.9641 4.17131 60.8007C4.98454 58.7251 5.89367 56.6947 6.89443 54.716C5.894 52.7377 4.98514 50.7079 4.17213 48.6329C1.41628 41.4694 0.00172623 33.8485 0.000824765 26.1603C0.0100421 17.1236 1.95994 8.1971 5.71542 0C9.65654 8.52459 15.2403 16.1651 22.1385 22.4724C25.0929 25.208 28.2483 27.7121 31.5775 29.9631C44.6838 38.8327 60.9733 44.3163 78.7096 44.8991C79.6277 44.8817 80.5463 44.8741 81.4653 44.8764C82.5421 44.8737 83.6183 44.8846 84.6937 44.909C102.552 44.3812 118.958 38.8853 132.142 29.9631C135.471 27.7121 138.626 25.208 141.581 22.4724C148.479 16.1633 154.064 8.52336 158.01 0C161.76 8.1985 163.708 17.1243 163.718 26.1603C163.718 33.8485 162.303 41.4694 159.547 48.6329C158.734 50.7085 157.825 52.7388 156.824 54.7176C157.824 56.6959 158.733 58.7256 159.546 60.8007C162.302 67.9642 163.717 75.585 163.718 83.2732C163.708 92.31 161.759 101.236 158.003 109.434C154.062 100.909 148.478 93.2685 141.58 86.9612C138.626 84.2256 135.47 81.7215 132.141 79.4704C125.985 75.3047 119.128 71.8858 111.747 69.3708C103.691 81.3784 97.6784 94.6419 93.9783 108.636C89.8373 109.169 85.6654 109.436 81.4893 109.434C77.3092 109.436 73.1334 109.169 68.9883 108.636C65.3901 94.7439 59.3713 81.6186 51.3323 69.5909Z" fill="white"/>
</svg>
