<svg width="159" height="199" viewBox="0 0 159 199" fill="none" xmlns="http://www.w3.org/2000/svg">
<path d="M90.5171 137.777V198.399H64.3856V194.213C64.3745 186.181 61.1782 178.482 55.4986 172.806C49.8191 167.131 42.1206 163.944 34.0941 163.944H29.9102V137.789L90.5171 137.777Z" fill="white"/>
<path d="M59.8198 0V25.9329H54.9818C47.0516 25.9329 39.4461 29.1266 33.8386 34.811C28.231 40.4955 25.0808 48.205 25.0808 56.244V60.6219H0V0H59.8198Z" fill="white"/>
<path d="M90.5171 65.3457V125.18H29.9102V99.702H34.0961C42.1339 99.702 49.8424 96.55 55.526 90.9395C61.2096 85.3289 64.4026 77.7195 64.4026 69.7849V65.3457H90.5171Z" fill="white"/>
<path d="M75.5625 137.777V198.399H101.688V194.213C101.699 186.18 104.896 178.48 110.577 172.804C116.258 167.129 123.958 163.942 131.986 163.944H136.17V137.789L75.5625 137.777Z" fill="white"/>
<path d="M75.5625 65.3457V125.18H136.17V99.702H131.984C123.951 99.6957 116.248 96.5414 110.57 90.9317C104.891 85.322 101.7 77.7159 101.698 69.7849V65.3457H75.5625Z" fill="white"/>
<path d="M98.3867 0V25.9329H103.271C111.308 25.9329 119.015 29.1266 124.697 34.811C130.379 40.4955 133.572 48.205 133.572 56.244V60.6219H158.994V0H98.3867Z" fill="white"/>
</svg>
