<svg width="194" height="132" viewBox="0 0 194 132" fill="none" xmlns="http://www.w3.org/2000/svg">
<path fill-rule="evenodd" clip-rule="evenodd" d="M96.8071 0.0109778C96.861 -0.00353327 96.9178 -0.00353327 96.9717 0.0109778C97.0255 0.0254432 97.0827 0.0253364 97.1364 0.0109626C97.1908 -0.0035485 97.2485 -0.00371634 97.3029 0.0107948L127.241 8.00498C128.277 8.28163 129.087 9.08991 129.365 10.1254L132.778 22.809C133.209 24.4121 132.257 26.0608 130.653 26.4891L118.607 29.7059L108.215 32.501C105.982 33.1015 105.237 35.8949 106.876 37.5266L121.514 52.1063L156.451 86.9037C158.085 88.5315 160.869 87.7846 161.469 85.5573L167.492 63.1867C167.922 61.5884 169.565 60.64 171.165 61.0666L183.935 64.4731C184.971 64.7495 185.781 65.5577 186.06 66.5932L193.897 95.6994C194.034 96.2106 194.034 96.7491 193.897 97.2602L186.06 126.366C185.781 127.402 184.971 128.21 183.935 128.486L171.169 131.889C169.57 132.316 167.927 131.367 167.497 129.769L161.476 107.394C160.877 105.167 158.094 104.42 156.459 106.047L143.895 118.558C142.723 119.725 140.829 119.725 139.658 118.558L97.2369 76.2989C97.2203 76.2823 97.1935 76.2824 97.1769 76.299L96.8979 76.579L77.0932 96.4469C77.0735 96.4666 77.0736 96.4985 77.0935 96.5181C77.1134 96.5378 77.1134 96.5699 77.0935 96.5896L54.7479 118.612C53.5789 119.765 51.7014 119.764 50.5327 118.612L37.8001 106.058C36.1648 104.446 33.3982 105.192 32.7955 107.408L26.7092 129.785C26.2763 131.377 24.6404 132.321 23.0456 131.9L10.1298 128.488C9.09287 128.214 8.28081 127.408 7.99951 126.373L0.105075 97.3285C-0.0350616 96.813 -0.0350616 96.2694 0.105106 95.7538L7.99503 66.7307C8.27643 65.6956 9.08886 64.8893 10.1261 64.6156L23.0463 61.2069C24.6409 60.7862 26.2762 61.7304 26.7091 63.3215L32.7955 85.6963C33.3983 87.9121 36.1645 88.6583 37.7999 87.0462L52.6396 72.4182C52.6399 72.418 52.6403 72.418 52.6405 72.4182C52.6407 72.4184 52.6411 72.4184 52.6414 72.4182L72.6938 52.2977L87.3217 37.6297C88.9514 35.9957 88.2044 33.2107 85.9758 32.6112L63.5885 26.59C61.9897 26.16 61.0409 24.5169 61.4677 22.9174L64.8719 10.1579C65.1484 9.12164 65.9567 8.31159 66.9925 8.03291L96.8071 0.0109778Z" fill="white"/>
</svg>
