<svg width="150" height="150" viewBox="0 0 150 150" fill="none" xmlns="http://www.w3.org/2000/svg">
<path fill-rule="evenodd" clip-rule="evenodd" d="M92.942 2.15967L63.4765 53.1538L14.7729 30.2965C28.4417 11.9113 50.3299 0 75 0C81.184 0 87.1932 0.748437 92.942 2.15967ZM120.738 15.5559L91.432 66.2737L147.883 92.767C149.267 87.0713 150 81.1213 150 75C150 50.7956 138.534 29.2692 120.738 15.5559ZM134.607 120.526L75.982 93.0121L46.3318 144.326C55.1639 147.982 64.8463 150 75 150C99.3005 150 120.902 138.443 134.607 120.526ZM20.8618 126.904L48.0265 79.8922L1.88078 58.2353C0.650032 63.6255 0 69.2368 0 75C0 95.1426 7.94042 113.431 20.8618 126.904Z" fill="white"/>
</svg>
